<?xml version="1.0" encoding="UTF-8" standalone="no"?>
<!-- Created with Inkscape (http://www.inkscape.org/) -->

<svg
   xmlns:dc="http://purl.org/dc/elements/1.1/"
   xmlns:cc="http://creativecommons.org/ns#"
   xmlns:rdf="http://www.w3.org/1999/02/22-rdf-syntax-ns#"
   xmlns:svg="http://www.w3.org/2000/svg"
   xmlns="http://www.w3.org/2000/svg"
   xmlns:sodipodi="http://sodipodi.sourceforge.net/DTD/sodipodi-0.dtd"
   xmlns:inkscape="http://www.inkscape.org/namespaces/inkscape"
   width="51"
   height="26"
   id="svg2"
   version="1.1"
   inkscape:version="0.48.4 r9939"
   sodipodi:docname="denver.svg">
  <defs
     id="defs4" />
  <sodipodi:namedview
     id="base"
     pagecolor="#ffffff"
     bordercolor="#666666"
     borderopacity="1.0"
     inkscape:pageopacity="0.0"
     inkscape:pageshadow="2"
     inkscape:zoom="15.839192"
     inkscape:cx="29.731336"
     inkscape:cy="7.0714632"
     inkscape:document-units="px"
     inkscape:current-layer="g2993"
     showgrid="false"
     fit-margin-top="0"
     fit-margin-left="0"
     fit-margin-right="0"
     fit-margin-bottom="0"
     inkscape:window-width="1680"
     inkscape:window-height="988"
     inkscape:window-x="-8"
     inkscape:window-y="-8"
     inkscape:window-maximized="1" />
  <metadata
     id="metadata7">
    <rdf:RDF>
      <cc:Work
         rdf:about="">
        <dc:format>image/svg+xml</dc:format>
        <dc:type
           rdf:resource="http://purl.org/dc/dcmitype/StillImage" />
        <dc:title></dc:title>
      </cc:Work>
    </rdf:RDF>
  </metadata>
  <g
     inkscape:label="Layer 1"
     inkscape:groupmode="layer"
     id="layer1"
     transform="translate(-172.76602,-410.18724)">
    <g
       id="g2993">
      <g
         id="g3027"
         transform="matrix(0.20058569,0,0,0.51643844,138.49043,210.54456)">
        <g
           id="text2985"
           style="font-size:40px;font-style:normal;font-variant:normal;font-weight:normal;font-stretch:normal;line-height:125%;letter-spacing:0px;word-spacing:0px;fill:#ffffff;fill-opacity:1;stroke:none;font-family:Lobster Two;-inkscape-font-specification:Lobster Two">
          <path
             inkscape:connector-curvature="0"
             id="path3000"
             style="fill:#ffffff;font-family:Denver Broncos Custom;-inkscape-font-specification:Denver Broncos Custom"
             d="m 204.08682,402.0195 c 0.58672,0.15952 1.14662,0.42604 1.67969,0.79956 0.533,0.37355 1.01294,0.86692 1.43982,1.4801 0.4268,0.61322 0.76697,1.35317 1.02051,2.21985 0.25346,0.86671 0.38021,1.85996 0.38025,2.97974 -4e-5,1.12061 -0.30013,2.1875 -0.90027,3.20068 -0.60022,1.01319 -1.44026,1.89311 -2.52014,2.63977 -1.07995,0.74667 -2.35335,1.33993 -3.82019,1.77979 -1.46691,0.43986 -3.06705,0.65979 -4.80042,0.65979 l -22.35962,0 0,-12.0398 -1.44043,0 0,-6.92016 1.44043,0 0,-11.04004 21.60034,0 c 2.23956,3e-5 4.15952,0.25332 5.75989,0.75989 1.60031,0.50662 2.90036,1.1599 3.90015,1.95983 0.99972,0.8 1.69959,1.68684 2.09961,2.66053 0.39994,0.97373 0.52018,1.91388 0.36071,2.82043 -3e-5,0.93345 -0.12678,1.73342 -0.38024,2.3999 -0.25354,0.66653 -0.57357,1.23314 -0.96009,1.69983 -0.38659,0.46674 -0.80651,0.86001 -1.25976,1.17981 -0.45333,0.31984 -0.86674,0.57334 -1.24024,0.7605 z m -20.24048,-2.36084 10.60059,0 c 0.53302,2e-5 1.06626,-0.0867 1.59973,-0.26001 0.53342,-0.17332 1.02008,-0.39996 1.45996,-0.67993 0.43984,-0.27993 0.79323,-0.59324 1.06018,-0.93994 0.2669,-0.34666 0.40037,-0.70677 0.40039,-1.08032 -2e-5,-0.34585 -0.13349,-0.69212 -0.40039,-1.03882 -0.26695,-0.34666 -0.62034,-0.65346 -1.06018,-0.92041 -0.43988,-0.26691 -0.92654,-0.48033 -1.45996,-0.64026 -0.53347,-0.15989 -1.06671,-0.23985 -1.59973,-0.23987 l -10.60059,0 z m 11.35987,12.0398 c 0.72019,0 1.39361,-0.0799 2.02026,-0.23987 0.6266,-0.15991 1.17327,-0.37984 1.64002,-0.65979 0.46668,-0.27994 0.82679,-0.59997 1.08032,-0.96009 0.25347,-0.36009 0.38022,-0.72651 0.38025,-1.09924 -3e-5,-0.82681 -0.48669,-1.5336 -1.45996,-2.12036 -0.97334,-0.58674 -2.19363,-0.88011 -3.66089,-0.88013 l -12.15943,0 0,5.95948 z" />
          <path
             inkscape:connector-curvature="0"
             id="path3002"
             style="fill:#ffffff;font-family:Denver Broncos Custom;-inkscape-font-specification:Denver Broncos Custom"
             d="m 246.00699,417.77878 -9.08081,0 -8.43994,-10.39917 -6.4795,0 0,10.39917 -7.76001,0 0,-10.39917 -1.31958,0 0,-5.80078 1.31958,0 0,-9.75952 18.80005,0 c 1.78627,2e-5 3.36607,0.25332 4.73938,0.75988 1.37327,0.50662 2.52663,1.14667 3.46009,1.92017 0.9334,0.77354 1.64018,1.6203 2.12036,2.54028 0.48011,0.92003 0.72018,1.79303 0.72021,2.61902 -3e-5,1.59995 -0.62015,3.02004 -1.86035,4.26025 -1.24026,1.24025 -3.00703,2.19362 -5.30029,2.86011 z m -14.24072,-15.5603 c 0.48012,10e-6 0.94683,-0.0732 1.40014,-0.21973 0.45327,-0.14647 0.85996,-0.33975 1.2201,-0.57984 0.36008,-0.24005 0.65345,-0.51328 0.88012,-0.8197 0.22662,-0.30638 0.33994,-0.61989 0.33997,-0.94055 -3e-5,-0.3198 -0.11335,-0.63963 -0.33997,-0.95947 -0.22667,-0.31981 -0.52004,-0.60647 -0.88012,-0.85999 -0.36014,-0.25348 -0.76683,-0.45347 -1.2201,-0.59997 -0.45331,-0.14647 -0.92002,-0.21971 -1.40014,-0.21973 l -9.75953,0 0,5.19898 z" />
          <path
             inkscape:connector-curvature="0"
             id="path3004"
             style="fill:#ffffff;font-family:Denver Broncos Custom;-inkscape-font-specification:Denver Broncos Custom"
             d="m 265.35269,391.259 c 2.31932,3e-5 4.49908,0.36014 6.53931,1.08032 2.04017,0.72024 3.81365,1.70026 5.32043,2.94007 1.50673,1.23985 2.69345,2.67967 3.56018,4.31946 0.86667,1.63982 1.30002,3.37973 1.30005,5.21972 -3e-5,1.86688 -0.43338,3.62692 -1.30005,5.28015 -0.86673,1.65325 -2.05345,3.09998 -3.56018,4.34021 -1.50678,1.24024 -3.28026,2.22697 -5.32043,2.96021 -2.04023,0.73323 -4.21999,1.09985 -6.53931,1.09985 -2.32016,0 -4.50034,-0.36662 -6.54053,-1.09985 -2.04021,-0.73324 -3.81348,-1.71997 -5.31982,-2.96021 -1.50635,-1.24023 -2.69287,-2.68696 -3.55957,-4.34021 -0.8667,-1.65323 -1.30005,-3.41327 -1.30005,-5.28015 0,-1.83999 0.43335,-3.5799 1.30005,-5.21972 0.8667,-1.63979 2.05322,-3.07961 3.55957,-4.31946 1.50634,-1.23981 3.27961,-2.21983 5.31982,-2.94007 2.04019,-0.72018 4.22037,-1.08029 6.54053,-1.08032 z m 0,21.67969 c 1.3867,10e-6 2.68004,-0.21992 3.88001,-0.65979 1.19993,-0.43985 2.24647,-1.0264 3.13964,-1.75964 0.89313,-0.73323 1.593,-1.59322 2.09961,-2.57996 0.50657,-0.98672 0.75986,-2.02697 0.75989,-3.12073 -3e-5,-1.06606 -0.25332,-2.08576 -0.75989,-3.05908 -0.50661,-0.97329 -1.20648,-1.82676 -2.09961,-2.56042 -0.89317,-0.73363 -1.93971,-1.31366 -3.13964,-1.74012 -1.19997,-0.42641 -2.49331,-0.63962 -3.88001,-0.63964 -1.38673,2e-5 -2.68007,0.21323 -3.88,0.63964 -1.19997,0.42646 -2.24672,1.00649 -3.14026,1.74012 -0.89357,0.73366 -1.59364,1.58713 -2.10022,2.56042 -0.5066,0.97332 -0.7599,1.99302 -0.75989,3.05908 -1e-5,1.09376 0.25329,2.13401 0.75989,3.12073 0.50658,0.98674 1.20665,1.84673 2.10022,2.57996 0.89354,0.73324 1.94029,1.31979 3.14026,1.75964 1.19993,0.43987 2.49327,0.6598 3.88,0.65979 z" />
          <path
             inkscape:connector-curvature="0"
             id="path3006"
             style="fill:#ffffff;font-family:Denver Broncos Custom;-inkscape-font-specification:Denver Broncos Custom"
             d="m 317.71353,391.85959 0,25.99975 -7.59888,0 -17.12036,-16.48071 0,16.48071 -7.60009,0 0,-25.99975 7.60009,0 17.12036,16.51977 0,-10.80078 -1.8811,0 0,-5.71899 9.47998,0 z" />
          <path
             inkscape:connector-curvature="0"
             id="path3008"
             style="fill:#ffffff;font-family:Denver Broncos Custom;-inkscape-font-specification:Denver Broncos Custom"
             d="m 344.81192,398.93967 0,-2.00074 -5.88013,0 c -1.28012,0.18639 -2.50673,0.51292 -3.67981,0.97962 -1.17311,0.46673 -2.20643,1.04677 -3.09997,1.74011 -0.89357,0.69338 -1.60035,1.47341 -2.12036,2.34009 -0.52003,0.86671 -0.78004,1.7802 -0.78003,2.74048 -10e-6,1.14666 0.26,2.19992 0.78003,3.15979 0.52001,0.95989 1.22679,1.77979 2.12036,2.45971 0.89354,0.67994 1.92686,1.21339 3.09997,1.60035 1.17308,0.38696 2.39969,0.58045 3.67981,0.58044 l 5.88013,0 0,-1.28052 8.43994,0 0,6.51978 -14.32007,0 c -2.26645,0 -4.41957,-0.34668 -6.45935,-1.04004 -2.0398,-0.69336 -3.8265,-1.62659 -5.3601,-2.79968 -1.53362,-1.17309 -2.75371,-2.5531 -3.66028,-4.14002 -0.90658,-1.5869 -1.35987,-3.27351 -1.35987,-5.05981 0,-1.76024 0.41992,-3.42691 1.25977,-5 0.83984,-1.57306 1.98649,-2.95307 3.43994,-4.14002 1.45344,-1.1869 3.1669,-2.12033 5.14038,-2.80029 1.97346,-0.67991 4.09341,-1.01987 6.35986,-1.0199 l 14.95972,0 0,7.16065 z" />
          <path
             inkscape:connector-curvature="0"
             id="path3010"
             style="fill:#ffffff;font-family:Denver Broncos Custom;-inkscape-font-specification:Denver Broncos Custom"
             d="m 371.91519,391.259 c 2.31932,3e-5 4.49908,0.36014 6.53931,1.08032 2.04017,0.72024 3.81365,1.70026 5.32043,2.94007 1.50673,1.23985 2.69345,2.67967 3.56018,4.31946 0.86667,1.63982 1.30002,3.37973 1.30005,5.21972 -3e-5,1.86688 -0.43338,3.62692 -1.30005,5.28015 -0.86673,1.65325 -2.05345,3.09998 -3.56018,4.34021 -1.50678,1.24024 -3.28026,2.22697 -5.32043,2.96021 -2.04023,0.73323 -4.21999,1.09985 -6.53931,1.09985 -2.32016,0 -4.50034,-0.36662 -6.54053,-1.09985 -2.04021,-0.73324 -3.81348,-1.71997 -5.31982,-2.96021 -1.50635,-1.24023 -2.69287,-2.68696 -3.55957,-4.34021 -0.8667,-1.65323 -1.30005,-3.41327 -1.30005,-5.28015 0,-1.83999 0.43335,-3.5799 1.30005,-5.21972 0.8667,-1.63979 2.05322,-3.07961 3.55957,-4.31946 1.50634,-1.23981 3.27961,-2.21983 5.31982,-2.94007 2.04019,-0.72018 4.22037,-1.08029 6.54053,-1.08032 z m 0,21.67969 c 1.3867,10e-6 2.68004,-0.21992 3.88001,-0.65979 1.19993,-0.43985 2.24647,-1.0264 3.13964,-1.75964 0.89313,-0.73323 1.593,-1.59322 2.09961,-2.57996 0.50657,-0.98672 0.75986,-2.02697 0.75989,-3.12073 -3e-5,-1.06606 -0.25332,-2.08576 -0.75989,-3.05908 -0.50661,-0.97329 -1.20648,-1.82676 -2.09961,-2.56042 -0.89317,-0.73363 -1.93971,-1.31366 -3.13964,-1.74012 -1.19997,-0.42641 -2.49331,-0.63962 -3.88001,-0.63964 -1.38673,2e-5 -2.68007,0.21323 -3.88,0.63964 -1.19997,0.42646 -2.24672,1.00649 -3.14026,1.74012 -0.89357,0.73366 -1.59364,1.58713 -2.10022,2.56042 -0.5066,0.97332 -0.7599,1.99302 -0.75989,3.05908 -1e-5,1.09376 0.25329,2.13401 0.75989,3.12073 0.50658,0.98674 1.20665,1.84673 2.10022,2.57996 0.89354,0.73324 1.94029,1.31979 3.14026,1.75964 1.19993,0.43987 2.49327,0.6598 3.88,0.65979 z" />
          <path
             inkscape:connector-curvature="0"
             id="path3012"
             style="fill:#ffffff;font-family:Denver Broncos Custom;-inkscape-font-specification:Denver Broncos Custom"
             d="m 422.03604,410.05905 c -3e-5,1.14666 -0.29992,2.19341 -0.89966,3.14026 -0.5998,0.94686 -1.40628,1.76677 -2.41943,2.45972 -1.01321,0.69295 -2.18651,1.23291 -3.5199,1.61987 -1.33344,0.38696 -2.73379,0.58044 -4.20105,0.58044 l -18.19946,0 0,-7.16064 6.47949,0 0,2.00073 11.04004,0 c 0.50698,10e-6 0.99383,-0.0734 1.46057,-0.22033 0.46669,-0.14689 0.88011,-0.34688 1.24024,-0.59998 0.36008,-0.25309 0.65345,-0.53975 0.88012,-0.85999 0.22662,-0.32022 0.33994,-0.64025 0.33997,-0.96008 -3e-5,-0.31981 -0.11335,-0.63984 -0.33997,-0.96008 -0.22667,-0.32022 -0.52004,-0.60017 -0.88012,-0.83985 -0.36013,-0.23965 -0.77355,-0.43293 -1.24024,-0.57983 -0.46674,-0.14688 -0.95359,-0.22033 -1.46057,-0.22034 l -7.79907,0 c -1.4673,10e-6 -2.86744,-0.19326 -4.20044,-0.57983 -1.33302,-0.38654 -2.50631,-0.9265 -3.5199,-1.61987 -1.01359,-0.69335 -1.82027,-1.51346 -2.42004,-2.46033 -0.59978,-0.94684 -0.89966,-1.99359 -0.89966,-3.14026 0,-1.14663 0.29988,-2.19318 0.89966,-3.13965 0.59977,-0.94643 1.40645,-1.76633 2.42004,-2.45971 1.01359,-0.69334 2.18688,-1.2333 3.5199,-1.61988 1.333,-0.38653 2.73314,-0.57981 4.20044,-0.57983 l 18.19946,0 0,7.15942 -6.47949,0 0,-1.99951 -11.04004,0 c -0.50701,2e-5 -0.99387,0.0733 -1.46057,0.21973 -0.46673,0.1465 -0.87994,0.34649 -1.23963,0.59997 -0.35971,0.25352 -0.65308,0.54018 -0.88012,0.85999 -0.22706,0.31984 -0.34059,0.63967 -0.34058,0.95947 -10e-6,0.32066 0.11352,0.63417 0.34058,0.94055 0.22704,0.30642 0.52041,0.58636 0.88012,0.83985 0.35969,0.25351 0.7729,0.4535 1.23963,0.59997 0.4667,0.1465 0.95356,0.21974 1.46057,0.21973 l 7.79907,0 c 1.46726,1e-5 2.86761,0.22015 4.20105,0.6604 1.33339,0.44028 2.50669,1.02703 3.5199,1.76025 1.01315,0.73325 1.81963,1.56658 2.41943,2.5 0.59974,0.93344 0.89963,1.89332 0.89966,2.87964 z" />
        </g>
        <g
           id="text2989"
           style="font-size:40px;font-style:normal;font-variant:normal;font-weight:normal;font-stretch:normal;line-height:125%;letter-spacing:0px;word-spacing:0px;fill:#000000;fill-opacity:1;stroke:none;font-family:Lobster Two;-inkscape-font-specification:Lobster Two">
          <path
             inkscape:connector-curvature="0"
             id="path3015"
             style="font-size:18px;letter-spacing:12px;word-spacing:5.61999989px;fill:#ff6600;font-family:Denver Broncos Custom;-inkscape-font-specification:Denver Broncos Custom"
             d="m 223.83887,433.52307 3.07837,0 c 0.6599,0 1.29289,-0.10199 1.89898,-0.30597 0.60607,-0.20397 1.1401,-0.48898 1.60208,-0.85501 0.46197,-0.36602 0.83092,-0.79806 1.10688,-1.29611 0.27592,-0.49804 0.41389,-1.04699 0.41391,-1.64685 -2e-5,-0.49182 -0.13799,-0.95974 -0.41391,-1.40378 -0.27596,-0.44402 -0.64491,-0.84603 -1.10688,-1.20602 -0.46198,-0.35998 -0.99601,-0.66302 -1.60208,-0.90912 -0.60609,-0.24609 -1.23908,-0.41106 -1.89898,-0.49494 l -3.07837,0 z m -3.65351,-8.1178 -1.04425,0 0,-2.73614 8.13593,0 c 1.16417,1e-5 2.23525,0.18 3.21322,0.53998 0.97796,0.35999 1.81795,0.84596 2.51999,1.45788 0.70201,0.61195 1.25096,1.32899 1.64685,2.15113 0.39586,0.82215 0.5938,1.68915 0.59382,2.60101 -2e-5,0.93604 -0.21599,1.81202 -0.64792,2.62793 -0.43197,0.81592 -1.01992,1.52994 -1.76386,2.14206 -0.74397,0.61212 -1.62599,1.09213 -2.64606,1.44003 -1.02009,0.3479 -2.11204,0.52185 -3.27584,0.52185 l -6.73188,0 z" />
          <path
             inkscape:connector-curvature="0"
             id="path3017"
             style="font-size:18px;letter-spacing:12px;word-spacing:5.61999989px;fill:#ff6600;font-family:Denver Broncos Custom;-inkscape-font-specification:Denver Broncos Custom"
             d="m 263.02179,433.82904 0,2.34009 -13.1402,0 0,-4.68018 -0.8822,0 0,-2.6098 0.8822,0 0,-4.39178 13.1402,0 0,2.33953 -9.63007,0 0,2.34009 7.28998,0 0,2.32196 -7.28998,0 0,2.34009 z" />
          <path
             inkscape:connector-curvature="0"
             id="path3019"
             style="font-size:18px;letter-spacing:12px;word-spacing:5.61999989px;fill:#ff6600;font-family:Denver Broncos Custom;-inkscape-font-specification:Denver Broncos Custom"
             d="m 291.35077,424.48737 0,11.69989 -3.4195,0 -7.70416,-7.41632 0,7.41632 -3.42004,0 0,-11.69989 3.42004,0 7.70416,7.43389 0,-4.86035 -0.84649,0 0,-2.57354 4.26599,0 z" />
          <path
             inkscape:connector-curvature="0"
             id="path3021"
             style="font-size:18px;letter-spacing:12px;word-spacing:5.61999989px;fill:#ff6600;font-family:Denver Broncos Custom;-inkscape-font-specification:Denver Broncos Custom"
             d="m 314.39313,424.45111 5.25586,0 -6.13806,11.69989 -2.35767,0 -6.13806,-11.69989 3.51013,0 3.8161,7.02026 2.32196,-4.6983 -0.27026,0 0,-2.32196 z" />
          <path
             inkscape:connector-curvature="0"
             id="path3023"
             style="font-size:18px;letter-spacing:12px;word-spacing:5.61999989px;fill:#ff6600;font-family:Denver Broncos Custom;-inkscape-font-specification:Denver Broncos Custom"
             d="m 347.11554,433.82904 0,2.34009 -13.1402,0 0,-4.68018 -0.8822,0 0,-2.6098 0.8822,0 0,-4.39178 13.1402,0 0,2.33953 -9.63007,0 0,2.34009 7.28998,0 0,2.32196 -7.28998,0 0,2.34009 z" />
          <path
             inkscape:connector-curvature="0"
             id="path3025"
             style="font-size:18px;letter-spacing:12px;word-spacing:5.61999989px;fill:#ff6600;font-family:Denver Broncos Custom;-inkscape-font-specification:Denver Broncos Custom"
             d="m 375.66095,436.151 -4.08637,0 -3.79797,-4.67963 -2.91577,0 0,4.67963 -3.492,0 0,-4.67963 -0.59382,0 0,-2.61035 0.59382,0 0,-4.39178 8.46002,0 c 0.80382,10e-6 1.51473,0.11399 2.13272,0.34195 0.61797,0.22798 1.13698,0.516 1.55704,0.86407 0.42003,0.3481 0.73808,0.72914 0.95416,1.14313 0.21605,0.41401 0.32408,0.80686 0.32409,1.17856 -1e-5,0.71998 -0.27906,1.35901 -0.83715,1.91711 -0.55812,0.55811 -1.35317,0.98713 -2.38514,1.28705 z m -6.40833,-7.00214 c 0.21606,10e-6 0.42608,-0.033 0.63007,-0.0989 0.20397,-0.0659 0.38698,-0.15289 0.54904,-0.26093 0.16204,-0.10802 0.29406,-0.23098 0.39606,-0.36886 0.10198,-0.13787 0.15297,-0.27896 0.15298,-0.42325 -1e-5,-0.14391 -0.051,-0.28784 -0.15298,-0.43176 -0.102,-0.14392 -0.23402,-0.27291 -0.39606,-0.387 -0.16206,-0.11406 -0.34507,-0.20406 -0.54904,-0.26999 -0.20399,-0.0659 -0.41401,-0.0989 -0.63007,-0.0989 l -4.39178,0 0,2.33953 z" />
        </g>
      </g>
    </g>
  </g>
</svg>
