<?xml version="1.0" encoding="UTF-8" standalone="no"?>
<!-- Created with Inkscape (http://www.inkscape.org/) -->

<svg
   xmlns:dc="http://purl.org/dc/elements/1.1/"
   xmlns:cc="http://creativecommons.org/ns#"
   xmlns:rdf="http://www.w3.org/1999/02/22-rdf-syntax-ns#"
   xmlns:svg="http://www.w3.org/2000/svg"
   xmlns="http://www.w3.org/2000/svg"
   xmlns:sodipodi="http://sodipodi.sourceforge.net/DTD/sodipodi-0.dtd"
   xmlns:inkscape="http://www.inkscape.org/namespaces/inkscape"
   width="51"
   height="26"
   id="svg2"
   version="1.1"
   inkscape:version="0.48.4 r9939"
   sodipodi:docname="dolphins.svg">
  <defs
     id="defs4" />
  <sodipodi:namedview
     id="base"
     pagecolor="#ffffff"
     bordercolor="#666666"
     borderopacity="1.0"
     inkscape:pageopacity="0.0"
     inkscape:pageshadow="2"
     inkscape:zoom="5.6"
     inkscape:cx="9.7950299"
     inkscape:cy="-11.69791"
     inkscape:document-units="px"
     inkscape:current-layer="layer1"
     showgrid="false"
     fit-margin-top="0"
     fit-margin-left="0"
     fit-margin-right="0"
     fit-margin-bottom="0"
     inkscape:window-width="1680"
     inkscape:window-height="988"
     inkscape:window-x="-8"
     inkscape:window-y="-8"
     inkscape:window-maximized="1" />
  <metadata
     id="metadata7">
    <rdf:RDF>
      <cc:Work
         rdf:about="">
        <dc:format>image/svg+xml</dc:format>
        <dc:type
           rdf:resource="http://purl.org/dc/dcmitype/StillImage" />
        <dc:title></dc:title>
      </cc:Work>
    </rdf:RDF>
  </metadata>
  <g
     inkscape:label="Layer 1"
     inkscape:groupmode="layer"
     id="layer1"
     transform="translate(-291.5168,-648.42275)">
    <g
       id="g3110">
      <g
         transform="matrix(0.73675642,0,0,1.3573007,56.607143,-13.571429)"
         style="font-size:17.9692421px;font-style:normal;font-variant:normal;font-weight:normal;font-stretch:normal;line-height:125%;letter-spacing:0px;word-spacing:0px;fill:#df6108;fill-opacity:1;stroke:none;font-family:Arial;-inkscape-font-specification:Arial"
         id="text2985-1">
        <path
           d="m 330.23149,490.70197 c 0.92236,-1.18595 2.15621,-1.9407 3.70155,-2.26425 0.88653,-0.17986 1.58132,0.12559 2.08438,0.91633 0.29977,0.74289 0.0961,1.36584 -0.61089,1.86888 -0.21571,0.0837 -0.47326,0.11974 -0.77266,0.10803 -0.0479,-0.0362 -0.10183,-0.0901 -0.16177,-0.16177 -0.0359,-0.10784 -0.0598,-0.23963 -0.0718,-0.39539 l -0.0537,-0.12612 c -0.69499,-0.37106 -1.47972,-0.0475 -2.35419,0.97063 1.59357,1.10188 2.4622,2.71904 2.60589,4.85149 0.19155,1.88094 -0.40142,3.60596 -1.77894,5.17505 l -0.66518,0.77266 -0.0718,0.0543 c -0.0717,0.0958 -0.16141,0.18553 -0.26925,0.26925 l -0.14367,0.14368 -0.21606,0.19796 c -0.0596,0.0479 -0.12541,0.10182 -0.19742,0.16177 l -0.46722,0.34109 -0.0537,0.0543 -0.14422,0.12558 -0.0718,0.0181 c -0.0717,0.06 -0.15538,0.11973 -0.25116,0.17932 l -0.0718,0.0543 c -0.0841,0.0358 -0.18591,0.0956 -0.30545,0.17932 l -0.0724,0.0362 c -0.0958,0.072 -0.22155,0.13782 -0.37728,0.19742 l -0.34109,0.17986 c -1.80892,0.99439 -3.8275,1.26986 -6.05574,0.82641 -0.23946,-0.0958 -0.52699,-0.24549 -0.8626,-0.44912 l -0.21551,-0.19742 -0.12612,-0.14367 -0.10749,-0.0899 c -0.1678,-0.19193 -0.2996,-0.44345 -0.39538,-0.75456 l -0.0362,-0.0362 c -0.0238,-0.20363 -0.0117,-0.43724 0.0362,-0.70082 0.46722,-0.86242 1.24591,-1.3715 2.33609,-1.52724 0.89824,-0.32354 1.85059,-0.34163 2.85705,-0.0543 -0.11992,0.0483 -0.24568,0.0724 -0.37728,0.0724 -1.49745,0.77833 -1.73105,1.24838 -0.70083,1.41015 1.03021,0.16177 2.33005,-0.41612 3.89951,-1.73369 1.61698,-1.66524 2.10796,-3.37837 1.47295,-5.1394 -0.0596,-0.0599 -0.1075,-0.13782 -0.14368,-0.23361 l -0.79021,-0.8445 -0.32354,0.48531 -0.0543,0.0537 -0.0718,0.12557 -0.0718,0.10803 -0.16177,0.28735 -0.0718,0.14368 -0.0537,0.17987 c -0.0479,0.072 -0.0958,0.16781 -0.14367,0.28735 l -0.14368,0.2879 -0.10803,0.30544 -0.16177,0.37729 -0.0181,0.10748 -0.0894,0.19796 -0.0724,0.21551 -0.35919,1.22179 c -0.0121,0.0841 -0.042,0.18005 -0.0899,0.2879 l -0.23361,0.89824 -0.0175,0.16177 c -0.0241,0.0121 -0.0302,0.0421 -0.0181,0.0899 l -0.10803,0.43102 c -0.0837,-0.0121 -0.17951,-0.042 -0.28735,-0.0899 l -0.8807,-0.26926 -0.10748,-0.0362 -0.10803,-0.0176 -0.19742,-0.0724 -0.19796,-0.0718 0.19796,-0.88015 c 0.0358,-0.11991 0.0656,-0.27565 0.0894,-0.46721 l 0.0718,-0.19797 0.0181,-0.10748 c 0.0479,-0.10785 0.0839,-0.22776 0.10803,-0.35974 l 0.0537,-0.10748 0.23361,-0.75457 0.0181,-0.10803 c 0.0238,-0.0121 0.0417,-0.0481 0.0537,-0.10803 l 0.19797,-0.5747 c 0.0479,-0.0841 0.0718,-0.14403 0.0718,-0.17987 l 0.44912,-1.0962 0.0718,-0.17932 0.5928,-1.27608 c -1.31758,-0.32353 -2.29387,0.0898 -2.92889,1.23989 -0.15574,0.81453 0.22172,1.20387 1.1324,1.16804 0.0958,0.0358 0.1795,0.0837 0.25116,0.14367 0.0599,0.6109 -0.25153,1.09018 -0.93444,1.43785 -1.126,0.68255 -2.31196,0.75439 -3.55787,0.21551 -1.03022,-0.62295 -1.53327,-1.58133 -1.50914,-2.87514 -0.0121,-0.15573 0.006,-0.33542 0.0537,-0.53906 l -0.0181,-0.0718 c 0.0362,-0.0841 0.0601,-0.19796 0.0718,-0.34164 l 0.0718,-0.30545 c 0.0483,-0.0837 0.0903,-0.18553 0.12613,-0.30545 l 0.21551,-0.48531 c 0.072,-0.0837 0.14386,-0.20344 0.21551,-0.35919 l 0.10804,-0.10803 c 0.0358,-0.0958 0.0958,-0.18552 0.17986,-0.26925 l 0.0537,-0.0718 c 2.32403,-2.49182 5.23499,-3.18661 8.73292,-2.08438 z"
           style="fill:#df6108;font-family:Dolphins;-inkscape-font-specification:Dolphins"
           id="path3042"
           inkscape:connector-curvature="0" />
        <path
           d="m 339.38446,495.3736 c 0.88654,0 1.59632,0.26661 2.12935,0.79981 0.53302,0.53321 0.79953,1.23102 0.79954,2.09343 -1e-5,1.1739 -0.4133,2.16819 -1.23988,2.9829 -0.8266,0.81471 -1.8389,1.22206 -3.03692,1.22206 -0.86242,0 -1.57211,-0.26953 -2.12908,-0.80858 -0.55697,-0.53906 -0.83545,-1.22791 -0.83545,-2.06657 0,-1.17389 0.41923,-2.1712 1.2577,-2.99194 0.83847,-0.82074 1.85672,-1.23111 3.05474,-1.23111 z m -0.23361,1.25798 c -0.0121,0 -0.027,0 -0.045,0 -0.0179,0 -0.0329,-0.006 -0.045,-0.0181 -0.17987,0.0958 -0.37756,0.40133 -0.59307,0.91661 -0.21552,0.5153 -0.3772,1.09631 -0.48504,1.74302 0,0.0358 0,0.0598 0,0.0718 0,0.0121 -0.006,0.03 -0.0181,0.0537 -0.06,0.43139 -0.063,0.78784 -0.009,1.06934 0.0539,0.2815 0.14687,0.43431 0.27885,0.45844 0.20363,0.0238 0.41924,-0.24284 0.64682,-0.79981 0.22757,-0.55696 0.39528,-1.21292 0.50313,-1.96785 0.06,-0.43102 0.0689,-0.78134 0.0269,-1.05097 -0.042,-0.26961 -0.12887,-0.42837 -0.26048,-0.47626 z"
           style="fill:#df6108;font-family:Dolphins;-inkscape-font-specification:Dolphins"
           id="path3044"
           inkscape:connector-curvature="0" />
        <path
           d="m 343.0575,500.51299 1.59907,-7.29561 c 0.0121,-0.0238 0.0211,-0.0476 0.0271,-0.0716 0.006,-0.0239 0.009,-0.048 0.009,-0.0721 0.0117,-0.0599 0.0206,-0.12584 0.0266,-0.19769 0.006,-0.0718 0.009,-0.13169 0.009,-0.17959 0,-0.1678 -0.027,-0.29063 -0.0809,-0.36851 -0.0539,-0.0779 -0.15876,-0.14677 -0.3145,-0.20674 0.20363,-0.19156 0.42225,-0.36219 0.65586,-0.51191 0.23361,-0.1497 0.47033,-0.27244 0.71015,-0.36824 0.16744,-0.0599 0.33506,-0.10793 0.50287,-0.14395 0.16779,-0.036 0.32957,-0.054 0.48531,-0.054 0.33524,1e-5 0.60175,0.0839 0.79953,0.2517 0.19778,0.16782 0.29667,0.38936 0.29668,0.66464 -1e-5,0.0241 -1e-5,0.0512 0,0.0812 -1e-5,0.03 -0.006,0.0569 -0.0181,0.0806 -1e-5,0.0362 -0.003,0.0692 -0.009,0.099 -0.006,0.0298 -0.009,0.0568 -0.009,0.0809 l -1.63526,7.36745 c 0,0.0238 -0.003,0.0447 -0.009,0.0628 -0.006,0.0181 -0.009,0.039 -0.009,0.0628 0,0.0362 -0.003,0.0752 -0.009,0.11708 -0.006,0.0419 -0.009,0.0867 -0.009,0.13463 -1e-5,0.14367 0.0509,0.26048 0.15272,0.35041 0.10181,0.0899 0.23059,0.1349 0.38633,0.1349 0.0238,0 0.0506,0 0.0806,0 0.03,0 0.0631,-0.006 0.0993,-0.0181 0.0238,1e-5 0.0506,-0.006 0.0806,-0.0181 0.03,-0.0121 0.0568,-0.0239 0.0806,-0.0356 0.0962,-0.0362 0.18014,-0.0663 0.25198,-0.0902 0.0718,-0.0239 0.12567,-0.0359 0.1615,-0.0359 0.0841,-0.0117 0.15601,0.0154 0.21579,0.0812 0.0598,0.0658 0.0897,0.14056 0.0897,0.22428 -10e-6,0 -10e-6,0 0,0 -10e-6,0 -10e-6,0 0,0 -10e-6,0.0121 -10e-6,0.0181 0,0.0181 -10e-6,0 -10e-6,0 0,0 -0.0121,0.11991 -0.066,0.25472 -0.16178,0.40443 -0.0958,0.14971 -0.23343,0.30243 -0.41292,0.45817 -0.0479,0.0479 -0.0988,0.0928 -0.15273,0.13462 -0.0539,0.0419 -0.11087,0.0867 -0.17082,0.13463 -0.2157,0.14404 -0.44336,0.26697 -0.683,0.36878 -0.23965,0.10182 -0.48523,0.17667 -0.73675,0.22457 -0.11991,0.0238 -0.2337,0.0417 -0.34136,0.0537 -0.10767,0.0121 -0.21543,0.0181 -0.32327,0.0181 -0.49135,0 -0.89569,-0.13773 -1.21301,-0.4132 -0.31733,-0.27547 -0.47599,-0.63493 -0.47599,-1.07838 0,-0.0358 0,-0.0748 0,-0.11681 0,-0.042 0.006,-0.081 0.0175,-0.1168 0,-0.0358 0.003,-0.0718 0.009,-0.10776 0.006,-0.036 0.0151,-0.0719 0.0272,-0.10776 z"
           style="fill:#df6108;font-family:Dolphins;-inkscape-font-specification:Dolphins"
           id="path3046"
           inkscape:connector-curvature="0" />
        <path
           d="m 346.74643,506.58683 2.42603,-10.29689 c 0.0238,-0.11954 0.0446,-0.23324 0.0625,-0.34109 0.0179,-0.10785 0.0269,-0.18572 0.0269,-0.23361 0,-0.0837 -0.012,-0.15555 -0.0359,-0.21552 -0.0239,-0.0599 -0.0599,-0.1199 -0.10775,-0.17986 -0.0358,-0.0358 -0.0718,-0.0687 -0.10776,-0.0987 -0.036,-0.03 -0.078,-0.0629 -0.12585,-0.0987 0.3356,-0.25188 0.63813,-0.45569 0.90756,-0.61144 0.26944,-0.15573 0.53595,-0.2634 0.79954,-0.323 0.11991,-0.0362 0.2368,-0.0602 0.35069,-0.0721 0.11387,-0.0119 0.23059,-0.0178 0.35014,-0.0178 0.3356,1e-5 0.59919,0.0749 0.79076,0.22456 0.19156,0.14972 0.27546,0.35033 0.2517,0.60185 0,0.06 -0.003,0.12284 -0.009,0.18864 -0.006,0.0658 -0.0209,0.14076 -0.0447,0.22483 l -0.12613,0.64654 c 0.20363,-0.14367 0.39227,-0.26038 0.56593,-0.35014 0.17365,-0.0897 0.34438,-0.15856 0.51218,-0.20646 0.11991,-0.0362 0.23671,-0.0602 0.35042,-0.0721 0.11369,-0.0119 0.23653,-0.0178 0.36851,-0.0178 0.63501,1e-5 1.15314,0.22457 1.55437,0.67368 0.40123,0.44913 0.60184,1.03306 0.60185,1.7518 -1e-5,1.27004 -0.34439,2.37521 -1.03314,3.31549 -0.68877,0.94028 -1.49434,1.41043 -2.41671,1.41043 -0.33561,0 -0.63219,-0.0509 -0.88974,-0.15273 -0.25756,-0.10181 -0.50003,-0.27245 -0.72742,-0.51191 -0.0362,-0.0241 -0.0693,-0.0541 -0.0993,-0.0899 -0.03,-0.0358 -0.0629,-0.0716 -0.0987,-0.10748 l -0.48531,2.12003 -0.66463,2.8395 z m 5.7322,-9.86532 c -0.0241,10e-6 -0.0452,-0.003 -0.0631,-0.009 -0.0179,-0.006 -0.0269,-0.009 -0.0269,-0.009 -0.1795,0.0841 -0.38012,0.38662 -0.60184,0.90757 -0.22173,0.52096 -0.38049,1.10498 -0.47627,1.75207 0,0.0238 -0.003,0.0417 -0.009,0.0537 -0.006,0.0121 -0.009,0.036 -0.009,0.0718 -0.06,0.4314 -0.0659,0.78784 -0.0178,1.06934 0.0481,0.2815 0.14395,0.42829 0.28763,0.44035 0.19156,0.0358 0.40415,-0.22776 0.63776,-0.79076 0.2336,-0.563 0.40433,-1.22197 0.51219,-1.9769 0.06,-0.43102 0.0689,-0.77833 0.0269,-1.04192 -0.042,-0.26358 -0.12888,-0.41932 -0.26048,-0.46722 z"
           style="fill:#df6108;font-family:Dolphins;-inkscape-font-specification:Dolphins"
           id="path3048"
           inkscape:connector-curvature="0" />
        <path
           d="m 356.86071,502.29193 2.01255,-9.1102 c 0.0238,-0.1199 0.0447,-0.22775 0.0628,-0.32354 0.0181,-0.0958 0.0271,-0.16761 0.0271,-0.21551 0,-0.13197 -0.03,-0.23991 -0.0899,-0.32382 -0.06,-0.0839 -0.16781,-0.16167 -0.32354,-0.23334 0.20363,-0.19192 0.42526,-0.35972 0.66491,-0.50341 0.23963,-0.14366 0.48522,-0.25736 0.73674,-0.34109 0.1795,-0.0599 0.35617,-0.10793 0.53001,-0.14395 0.17383,-0.036 0.33862,-0.054 0.49436,-0.054 0.31147,10e-6 0.55998,0.0839 0.74552,0.2517 0.18553,0.16782 0.2783,0.40143 0.2783,0.70083 0,0.0121 -0.003,0.036 -0.009,0.0718 -0.006,0.0358 -0.009,0.0718 -0.009,0.10803 0,0.0117 -0.003,0.0295 -0.009,0.0535 -0.006,0.024 -0.009,0.042 -0.009,0.054 l -0.89879,4.06129 c 0.44345,-0.29941 0.79395,-0.52105 1.05151,-0.66491 0.25755,-0.14385 0.49417,-0.23973 0.70988,-0.28763 0.10784,-0.0238 0.21267,-0.0386 0.31449,-0.0447 0.10181,-0.006 0.21249,-0.009 0.33204,-0.009 0.50341,10e-6 0.90783,0.12577 1.21329,0.37729 0.30544,0.25153 0.45816,0.58695 0.45817,1.00627 -1e-5,0.0837 -0.003,0.16452 -0.009,0.24238 -0.006,0.0779 -0.0151,0.15282 -0.0271,0.22484 -10e-6,0.0238 -0.003,0.0476 -0.009,0.0716 -0.006,0.024 -0.0149,0.048 -0.0266,0.0721 l -0.44912,2.08439 c -0.0241,0.11991 -0.0452,0.23379 -0.0631,0.34164 -0.0179,0.10785 -0.0269,0.19156 -0.0269,0.25115 -10e-6,0.15574 0.0539,0.28461 0.16177,0.38661 0.10784,0.102 0.23945,0.153 0.39483,0.153 0.0241,0 0.0482,0 0.0721,0 0.0239,0 0.0538,-0.006 0.0897,-0.0181 0.0241,0 0.0482,-0.003 0.0721,-0.009 0.0239,-0.006 0.048,-0.0151 0.0721,-0.0271 0.10748,-0.0479 0.20015,-0.0838 0.27803,-0.10776 0.0779,-0.0239 0.13489,-0.0359 0.1711,-0.0359 0.0716,0 0.13443,0.03 0.18836,0.0899 0.0539,0.0599 0.0809,0.13179 0.0809,0.21551 -1e-5,0.11991 -0.0599,0.26368 -0.1796,0.4313 -0.11973,0.16762 -0.28141,0.34136 -0.48504,0.52123 -0.0358,0.0238 -0.0687,0.0476 -0.0987,0.0716 -0.03,0.0239 -0.0631,0.048 -0.0993,0.0721 -0.23947,0.1795 -0.48797,0.32317 -0.74552,0.43102 -0.25756,0.10785 -0.51813,0.17987 -0.78171,0.21606 -0.0958,0.0238 -0.18865,0.0387 -0.27858,0.0447 -0.0899,0.006 -0.17676,0.009 -0.26048,0.009 -0.50305,0 -0.91634,-0.13481 -1.23988,-0.40443 -0.32355,-0.26961 -0.48532,-0.62597 -0.48531,-1.06906 -10e-6,-0.06 0.003,-0.12283 0.009,-0.18864 0.006,-0.0658 0.0151,-0.12265 0.0271,-0.17055 l 0.43102,-1.88696 c 0.0121,-0.072 0.0211,-0.13792 0.0272,-0.19769 0.006,-0.0598 0.009,-0.11361 0.009,-0.1615 -1e-5,-0.15574 -0.045,-0.27857 -0.1349,-0.36851 -0.0899,-0.0899 -0.20675,-0.1349 -0.35042,-0.1349 -0.27565,0 -0.49427,0.10182 -0.65586,0.30544 -0.16159,0.20364 -0.29631,0.55113 -0.40415,1.04247 l -0.43157,2.01255 -0.21552,1.06001 -2.92888,0 z"
           style="fill:#df6108;font-family:Dolphins;-inkscape-font-specification:Dolphins"
           id="path3050"
           inkscape:connector-curvature="0" />
        <path
           d="m 366.83735,500.51299 0.62899,-2.92888 c 0.0238,-0.11991 0.0417,-0.22474 0.0537,-0.3145 0.0121,-0.0897 0.0181,-0.17666 0.0181,-0.26075 0,-0.13161 -0.033,-0.24832 -0.099,-0.35014 -0.066,-0.10181 -0.16479,-0.18873 -0.2964,-0.26075 0.41933,-0.3473 0.82961,-0.60778 1.23084,-0.78144 0.40122,-0.17365 0.78756,-0.26047 1.15899,-0.26048 0.31148,1e-5 0.55706,0.0749 0.73675,0.22456 0.17968,0.14971 0.27556,0.35636 0.28762,0.61994 0,0.0596 0,0.12239 0,0.18837 0,0.066 -0.0121,0.12896 -0.0362,0.18892 l -0.61089,2.85704 c -1e-5,0.0238 -0.003,0.0476 -0.009,0.0716 -0.006,0.0239 -0.0151,0.048 -0.0271,0.0721 -0.0117,0.06 -0.0206,0.11991 -0.0266,0.17987 -0.006,0.06 -0.009,0.10785 -0.009,0.14367 0,0.19157 0.0479,0.34429 0.14368,0.45817 0.0958,0.11388 0.22757,0.17082 0.39538,0.17082 0.0237,0 0.0447,0 0.0628,0 0.0181,0 0.0332,0 0.0452,0 0.0358,-0.0121 0.0747,-0.0241 0.11653,-0.0362 0.0418,-0.0121 0.0748,-0.0239 0.099,-0.0356 0.10784,-0.0479 0.2007,-0.0838 0.27857,-0.10775 0.0779,-0.024 0.14075,-0.0359 0.18865,-0.0359 0.06,0 0.1168,0.0269 0.17054,0.0806 0.0537,0.0537 0.0806,0.12869 0.0806,0.22483 0,0.10749 -0.0359,0.22713 -0.10775,0.35892 -0.0718,0.13179 -0.16754,0.26368 -0.28708,0.39565 -0.072,0.06 -0.14395,0.12284 -0.21578,0.18864 -0.0718,0.0658 -0.15566,0.12869 -0.25144,0.18865 -0.13198,0.0837 -0.26679,0.16158 -0.40442,0.2336 -0.13765,0.072 -0.27246,0.13783 -0.40443,0.19742 -0.22777,0.0841 -0.4494,0.15007 -0.66491,0.19797 -0.21552,0.0479 -0.41906,0.0718 -0.61062,0.0718 -0.49135,0 -0.89578,-0.13481 -1.21329,-0.40443 -0.31751,-0.26961 -0.47626,-0.61994 -0.47626,-1.05096 0,-0.0479 0.003,-0.0988 0.009,-0.15273 0.006,-0.0539 0.009,-0.11086 0.009,-0.17081 0.0121,-0.0241 0.0211,-0.0511 0.0272,-0.0809 0.006,-0.0298 0.009,-0.0568 0.009,-0.0809 z m 3.00072,-8.5355 c 0.41932,1e-5 0.75475,0.11088 1.00627,0.3326 0.25152,0.22173 0.37728,0.51228 0.37729,0.87164 -1e-5,0.40727 -0.20364,0.77258 -0.6109,1.09593 -0.40726,0.32337 -0.88051,0.48505 -1.41975,0.48504 -0.37143,1e-5 -0.67395,-0.10774 -0.90756,-0.32326 -0.23361,-0.21551 -0.35042,-0.49107 -0.35041,-0.82668 -1e-5,-0.44308 0.18873,-0.8264 0.5662,-1.14995 0.37746,-0.32353 0.82375,-0.48531 1.33886,-0.48532 z"
           style="fill:#df6108;font-family:Dolphins;-inkscape-font-specification:Dolphins"
           id="path3052"
           inkscape:connector-curvature="0" />
        <path
           d="m 371.71023,502.25574 0.98873,-4.67163 c 0.0238,-0.15574 0.0447,-0.29055 0.0628,-0.40443 0.0181,-0.11387 0.0271,-0.20664 0.0271,-0.2783 0,-0.13197 -0.03,-0.24284 -0.0899,-0.33259 -0.06,-0.0897 -0.16177,-0.17063 -0.30545,-0.24266 0.45515,-0.3473 0.87741,-0.60184 1.26676,-0.76362 0.38934,-0.16176 0.76973,-0.24265 1.14117,-0.24265 0.3473,0 0.60778,0.0809 0.78144,0.24265 0.17365,0.16178 0.27254,0.41632 0.29667,0.76362 0.39519,-0.3473 0.79944,-0.60485 1.21274,-0.77266 0.41329,-0.1678 0.82959,-0.2517 1.24893,-0.25171 0.47927,10e-6 0.86862,0.13482 1.16804,0.40443 0.29941,0.26962 0.44912,0.61995 0.44912,1.05096 0,0.0483 -0.003,0.10831 -0.009,0.18015 -0.006,0.0718 -0.0151,0.13774 -0.0272,0.19769 -1e-5,0.0238 -0.003,0.0476 -0.009,0.0716 -0.006,0.024 -0.0148,0.048 -0.0269,0.0721 l -0.52096,2.24616 c -0.0241,0.11955 -0.0452,0.21825 -0.0631,0.29612 -0.0179,0.0779 -0.0269,0.14679 -0.0269,0.20674 -0.0121,0.13198 0.0358,0.24586 0.14368,0.34164 0.10784,0.0958 0.24566,0.14368 0.41348,0.14367 0.0596,1e-5 0.11633,-0.006 0.17027,-0.0181 0.0539,-0.0121 0.10482,-0.0239 0.15272,-0.0356 0.10784,-0.0362 0.20371,-0.0663 0.28762,-0.0902 0.0839,-0.0239 0.14376,-0.0359 0.1796,-0.0359 0.0841,0 0.15006,0.03 0.19796,0.0899 0.0479,0.06 0.0718,0.13783 0.0718,0.23361 -10e-6,0.15574 -0.0809,0.33241 -0.24266,0.53001 -0.16178,0.1976 -0.38634,0.39821 -0.67368,0.60184 -0.2636,0.17987 -0.54811,0.32373 -0.85355,0.43157 -0.30545,0.10785 -0.61392,0.17366 -0.92539,0.19742 -0.0479,0.0121 -0.0988,0.0181 -0.15272,0.0181 -0.0539,0 -0.10484,0 -0.15272,0 -0.51512,0 -0.91946,-0.1318 -1.21302,-0.39538 -0.29357,-0.26359 -0.44035,-0.61693 -0.44034,-1.06002 -10e-6,-0.0358 0.003,-0.0748 0.009,-0.1168 0.006,-0.042 0.009,-0.087 0.009,-0.1349 0.0121,-0.0121 0.021,-0.0301 0.0269,-0.054 0.006,-0.0239 0.009,-0.0478 0.009,-0.0716 l 0.39538,-1.90507 c -1e-5,-0.0117 0.003,-0.0266 0.009,-0.0447 0.006,-0.0181 0.009,-0.033 0.009,-0.0447 0.012,-0.0599 0.021,-0.11689 0.0269,-0.17082 0.006,-0.0539 0.009,-0.0988 0.009,-0.13463 -1e-5,-0.14404 -0.0449,-0.25791 -0.13463,-0.34164 -0.0897,-0.0837 -0.2125,-0.12557 -0.36823,-0.12558 -0.22777,1e-5 -0.42546,0.0958 -0.59307,0.28735 -0.16763,0.19157 -0.29348,0.46101 -0.37756,0.80831 l -0.48477,2.15677 -0.2698,1.20369 -2.82085,0 z"
           style="fill:#df6108;font-family:Dolphins;-inkscape-font-specification:Dolphins"
           id="path3054"
           inkscape:connector-curvature="0" />
        <path
           d="m 385.58968,499.97394 c -0.37144,-0.17987 -0.8266,-0.22173 -1.36546,-0.12558 l -0.48532,0.14367 -0.10803,0.0176 -0.17932,0.0724 -0.0362,0.0175 c -0.0479,0.11991 -0.0419,0.24567 0.0181,0.37728 0.2157,0.29978 0.60504,0.36577 1.16805,0.19797 0.47928,-0.11992 0.80867,-0.35352 0.98818,-0.70083 z m -3.48604,-1.56343 c 0.0358,-0.0716 0.33231,-0.42197 0.88947,-1.05096 0.55715,-0.62899 1.7941,-1.43464 3.71087,-2.41698 l 0.5928,-0.10803 0.0718,-0.0176 0.0537,0 c 0.0962,0.0117 0.17402,0.0357 0.23361,0.0718 l 0.10803,0.23361 0,0.19742 -0.0181,0.0362 -0.0357,0.0718 0,0.0356 -0.12612,0.23361 -0.0176,0.0718 c -0.06,0.0958 -0.11389,0.18572 -0.16177,0.2698 l -0.26981,0.34109 -0.0356,0.0718 -0.0362,0.0362 0.2517,0.25171 0,0.0356 0.0718,0.0362 0,0.0356 0.0356,0.0543 0.0362,0.0356 0.0537,0.0718 c 0.0121,10e-6 0.0241,0.0121 0.0362,0.0362 0.0238,0.0358 0.0537,0.0777 0.0899,0.12558 l 0.0899,0.14368 0.0356,0.0718 0.0537,0.0718 0.21607,0.46722 0.0356,0.0362 0.0537,0.14368 c -0.0117,0.0241 -0.0117,0.0481 0,0.0718 l 0.10803,0.50342 0.0181,0.0537 0,0.0356 0,0.0899 0,0.0899 0,0.0362 0,0.0356 0,0.0543 -0.0181,0.0356 -0.0181,0.16177 c 0,0.0479 -0.0119,0.0958 -0.0356,0.14368 l 0,0.0362 c -0.0121,0.0117 -0.0121,0.0236 0,0.0356 -0.0362,0.0479 -0.0543,0.10182 -0.0543,0.16178 l -0.0356,0.0181 -0.0181,0.12558 c -0.89825,2.25237 -2.47346,3.25873 -4.72565,3.01909 -2.25218,-0.23964 -3.10281,-1.16813 -2.55187,-2.78548 l 0.16177,-0.16177 0.0718,-0.0718 0.0181,-0.0181 0.28735,-0.19741 0.0538,-0.0362 0.46721,-0.23307 0.0718,-0.0543 c -0.0117,-0.0121 -0.006,-0.024 0.0181,-0.0356 l 0.34164,-0.14367 0.17932,-0.0724 c 1.40165,-0.41896 2.74937,-0.28716 4.04318,0.39538 -0.0958,-0.62295 -0.64672,-1.02418 -1.65281,-1.20369 -0.0241,-0.0479 -0.0422,-0.10784 -0.0543,-0.17987 l 0.0181,-0.0718 c -0.0238,-0.0479 -0.0298,-0.0958 -0.0181,-0.14368 l 0.0362,-0.21551 0.0181,-0.0543 c 0,-0.0238 0.006,-0.0596 0.0175,-0.10748 l 0.0362,-0.16177 -0.0537,0.0899 -0.0718,0.0718 -0.64709,0.73647 -0.2698,0 -0.0894,0 -0.10803,0.0181 -0.17986,0.0181 -0.10749,0.0181 -0.50341,0.0537 -0.16177,0.0362 c -0.0121,-0.0121 -0.036,-0.0121 -0.0718,0 l -0.53905,0.10748 z"
           style="fill:#df6108;font-family:Dolphins;-inkscape-font-specification:Dolphins"
           id="path3056"
           inkscape:connector-curvature="0" />
      </g>
      <g
         transform="matrix(0.73675642,0,0,1.3573007,56.607143,-13.571429)"
         style="font-size:17.9692421px;font-style:normal;font-variant:normal;font-weight:normal;font-stretch:normal;line-height:125%;letter-spacing:0px;word-spacing:0px;fill:#005e6a;fill-opacity:1;stroke:none;font-family:Arial;-inkscape-font-specification:Arial"
         id="text2985">
        <path
           d="m 329.41737,490.2099 c 0.92236,-1.18594 2.15621,-1.94069 3.70155,-2.26425 0.88653,-0.17985 1.58133,0.12559 2.08439,0.91634 0.29976,0.74288 0.0961,1.36584 -0.6109,1.86887 -0.21571,0.0837 -0.47326,0.11974 -0.77266,0.10803 -0.0479,-0.0362 -0.10183,-0.0901 -0.16177,-0.16177 -0.0358,-0.10784 -0.0598,-0.23963 -0.0718,-0.39538 l -0.0537,-0.12613 c -0.69499,-0.37105 -1.47972,-0.0475 -2.35419,0.97063 1.59358,1.10188 2.4622,2.71905 2.60589,4.8515 0.19156,1.88094 -0.40142,3.60595 -1.77893,5.17504 l -0.66519,0.77266 -0.0718,0.0543 c -0.0717,0.0958 -0.16142,0.18554 -0.26926,0.26926 l -0.14367,0.14367 -0.21606,0.19797 c -0.0596,0.0479 -0.12541,0.10181 -0.19742,0.16177 l -0.46722,0.34109 -0.0537,0.0543 -0.14422,0.12558 -0.0718,0.0181 c -0.0717,0.06 -0.15538,0.11973 -0.25115,0.17932 l -0.0718,0.0543 c -0.0841,0.0358 -0.18591,0.0956 -0.30545,0.17932 l -0.0724,0.0362 c -0.0958,0.072 -0.22156,0.13783 -0.37729,0.19742 l -0.34109,0.17987 c -1.80892,0.99439 -3.8275,1.26985 -6.05573,0.8264 -0.23947,-0.0958 -0.527,-0.24549 -0.8626,-0.44912 l -0.21552,-0.19741 -0.12612,-0.14368 -0.10748,-0.0899 c -0.16781,-0.19194 -0.2996,-0.44346 -0.39538,-0.75457 l -0.0362,-0.0362 c -0.0238,-0.20364 -0.0117,-0.43724 0.0362,-0.70083 0.46721,-0.86242 1.24591,-1.37149 2.33608,-1.52723 0.89824,-0.32354 1.85059,-0.34164 2.85705,-0.0543 -0.11992,0.0483 -0.24568,0.0724 -0.37728,0.0724 -1.49744,0.77834 -1.73105,1.24839 -0.70083,1.41016 1.03021,0.16177 2.33005,-0.41613 3.89952,-1.7337 1.61697,-1.66524 2.10795,-3.37837 1.47294,-5.13939 -0.0596,-0.06 -0.10749,-0.13782 -0.14368,-0.23361 l -0.79021,-0.84451 -0.32354,0.48532 -0.0543,0.0537 -0.0718,0.12558 -0.0718,0.10803 -0.16177,0.28735 -0.0718,0.14367 -0.0537,0.17987 c -0.0479,0.072 -0.0958,0.16781 -0.14367,0.28735 l -0.14368,0.2879 -0.10803,0.30545 -0.16177,0.37728 -0.0181,0.10748 -0.0894,0.19797 -0.0724,0.21551 -0.35918,1.22178 c -0.0121,0.0841 -0.0421,0.18006 -0.0899,0.2879 l -0.23361,0.89825 -0.0175,0.16177 c -0.0241,0.0121 -0.0302,0.042 -0.0181,0.0899 l -0.10803,0.43103 c -0.0837,-0.0121 -0.17951,-0.0421 -0.28735,-0.0899 l -0.8807,-0.26925 -0.10748,-0.0362 -0.10803,-0.0175 -0.19741,-0.0724 -0.19797,-0.0718 0.19797,-0.88014 c 0.0358,-0.11991 0.0656,-0.27565 0.0894,-0.46722 l 0.0718,-0.19796 0.0181,-0.10749 c 0.0479,-0.10784 0.0839,-0.22775 0.10803,-0.35973 l 0.0537,-0.10748 0.23361,-0.75457 0.0181,-0.10803 c 0.0238,-0.0121 0.0417,-0.0481 0.0537,-0.10803 l 0.19797,-0.5747 c 0.0479,-0.0841 0.0718,-0.14404 0.0718,-0.17987 l 0.44912,-1.09621 0.0718,-0.17932 0.5928,-1.27607 c -1.31758,-0.32354 -2.29387,0.0898 -2.92888,1.23988 -0.15575,0.81453 0.22172,1.20388 1.1324,1.16804 0.0958,0.0358 0.17949,0.0837 0.25115,0.14368 0.0599,0.6109 -0.25153,1.09018 -0.93443,1.43785 -1.12601,0.68255 -2.31197,0.75438 -3.55788,0.21551 -1.03022,-0.62295 -1.53326,-1.58133 -1.50913,-2.87515 -0.0121,-0.15573 0.006,-0.33541 0.0537,-0.53905 l -0.0181,-0.0718 c 0.0362,-0.0841 0.0601,-0.19796 0.0718,-0.34164 l 0.0718,-0.30544 c 0.0482,-0.0837 0.0903,-0.18553 0.12612,-0.30545 l 0.21551,-0.48532 c 0.072,-0.0837 0.14386,-0.20343 0.21552,-0.35918 l 0.10803,-0.10803 c 0.0358,-0.0958 0.0958,-0.18553 0.17987,-0.26926 l 0.0537,-0.0718 c 2.32402,-2.49182 5.23499,-3.18661 8.73291,-2.08439 z"
           style="fill:#005e6a;font-family:Dolphins;-inkscape-font-specification:Dolphins"
           id="path3059"
           inkscape:connector-curvature="0" />
        <path
           d="m 338.57035,494.88153 c 0.88653,10e-6 1.59632,0.26661 2.12935,0.79981 0.53301,0.53321 0.79952,1.23102 0.79953,2.09343 -1e-5,1.1739 -0.4133,2.1682 -1.23988,2.9829 -0.8266,0.81471 -1.8389,1.22206 -3.03692,1.22206 -0.86242,0 -1.57211,-0.26952 -2.12907,-0.80858 -0.55697,-0.53905 -0.83546,-1.22791 -0.83546,-2.06656 0,-1.17389 0.41924,-2.17121 1.25771,-2.99195 0.83846,-0.82073 1.85671,-1.2311 3.05474,-1.23111 z m -0.23361,1.25798 c -0.0121,1e-5 -0.0271,1e-5 -0.045,0 -0.0179,1e-5 -0.0329,-0.006 -0.045,-0.0181 -0.17987,0.0958 -0.37756,0.40133 -0.59307,0.91662 -0.21551,0.51529 -0.37719,1.0963 -0.48504,1.74302 0,0.0358 0,0.0598 0,0.0718 0,0.0121 -0.006,0.03 -0.0181,0.0537 -0.06,0.4314 -0.063,0.78784 -0.009,1.06934 0.0539,0.2815 0.14687,0.43432 0.27885,0.45845 0.20362,0.0238 0.41923,-0.24284 0.64681,-0.79981 0.22757,-0.55697 0.39528,-1.21292 0.50314,-1.96786 0.0599,-0.43102 0.0689,-0.78134 0.0269,-1.05096 -0.0421,-0.26962 -0.12888,-0.42837 -0.26048,-0.47627 z"
           style="fill:#005e6a;font-family:Dolphins;-inkscape-font-specification:Dolphins"
           id="path3061"
           inkscape:connector-curvature="0" />
        <path
           d="m 342.24338,500.02093 1.59907,-7.29562 c 0.0121,-0.0238 0.0211,-0.0476 0.0271,-0.0716 0.006,-0.0239 0.009,-0.048 0.009,-0.0721 0.0117,-0.06 0.0206,-0.12585 0.0266,-0.19769 0.006,-0.0718 0.009,-0.1317 0.009,-0.1796 -1e-5,-0.16779 -0.027,-0.29063 -0.0809,-0.36851 -0.0539,-0.0779 -0.15876,-0.14677 -0.31449,-0.20674 0.20363,-0.19155 0.42224,-0.36219 0.65586,-0.51191 0.2336,-0.14969 0.47032,-0.27244 0.71015,-0.36823 0.16743,-0.06 0.33505,-0.10793 0.50286,-0.14395 0.1678,-0.036 0.32957,-0.054 0.48531,-0.054 0.33524,1e-5 0.60175,0.0839 0.79954,0.25171 0.19777,0.16781 0.29666,0.38936 0.29667,0.66463 -1e-5,0.0241 -1e-5,0.0512 0,0.0812 -1e-5,0.03 -0.006,0.0569 -0.0181,0.0806 0,0.0362 -0.003,0.0692 -0.009,0.099 -0.006,0.0298 -0.009,0.0568 -0.009,0.0809 l -1.63527,7.36746 c 0,0.0238 -0.003,0.0447 -0.009,0.0628 -0.006,0.0181 -0.009,0.039 -0.009,0.0628 -1e-5,0.0362 -0.003,0.0752 -0.009,0.11707 -0.006,0.0419 -0.009,0.0867 -0.009,0.13463 0,0.14368 0.0509,0.26048 0.15272,0.35041 0.10181,0.0899 0.23059,0.13491 0.38633,0.1349 0.0238,1e-5 0.0506,1e-5 0.0806,0 0.03,1e-5 0.0631,-0.006 0.0992,-0.0181 0.0238,0 0.0506,-0.006 0.0806,-0.0181 0.03,-0.0121 0.0568,-0.0239 0.0806,-0.0356 0.0961,-0.0362 0.18013,-0.0663 0.25197,-0.0902 0.0718,-0.0239 0.12567,-0.0359 0.1615,-0.0359 0.0841,-0.0117 0.15601,0.0154 0.21579,0.0812 0.0598,0.0658 0.0897,0.14057 0.0897,0.22429 -1e-5,0 -1e-5,0 0,0 -1e-5,0 -1e-5,0 0,0 -1e-5,0.0121 -1e-5,0.0181 0,0.0181 -1e-5,0 -1e-5,0 0,0 -0.0121,0.11992 -0.066,0.25473 -0.16177,0.40443 -0.0958,0.14971 -0.23343,0.30243 -0.41293,0.45817 -0.0479,0.0479 -0.0988,0.0928 -0.15272,0.13463 -0.0539,0.0419 -0.11087,0.0867 -0.17082,0.13462 -0.2157,0.14405 -0.44337,0.26697 -0.68301,0.36879 -0.23964,0.10181 -0.48522,0.17667 -0.73674,0.22456 -0.11992,0.0238 -0.23371,0.0417 -0.34137,0.0537 -0.10767,0.0121 -0.21542,0.0181 -0.32327,0.0181 -0.49135,0 -0.89568,-0.13774 -1.21301,-0.41321 -0.31733,-0.27546 -0.47599,-0.63492 -0.47599,-1.07838 0,-0.0358 0,-0.0748 0,-0.1168 0,-0.0421 0.006,-0.081 0.0176,-0.11681 0,-0.0358 0.003,-0.0717 0.009,-0.10776 0.006,-0.036 0.0151,-0.0719 0.0272,-0.10775 z"
           style="fill:#005e6a;font-family:Dolphins;-inkscape-font-specification:Dolphins"
           id="path3063"
           inkscape:connector-curvature="0" />
        <path
           d="m 345.93232,506.09476 2.42602,-10.29689 c 0.0238,-0.11954 0.0446,-0.23324 0.0625,-0.34109 0.0179,-0.10784 0.0269,-0.18571 0.0269,-0.23361 -1e-5,-0.0837 -0.012,-0.15555 -0.0359,-0.21551 -0.024,-0.06 -0.0599,-0.11991 -0.10776,-0.17987 -0.0358,-0.0358 -0.0718,-0.0687 -0.10776,-0.0987 -0.036,-0.03 -0.078,-0.0629 -0.12585,-0.0987 0.33561,-0.25189 0.63813,-0.4557 0.90757,-0.61145 0.26943,-0.15573 0.53594,-0.26339 0.79953,-0.32299 0.11991,-0.0362 0.23681,-0.0602 0.35069,-0.0721 0.11388,-0.0119 0.23059,-0.0178 0.35014,-0.0178 0.3356,0 0.59919,0.0749 0.79076,0.22456 0.19156,0.14971 0.27546,0.35033 0.2517,0.60184 0,0.06 -0.003,0.12284 -0.009,0.18864 -0.006,0.0658 -0.0209,0.14076 -0.0447,0.22484 l -0.12612,0.64653 c 0.20362,-0.14366 0.39226,-0.26038 0.56592,-0.35013 0.17365,-0.0897 0.34438,-0.15857 0.51219,-0.20647 0.1199,-0.0362 0.23671,-0.0602 0.35041,-0.0721 0.11369,-0.0119 0.23653,-0.0178 0.36851,-0.0178 0.63501,0 1.15314,0.22456 1.55438,0.67368 0.40122,0.44913 0.60183,1.03306 0.60184,1.75179 -10e-6,1.27005 -0.34439,2.37521 -1.03314,3.31549 -0.68877,0.94029 -1.49434,1.41043 -2.4167,1.41043 -0.33561,0 -0.6322,-0.0509 -0.88975,-0.15272 -0.25755,-0.10182 -0.50003,-0.27245 -0.72742,-0.51191 -0.0362,-0.0241 -0.0693,-0.0541 -0.0993,-0.0899 -0.03,-0.0358 -0.0629,-0.0716 -0.0987,-0.10748 l -0.48532,2.12003 -0.66463,2.8395 z m 5.73219,-9.86532 c -0.0241,10e-6 -0.0452,-0.003 -0.0631,-0.009 -0.0179,-0.006 -0.0269,-0.009 -0.0269,-0.009 -0.17951,0.0841 -0.38013,0.38661 -0.60185,0.90756 -0.22173,0.52097 -0.38049,1.10499 -0.47627,1.75207 0,0.0238 -0.003,0.0417 -0.009,0.0537 -0.006,0.0121 -0.009,0.036 -0.009,0.0718 -0.06,0.43139 -0.0659,0.78784 -0.0178,1.06934 0.0481,0.2815 0.14394,0.42828 0.28762,0.44034 0.19156,0.0358 0.40415,-0.22776 0.63776,-0.79076 0.23361,-0.563 0.40434,-1.22196 0.51219,-1.9769 0.06,-0.43102 0.0689,-0.77833 0.0269,-1.04192 -0.042,-0.26358 -0.12888,-0.41932 -0.26048,-0.46722 z"
           style="fill:#005e6a;font-family:Dolphins;-inkscape-font-specification:Dolphins"
           id="path3065"
           inkscape:connector-curvature="0" />
        <path
           d="m 356.0466,501.79987 2.01254,-9.1102 c 0.0238,-0.11991 0.0447,-0.22775 0.0628,-0.32355 0.0181,-0.0958 0.0271,-0.16761 0.0272,-0.21551 -10e-6,-0.13197 -0.03,-0.2399 -0.0899,-0.32382 -0.06,-0.0839 -0.1678,-0.16167 -0.32354,-0.23333 0.20363,-0.19192 0.42526,-0.35973 0.66491,-0.50341 0.23964,-0.14367 0.48522,-0.25736 0.73674,-0.34109 0.1795,-0.06 0.35617,-0.10793 0.53001,-0.14395 0.17383,-0.036 0.33862,-0.054 0.49436,-0.054 0.31148,10e-6 0.55998,0.0839 0.74552,0.25171 0.18553,0.16781 0.2783,0.40142 0.2783,0.70083 0,0.0121 -0.003,0.036 -0.009,0.0718 -0.006,0.0358 -0.009,0.0718 -0.009,0.10803 -10e-6,0.0117 -0.003,0.0295 -0.009,0.0535 -0.006,0.024 -0.009,0.042 -0.009,0.054 l -0.89879,4.06128 c 0.44345,-0.29941 0.79395,-0.52104 1.05151,-0.66491 0.25755,-0.14385 0.49418,-0.23972 0.70988,-0.28762 0.10784,-0.0238 0.21267,-0.0387 0.31449,-0.0447 0.10181,-0.006 0.21249,-0.009 0.33205,-0.009 0.5034,0 0.90783,0.12577 1.21328,0.37728 0.30544,0.25153 0.45816,0.58695 0.45817,1.00627 -10e-6,0.0837 -0.003,0.16452 -0.009,0.24239 -0.006,0.0779 -0.0151,0.15282 -0.0271,0.22483 -1e-5,0.0238 -0.003,0.0476 -0.009,0.0716 -0.006,0.0239 -0.0149,0.048 -0.0266,0.0721 l -0.44912,2.08438 c -0.0241,0.11992 -0.0452,0.2338 -0.0631,0.34164 -0.0179,0.10785 -0.0269,0.19157 -0.0269,0.25116 -1e-5,0.15574 0.0539,0.28461 0.16177,0.3866 0.10784,0.102 0.23945,0.153 0.39483,0.153 0.0241,0 0.0482,0 0.0721,0 0.0239,0 0.0538,-0.006 0.0897,-0.0181 0.0241,10e-6 0.0482,-0.003 0.0721,-0.009 0.0239,-0.006 0.048,-0.0151 0.0721,-0.0272 0.10747,-0.0479 0.20015,-0.0838 0.27802,-0.10775 0.0779,-0.024 0.1349,-0.0359 0.1711,-0.0359 0.0716,0 0.13443,0.03 0.18837,0.0899 0.0539,0.06 0.0809,0.1318 0.0809,0.21551 -10e-6,0.11992 -0.0599,0.26368 -0.17959,0.4313 -0.11974,0.16762 -0.28142,0.34137 -0.48504,0.52124 -0.0358,0.0238 -0.0687,0.0476 -0.0987,0.0716 -0.03,0.024 -0.0631,0.048 -0.0993,0.0721 -0.23946,0.1795 -0.48797,0.32318 -0.74552,0.43103 -0.25756,0.10784 -0.51813,0.17986 -0.78171,0.21606 -0.0958,0.0238 -0.18865,0.0387 -0.27857,0.0447 -0.0899,0.006 -0.17677,0.009 -0.26048,0.009 -0.50306,0 -0.91635,-0.13481 -1.23989,-0.40443 -0.32354,-0.26962 -0.48532,-0.62597 -0.48531,-1.06906 -10e-6,-0.06 0.003,-0.12284 0.009,-0.18865 0.006,-0.0658 0.0151,-0.12265 0.0271,-0.17054 l 0.43103,-1.88697 c 0.0121,-0.072 0.0211,-0.13791 0.0271,-0.19769 0.006,-0.0598 0.009,-0.1136 0.009,-0.1615 -1e-5,-0.15573 -0.045,-0.27857 -0.1349,-0.36851 -0.0899,-0.0899 -0.20674,-0.13489 -0.35041,-0.1349 -0.27566,1e-5 -0.49428,0.10182 -0.65586,0.30545 -0.1616,0.20363 -0.29631,0.55112 -0.40416,1.04247 l -0.43157,2.01254 -0.21551,1.06002 -2.92889,0 z"
           style="fill:#005e6a;font-family:Dolphins;-inkscape-font-specification:Dolphins"
           id="path3067"
           inkscape:connector-curvature="0" />
        <path
           d="m 366.02323,500.02093 0.62899,-2.92889 c 0.0238,-0.1199 0.0417,-0.22474 0.0537,-0.31449 0.0121,-0.0898 0.0181,-0.17667 0.0181,-0.26076 0,-0.1316 -0.033,-0.24831 -0.099,-0.35013 -0.066,-0.10181 -0.16478,-0.18873 -0.29639,-0.26076 0.41932,-0.3473 0.8296,-0.60778 1.23083,-0.78144 0.40123,-0.17364 0.78756,-0.26047 1.159,-0.26048 0.31147,10e-6 0.55705,0.0749 0.73674,0.22456 0.17968,0.14972 0.27556,0.35637 0.28763,0.61995 -1e-5,0.0596 -1e-5,0.12238 0,0.18836 -1e-5,0.066 -0.0121,0.12897 -0.0362,0.18892 l -0.61089,2.85705 c 0,0.0238 -0.003,0.0476 -0.009,0.0716 -0.006,0.0239 -0.0151,0.048 -0.0271,0.0721 -0.0117,0.06 -0.0206,0.11992 -0.0266,0.17987 -0.006,0.06 -0.009,0.10785 -0.009,0.14368 0,0.19156 0.0479,0.34429 0.14368,0.45817 0.0958,0.11388 0.22757,0.17082 0.39538,0.17081 0.0238,1e-5 0.0447,1e-5 0.0628,0 0.0181,1e-5 0.0332,1e-5 0.0452,0 0.0358,-0.0121 0.0747,-0.0241 0.11653,-0.0362 0.0419,-0.0121 0.0748,-0.0239 0.099,-0.0356 0.10784,-0.0479 0.2007,-0.0838 0.27858,-0.10776 0.0779,-0.0239 0.14074,-0.0359 0.18864,-0.0359 0.06,0 0.1168,0.0269 0.17054,0.0806 0.0537,0.0538 0.0806,0.12869 0.0806,0.22484 -10e-6,0.10748 -0.0359,0.22712 -0.10776,0.35891 -0.0718,0.1318 -0.16753,0.26368 -0.28708,0.39566 -0.072,0.06 -0.14395,0.12283 -0.21578,0.18864 -0.0718,0.0658 -0.15565,0.12869 -0.25143,0.18864 -0.13198,0.0837 -0.26679,0.16159 -0.40443,0.23361 -0.13765,0.072 -0.27246,0.13783 -0.40443,0.19742 -0.22776,0.0841 -0.4494,0.15007 -0.66491,0.19796 -0.21551,0.0479 -0.41905,0.0718 -0.61062,0.0718 -0.49135,0 -0.89577,-0.13481 -1.21328,-0.40443 -0.31751,-0.26962 -0.47627,-0.61994 -0.47627,-1.05097 0,-0.0479 0.003,-0.0988 0.009,-0.15272 0.006,-0.0539 0.009,-0.11086 0.009,-0.17082 0.0121,-0.0241 0.0211,-0.0511 0.0271,-0.0809 0.006,-0.0298 0.009,-0.0568 0.009,-0.0809 z m 3.00072,-8.5355 c 0.41933,10e-6 0.75475,0.11087 1.00628,0.33259 0.25151,0.22174 0.37728,0.51229 0.37728,0.87165 0,0.40727 -0.20364,0.77258 -0.61089,1.09593 -0.40727,0.32337 -0.88052,0.48505 -1.41975,0.48504 -0.37144,10e-6 -0.67396,-0.10775 -0.90757,-0.32327 -0.23361,-0.2155 -0.35041,-0.49106 -0.35041,-0.82668 0,-0.44308 0.18873,-0.82639 0.5662,-1.14995 0.37746,-0.32353 0.82375,-0.4853 1.33886,-0.48531 z"
           style="fill:#005e6a;font-family:Dolphins;-inkscape-font-specification:Dolphins"
           id="path3069"
           inkscape:connector-curvature="0" />
        <path
           d="m 370.89612,501.76367 0.98872,-4.67163 c 0.0238,-0.15573 0.0447,-0.29054 0.0628,-0.40443 0.0181,-0.11387 0.0271,-0.20664 0.0272,-0.2783 -10e-6,-0.13197 -0.03,-0.24283 -0.0899,-0.33259 -0.06,-0.0897 -0.16177,-0.17063 -0.30544,-0.24266 0.45515,-0.3473 0.8774,-0.60183 1.26675,-0.76361 0.38934,-0.16177 0.76973,-0.24265 1.14117,-0.24266 0.3473,1e-5 0.60778,0.0809 0.78144,0.24266 0.17365,0.16178 0.27254,0.41631 0.29667,0.76361 0.3952,-0.3473 0.79944,-0.60485 1.21274,-0.77266 0.41329,-0.1678 0.8296,-0.2517 1.24893,-0.25171 0.47927,1e-5 0.86862,0.13482 1.16804,0.40443 0.29941,0.26963 0.44912,0.61995 0.44913,1.05097 -10e-6,0.0483 -0.003,0.10831 -0.009,0.18014 -0.006,0.0718 -0.0151,0.13774 -0.0272,0.19769 -10e-6,0.0238 -0.003,0.0476 -0.009,0.0716 -0.006,0.024 -0.0148,0.048 -0.0269,0.0721 l -0.52096,2.24615 c -0.0241,0.11955 -0.0452,0.21826 -0.0631,0.29613 -0.0179,0.0779 -0.0269,0.14678 -0.0269,0.20673 -0.0121,0.13198 0.0358,0.24586 0.14367,0.34164 0.10784,0.0958 0.24567,0.14368 0.41348,0.14368 0.0596,0 0.11634,-0.006 0.17027,-0.0181 0.0539,-0.0121 0.10482,-0.0239 0.15272,-0.0356 0.10784,-0.0362 0.20372,-0.0663 0.28763,-0.0902 0.0839,-0.0239 0.14375,-0.0359 0.17959,-0.0359 0.0841,0 0.15006,0.03 0.19796,0.0899 0.0479,0.06 0.0718,0.13783 0.0718,0.23361 -1e-5,0.15574 -0.0809,0.33241 -0.24266,0.53001 -0.16178,0.1976 -0.38634,0.39821 -0.67368,0.60184 -0.26359,0.17987 -0.54811,0.32373 -0.85355,0.43158 -0.30545,0.10785 -0.61391,0.17365 -0.92538,0.19741 -0.0479,0.0121 -0.0988,0.0181 -0.15273,0.0181 -0.0539,0 -0.10484,0 -0.15272,0 -0.51512,0 -0.91945,-0.13179 -1.21301,-0.39538 -0.29357,-0.26359 -0.44035,-0.61692 -0.44035,-1.06001 0,-0.0358 0.003,-0.0748 0.009,-0.11681 0.006,-0.042 0.009,-0.087 0.009,-0.1349 0.0121,-0.0121 0.021,-0.0301 0.0269,-0.054 0.006,-0.024 0.009,-0.0478 0.009,-0.0716 l 0.39538,-1.90506 c 0,-0.0117 0.003,-0.0266 0.009,-0.0447 0.006,-0.0181 0.009,-0.033 0.009,-0.0447 0.0121,-0.0599 0.021,-0.11689 0.0269,-0.17082 0.006,-0.0539 0.009,-0.0988 0.009,-0.13462 0,-0.14404 -0.0449,-0.25792 -0.13462,-0.34164 -0.0898,-0.0837 -0.21251,-0.12558 -0.36824,-0.12558 -0.22776,0 -0.42545,0.0958 -0.59307,0.28735 -0.16763,0.19157 -0.29348,0.461 -0.37756,0.80831 l -0.48476,2.15677 -0.26981,1.20369 -2.82085,0 z"
           style="fill:#005e6a;font-family:Dolphins;-inkscape-font-specification:Dolphins"
           id="path3071"
           inkscape:connector-curvature="0" />
        <path
           d="m 384.77556,499.48187 c -0.37144,-0.17986 -0.82659,-0.22172 -1.36546,-0.12558 l -0.48532,0.14368 -0.10803,0.0175 -0.17932,0.0724 -0.0362,0.0175 c -0.0479,0.11992 -0.0419,0.24568 0.0181,0.37729 0.21569,0.29978 0.60504,0.36576 1.16804,0.19796 0.47928,-0.11991 0.80867,-0.35352 0.98818,-0.70083 z m -3.48604,-1.56342 c 0.0358,-0.0717 0.33232,-0.42197 0.88947,-1.05097 0.55715,-0.62898 1.7941,-1.43464 3.71087,-2.41697 l 0.5928,-0.10803 0.0718,-0.0176 0.0537,0 c 0.0961,0.0117 0.17401,0.0357 0.23361,0.0718 l 0.10803,0.23361 0,0.19741 -0.0181,0.0362 -0.0356,0.0718 0,0.0357 -0.12613,0.2336 -0.0176,0.0718 c -0.06,0.0958 -0.11389,0.18573 -0.16177,0.2698 l -0.2698,0.3411 -0.0357,0.0718 -0.0362,0.0362 0.2517,0.2517 0,0.0356 0.0718,0.0362 0,0.0356 0.0357,0.0543 0.0362,0.0356 0.0537,0.0718 c 0.0121,10e-6 0.0241,0.0121 0.0362,0.0362 0.0238,0.0358 0.0537,0.0777 0.0899,0.12558 l 0.0899,0.14367 0.0357,0.0718 0.0537,0.0718 0.21606,0.46721 0.0356,0.0362 0.0537,0.14367 c -0.0117,0.0241 -0.0117,0.0481 0,0.0718 l 0.10803,0.50341 0.0181,0.0537 0,0.0357 0,0.0899 0,0.0899 0,0.0362 0,0.0356 0,0.0543 -0.0181,0.0356 -0.0181,0.16178 c -10e-6,0.0479 -0.0119,0.0958 -0.0356,0.14367 l 0,0.0362 c -0.0121,0.0117 -0.0121,0.0236 0,0.0356 -0.0362,0.0479 -0.0543,0.10182 -0.0543,0.16177 l -0.0356,0.0181 -0.0181,0.12558 c -0.89825,2.25237 -2.47346,3.25873 -4.72564,3.01909 -2.25219,-0.23964 -3.10281,-1.16814 -2.55188,-2.78549 l 0.16177,-0.16177 0.0718,-0.0718 0.0181,-0.0181 0.28735,-0.19742 0.0537,-0.0362 0.46722,-0.23306 0.0718,-0.0543 c -0.0117,-0.0121 -0.006,-0.0239 0.0181,-0.0356 l 0.34164,-0.14368 0.17932,-0.0724 c 1.40165,-0.41895 2.74938,-0.28716 4.04319,0.39538 -0.0958,-0.62295 -0.64673,-1.02418 -1.65281,-1.20368 -0.0241,-0.0479 -0.0422,-0.10785 -0.0543,-0.17987 l 0.0181,-0.0718 c -0.0238,-0.0479 -0.0298,-0.0958 -0.0181,-0.14367 l 0.0362,-0.21552 0.0181,-0.0543 c -10e-6,-0.0238 0.006,-0.0596 0.0176,-0.10748 l 0.0362,-0.16177 -0.0537,0.0899 -0.0718,0.0718 -0.64709,0.73647 -0.2698,0 -0.0894,0 -0.10803,0.0181 -0.17987,0.0181 -0.10748,0.0181 -0.50341,0.0537 -0.16178,0.0362 c -0.0121,-0.0121 -0.036,-0.0121 -0.0718,0 l -0.53906,0.10748 z"
           style="fill:#005e6a;font-family:Dolphins;-inkscape-font-specification:Dolphins"
           id="path3073"
           inkscape:connector-curvature="0" />
      </g>
      <g
         transform="matrix(1.1658449,0,0,0.85774704,56.607143,-13.571429)"
         style="font-size:4.93434905999999970px;font-style:normal;font-variant:normal;font-weight:normal;font-stretch:normal;line-height:125%;letter-spacing:0px;word-spacing:0px;fill:#ffffff;fill-opacity:1;stroke:none;font-family:Arial;-inkscape-font-specification:Arial"
         id="text3021">
        <path
           d="m 225.75707,796.49154 0.10375,-0.01 c 0,0 0,0 0,0 0,0 0.002,0 0.005,0 0,0 0,0 0,0 0,0 0,0 0,0 0.0165,0 0.0296,0.007 0.0395,0.0197 0.01,0.0132 0.0165,0.028 0.0198,0.0444 0,10e-6 0,8.1e-4 0,0.002 0,0.002 0,0.004 0,0.007 0,0.0263 -0.008,0.0559 -0.0247,0.0888 -0.0165,0.0329 -0.0412,0.0658 -0.0741,0.0986 -0.0165,0.0198 -0.0354,0.0395 -0.0568,0.0593 -0.0214,0.0197 -0.0436,0.0378 -0.0666,0.0543 -0.0526,0.0395 -0.10935,0.074 -0.17023,0.1036 -0.0609,0.0296 -0.12256,0.0559 -0.185,0.0789 -0.0559,0.0198 -0.11103,0.0346 -0.16534,0.0445 -0.0543,0.01 -0.10446,0.0148 -0.15043,0.0148 -0.18753,0 -0.34873,-0.0716 -0.4836,-0.21466 -0.13488,-0.1431 -0.20232,-0.31334 -0.20231,-0.51071 -1e-5,-0.25328 0.10771,-0.47614 0.32315,-0.66859 0.21543,-0.19244 0.46791,-0.28867 0.75744,-0.28867 0.0132,0 0.0271,0 0.0419,0 0.0148,0 0.0288,0 0.0419,0 0.11515,0.007 0.23522,0.0279 0.3602,0.0641 0.12499,0.0362 0.26975,0.0905 0.43429,0.16286 0.0987,0.0428 0.17927,0.0748 0.24176,0.0962 0.0625,0.0214 0.12004,0.0354 0.17265,0.042 0.0198,0 0.0387,8e-4 0.0568,0.002 0.0181,0.002 0.037,0.002 0.0568,0.002 0.0165,1e-5 0.0304,1e-5 0.0419,0 0.0115,1e-5 0.0238,1e-5 0.037,0 0.007,-0.003 0.014,-0.005 0.0223,-0.005 0.008,0 0.0173,-0.002 0.0271,-0.005 0.0263,-0.003 0.0493,-0.006 0.0691,-0.007 0.0197,-0.002 0.0362,-0.002 0.0493,-0.002 0.0461,0 0.0815,0.014 0.10617,0.0419 0.0247,0.028 0.037,0.0666 0.037,0.11602 0,0.007 0,0.0123 0,0.0172 0,0.005 0,0.0107 0,0.0172 -0.003,0.0131 -0.008,0.0312 -0.0148,0.0543 -0.007,0.023 -0.0214,0.0691 -0.0445,0.13816 -0.01,0.0296 -0.0189,0.0642 -0.0271,0.10368 -0.008,0.0395 -0.014,0.079 -0.0173,0.11843 -0.003,0.0263 -0.006,0.051 -0.007,0.074 -0.002,0.023 -0.002,0.0461 -0.002,0.069 0,0.0329 0.002,0.0749 0.005,0.12589 0.003,0.051 0.007,0.10772 0.01,0.17016 0.003,0.0394 0.006,0.074 0.007,0.1036 0.002,0.0296 0.002,0.0576 0.002,0.0839 0.003,0.0263 0.005,0.0526 0.005,0.079 0,0.0263 0,0.0576 0,0.0937 0.0494,-0.0954 0.0963,-0.18254 0.14072,-0.26149 0.0444,-0.079 0.0896,-0.15297 0.13561,-0.22204 0.0659,-0.10531 0.13414,-0.1999 0.20487,-0.28378 0.0707,-0.0839 0.14719,-0.16526 0.22941,-0.24417 0.003,-0.003 0.007,-0.007 0.01,-0.01 0.003,-0.003 0.007,-0.007 0.01,-0.01 0.0263,-0.0263 0.0542,-0.0518 0.0839,-0.0765 0.0296,-0.0247 0.0576,-0.0485 0.0839,-0.0715 0.1316,-0.10862 0.2599,-0.19418 0.38489,-0.25667 0.12498,-0.0625 0.23024,-0.0937 0.31578,-0.0937 0.0494,0 0.0897,0.0124 0.12092,0.037 0.0312,0.0247 0.0468,0.06 0.0468,0.10601 -1e-5,0.007 -1e-5,0.0124 0,0.0173 -1e-5,0.005 -1e-5,0.0107 0,0.0173 -0.003,0.0197 -0.0114,0.0435 -0.0246,0.0714 -0.0131,0.028 -0.0362,0.0699 -0.0691,0.12581 -0.0198,0.0329 -0.0412,0.0724 -0.0642,0.11851 -0.023,0.0461 -0.0461,0.0954 -0.069,0.14803 -0.01,0.023 -0.0205,0.0477 -0.0321,0.074 -0.0115,0.0264 -0.0222,0.051 -0.0321,0.074 -0.0165,0.0362 -0.0313,0.0723 -0.0444,0.1085 -0.0132,0.0362 -0.0263,0.0708 -0.0395,0.10368 -0.0493,0.13161 -0.0871,0.25168 -0.11346,0.36019 -0.0264,0.10853 -0.0445,0.21544 -0.0543,0.32075 0,0.0263 -8.3e-4,0.0526 -0.002,0.0789 -0.002,0.0263 -0.002,0.0526 -0.002,0.079 0,0.11836 0.0173,0.2129 0.0518,0.28363 0.0345,0.0707 0.0814,0.10774 0.14065,0.11105 0.01,1e-5 0.0205,-0.002 0.0321,-0.005 0.0115,-0.003 0.0239,-0.008 0.037,-0.0148 0.0197,-0.007 0.0377,-0.0124 0.0542,-0.0173 0.0165,-0.005 0.028,-0.007 0.0346,-0.007 0.0263,0 0.0477,0.0115 0.0642,0.0346 0.0165,0.023 0.0247,0.0526 0.0247,0.0888 -1e-5,0.0165 -8.4e-4,0.0329 -0.002,0.0494 -0.002,0.0165 -0.004,0.0329 -0.007,0.0494 -0.0263,0.19074 -0.1143,0.36507 -0.26397,0.52298 -0.14969,0.15792 -0.31172,0.25002 -0.48609,0.27633 -0.0132,0 -0.0263,8.2e-4 -0.0394,0.002 -0.0132,0.002 -0.0263,0.002 -0.0395,0.002 -0.14145,-10e-6 -0.25248,-0.0576 -0.33309,-0.17273 -0.0806,-0.11514 -0.12092,-0.27471 -0.12092,-0.4787 0,-0.01 0,-0.0197 0,-0.0295 0,-0.01 0,-0.0197 0,-0.0297 0.007,-0.2303 0.0486,-0.46385 0.12589,-0.70067 0.0773,-0.23682 0.19656,-0.49668 0.35779,-0.77958 -0.0198,0.0165 -0.0387,0.0321 -0.0568,0.0469 -0.0181,0.0148 -0.0337,0.0304 -0.047,0.0468 -0.0132,0.01 -0.0255,0.0215 -0.037,0.0346 -0.0115,0.0131 -0.0222,0.0263 -0.032,0.0394 -0.0165,0.023 -0.0338,0.0477 -0.0519,0.074 -0.0181,0.0264 -0.0387,0.0576 -0.0617,0.0937 -0.0165,0.023 -0.0313,0.0468 -0.0444,0.0715 -0.0131,0.0247 -0.0263,0.0485 -0.0394,0.0715 -0.01,0.01 -0.018,0.0215 -0.0246,0.0346 -0.007,0.0132 -0.0132,0.0263 -0.0198,0.0395 -0.0296,0.0493 -0.0592,0.10355 -0.0889,0.16278 -0.0296,0.0592 -0.0625,0.12669 -0.0986,0.20238 -0.0329,0.0658 -0.0617,0.12331 -0.0864,0.17265 -0.0246,0.0493 -0.0485,0.097 -0.0716,0.14313 -0.007,0.01 -0.0131,0.0205 -0.0197,0.0321 -0.007,0.0116 -0.0132,0.0239 -0.0198,0.0371 -0.023,0.0394 -0.0468,0.0797 -0.0715,0.12084 -0.0247,0.0411 -0.0535,0.088 -0.0863,0.14057 -0.0362,0.0592 -0.07,0.10694 -0.10119,0.14313 -0.0312,0.0362 -0.0616,0.0625 -0.0913,0.079 -0.0132,0.01 -0.0271,0.0164 -0.0419,0.0197 -0.0148,0.003 -0.0305,0.005 -0.0469,0.005 -0.0461,0 -0.0806,-0.0132 -0.10368,-0.0395 -0.023,-0.0264 -0.0346,-0.0658 -0.0345,-0.11843 -1e-5,-0.003 -1e-5,-0.007 0,-0.0123 -1e-5,-0.005 -1e-5,-0.009 0,-0.0123 -1e-5,-0.0197 0.002,-0.041 0.005,-0.0641 0.003,-0.023 0.008,-0.0642 0.0148,-0.12341 0.003,-0.0165 0.007,-0.0428 0.01,-0.079 0.003,-0.0362 0.007,-0.0789 0.01,-0.12822 0.003,-0.0757 0.006,-0.13904 0.007,-0.19004 0.002,-0.051 0.002,-0.0863 0.002,-0.10601 -1e-5,-0.0394 -8.3e-4,-0.083 -0.002,-0.13078 -0.002,-0.0477 -0.006,-0.10282 -0.0123,-0.16527 -0.003,-0.0658 -0.007,-0.1292 -0.01,-0.19004 -0.003,-0.0608 -0.005,-0.1044 -0.005,-0.1307 0,-0.0198 0,-0.0379 0,-0.0544 0,-0.0165 0,-0.0329 0,-0.0492 0.003,-0.0264 0.007,-0.0536 0.01,-0.0815 0.003,-0.028 0.007,-0.0633 0.01,-0.10608 -0.01,0.0165 -0.0181,0.0329 -0.0246,0.0494 -0.007,0.0165 -0.0131,0.0329 -0.0197,0.0494 -0.007,0.0131 -0.0124,0.0263 -0.0173,0.0394 -0.005,0.0132 -0.0107,0.0263 -0.0173,0.0395 -0.0131,0.0362 -0.0263,0.0774 -0.0394,0.1234 -0.0132,0.046 -0.0296,0.10358 -0.0494,0.17265 -0.046,0.17437 -0.0772,0.29118 -0.0937,0.35041 -0.0165,0.0592 -0.0313,0.10857 -0.0444,0.14802 -0.007,0.0296 -0.0157,0.0674 -0.0272,0.11347 -0.0115,0.046 -0.032,0.1233 -0.0617,0.23182 -0.12499,0.43429 -0.33634,0.77149 -0.63404,1.01163 -0.29771,0.24013 -0.6505,0.36019 -1.05838,0.36019 -0.32898,0 -0.59955,-0.0938 -0.81173,-0.28129 -0.21217,-0.18753 -0.31826,-0.426 -0.31826,-0.71542 0,-0.32567 0.12253,-0.5987 0.36758,-0.81911 0.24505,-0.2204 0.54687,-0.3306 0.90546,-0.33061 0.11515,10e-6 0.20643,0.0148 0.27384,0.0444 0.0674,0.0296 0.10112,0.0724 0.10112,0.12829 0,0.007 -8.3e-4,0.0131 -0.002,0.0197 -0.002,0.007 -0.004,0.0132 -0.007,0.0198 -0.003,0.01 -0.01,0.0197 -0.0198,0.0296 -0.01,0.01 -0.0247,0.0214 -0.0444,0.0346 -0.0198,0.0165 -0.0379,0.0362 -0.0544,0.0593 -0.0165,0.023 -0.0296,0.0477 -0.0394,0.074 -0.003,0.007 -0.006,0.0147 -0.007,0.0246 -0.002,0.01 -0.002,0.0198 -0.002,0.0296 0,0.0658 0.0304,0.12251 0.0913,0.17024 0.0608,0.0477 0.13237,0.0716 0.21459,0.0716 0.0659,0 0.12591,-0.0115 0.18017,-0.0346 0.0543,-0.023 0.10769,-0.0609 0.1603,-0.11346 0.0659,-0.0691 0.13248,-0.16364 0.1999,-0.2837 0.0674,-0.12007 0.14388,-0.27552 0.22941,-0.46636 0.0691,-0.15129 0.1217,-0.26724 0.15789,-0.34785 0.0362,-0.0806 0.0691,-0.14722 0.0987,-0.19983 0.007,-0.0131 0.0131,-0.0255 0.0197,-0.037 0.007,-0.0115 0.0132,-0.0222 0.0197,-0.0321 0.0165,-0.0263 0.0354,-0.0534 0.0568,-0.0814 0.0214,-0.0279 0.0469,-0.0617 0.0765,-0.10111 -0.102,-0.0296 -0.19165,-0.0518 -0.26894,-0.0666 -0.0773,-0.0148 -0.14226,-0.0222 -0.19486,-0.0222 -0.079,0 -0.14564,0.0206 -0.1999,0.0617 -0.0543,0.0411 -0.0814,0.0913 -0.0814,0.15051 0,0.0296 0.009,0.0567 0.0271,0.0814 0.0181,0.0247 0.0387,0.037 0.0617,0.037 0,1e-5 0,1e-5 0,0 0,1e-5 0.002,1e-5 0.005,0 0,1e-5 0,1e-5 0,0 0,1e-5 0,1e-5 0,0 z"
           style="font-family:Dolphins;-inkscape-font-specification:Dolphins;fill:#ffffff"
           id="path3076"
           inkscape:connector-curvature="0" />
        <path
           d="m 229.00307,798.28274 0.17272,-0.80427 c 0.007,-0.0329 0.0114,-0.0617 0.0148,-0.0864 0.003,-0.0246 0.005,-0.0485 0.005,-0.0716 0,-0.0361 -0.009,-0.0682 -0.0272,-0.0961 -0.0181,-0.028 -0.0453,-0.0518 -0.0814,-0.0716 0.11515,-0.0954 0.22781,-0.1669 0.33799,-0.21458 0.11018,-0.0477 0.21626,-0.0715 0.31826,-0.0715 0.0855,0 0.15297,0.0206 0.20231,0.0617 0.0493,0.0411 0.0757,0.0979 0.079,0.17024 0,0.0164 0,0.0336 0,0.0517 0,0.0181 -0.003,0.0354 -0.01,0.0519 l -0.16775,0.78455 c 0,0.007 -8.3e-4,0.0131 -0.002,0.0196 -0.002,0.007 -0.004,0.0132 -0.007,0.0198 -0.003,0.0165 -0.006,0.0329 -0.007,0.0494 -0.002,0.0165 -0.002,0.0296 -0.002,0.0394 0,0.0526 0.0131,0.0945 0.0395,0.12582 0.0263,0.0313 0.0625,0.0469 0.10857,0.0469 0.007,0 0.0123,0 0.0172,0 0.005,0 0.009,0 0.0124,0 0.01,-0.003 0.0205,-0.007 0.032,-0.01 0.0115,-0.003 0.0206,-0.007 0.0272,-0.01 0.0296,-0.0132 0.0551,-0.023 0.0765,-0.0296 0.0214,-0.007 0.0386,-0.01 0.0518,-0.01 0.0165,0 0.0321,0.007 0.0468,0.0221 0.0147,0.0148 0.0221,0.0353 0.0221,0.0617 0,0.0295 -0.01,0.0624 -0.0296,0.0986 -0.0197,0.0362 -0.046,0.0724 -0.0788,0.10864 -0.0198,0.0165 -0.0395,0.0337 -0.0593,0.0518 -0.0197,0.0181 -0.0427,0.0353 -0.069,0.0518 -0.0362,0.023 -0.0733,0.0444 -0.11105,0.0641 -0.0378,0.0198 -0.0748,0.0378 -0.11106,0.0542 -0.0625,0.0231 -0.1234,0.0412 -0.18258,0.0544 -0.0592,0.0131 -0.11507,0.0197 -0.16768,0.0197 -0.13492,0 -0.24598,-0.037 -0.33317,-0.11105 -0.0872,-0.074 -0.13078,-0.17024 -0.13078,-0.2886 0,-0.0131 8.3e-4,-0.0271 0.002,-0.0419 0.002,-0.0148 0.002,-0.0304 0.002,-0.0469 0.003,-0.007 0.006,-0.014 0.007,-0.0222 0.002,-0.008 0.002,-0.0156 0.002,-0.0222 z m 0.824,-2.34384 c 0.11514,0 0.20725,0.0304 0.27632,0.0913 0.0691,0.0609 0.1036,0.14067 0.1036,0.23935 0,0.11184 -0.0559,0.21215 -0.16775,0.30094 -0.11184,0.0888 -0.24179,0.1332 -0.38986,0.1332 -0.102,0 -0.18507,-0.0296 -0.24922,-0.0888 -0.0642,-0.0592 -0.0962,-0.13485 -0.0962,-0.22701 0,-0.12167 0.0518,-0.22693 0.15547,-0.31577 0.10366,-0.0888 0.22621,-0.13327 0.36766,-0.13327 z"
           style="font-family:Dolphins;-inkscape-font-specification:Dolphins;fill:#ffffff"
           id="path3078"
           inkscape:connector-curvature="0" />
        <path
           d="m 232.57644,797.1627 -0.18251,0.81903 c -0.01,0.0428 -0.0173,0.0781 -0.0222,0.10608 -0.005,0.028 -0.007,0.0502 -0.007,0.0666 -0.003,0.0329 0.01,0.0634 0.0395,0.0913 0.0296,0.028 0.0641,0.0419 0.10368,0.0419 0.0131,0 0.0255,-8.2e-4 0.037,-0.002 0.0115,-0.002 0.0222,-0.004 0.032,-0.007 0.007,0 0.0124,-8.3e-4 0.0173,-0.002 0.005,-0.002 0.0107,-0.004 0.0173,-0.007 0.0263,-0.01 0.0493,-0.0174 0.069,-0.0223 0.0197,-0.005 0.0362,-0.007 0.0493,-0.007 0.0198,0 0.0379,0.009 0.0543,0.0272 0.0164,0.0181 0.0246,0.0387 0.0246,0.0617 -1e-5,0.0263 -0.008,0.0551 -0.0246,0.0864 -0.0164,0.0313 -0.0411,0.0617 -0.074,0.0913 -0.01,0.01 -0.0189,0.0189 -0.0271,0.0271 -0.008,0.008 -0.0173,0.0156 -0.0271,0.0221 -0.0625,0.0559 -0.13083,0.10362 -0.20487,0.14313 -0.074,0.0395 -0.14885,0.0691 -0.22444,0.0888 -0.0395,0.01 -0.0798,0.0182 -0.12092,0.0248 -0.0412,0.007 -0.0815,0.01 -0.12092,0.01 -0.11836,0 -0.21539,-0.037 -0.29108,-0.11105 -0.0757,-0.074 -0.11354,-0.16863 -0.11354,-0.28378 0,-0.0165 0,-0.0337 0,-0.0518 0,-0.0181 0.002,-0.0386 0.005,-0.0616 -0.0592,0.0723 -0.10366,0.12734 -0.13327,0.16519 -0.0296,0.0378 -0.0576,0.0699 -0.0839,0.0962 -0.003,0.003 -0.007,0.007 -0.0123,0.01 -0.005,0.003 -0.009,0.007 -0.0123,0.01 -0.007,0.01 -0.0131,0.0182 -0.0196,0.0248 -0.007,0.007 -0.0148,0.0131 -0.0248,0.0196 -0.0361,0.0362 -0.0756,0.0675 -0.11836,0.0938 -0.0428,0.0263 -0.0872,0.0477 -0.13327,0.0641 -0.0328,0.01 -0.064,0.018 -0.0937,0.0246 -0.0296,0.007 -0.0592,0.01 -0.0888,0.01 -0.14476,0 -0.26483,-0.06 -0.3602,-0.1801 -0.0954,-0.12006 -0.14305,-0.27547 -0.14305,-0.46621 0,-0.33229 0.11266,-0.63413 0.33799,-0.90554 0.22532,-0.2714 0.47446,-0.4071 0.74742,-0.4071 0.0955,0 0.18349,0.0173 0.26405,0.0518 0.0806,0.0345 0.15211,0.088 0.21466,0.16037 0.0888,-0.0624 0.15876,-0.10764 0.20976,-0.1356 0.051,-0.028 0.0995,-0.0469 0.14547,-0.0568 0.0131,-0.003 0.0279,-0.006 0.0444,-0.007 0.0165,-0.002 0.0329,-0.002 0.0494,-0.002 0.0658,0 0.11838,0.0173 0.15789,0.0518 0.0395,0.0345 0.0592,0.0798 0.0592,0.13567 0,0.01 -8.3e-4,0.023 -0.002,0.0395 -0.002,0.0165 -0.006,0.0346 -0.0124,0.0544 z m -1.03121,0 c -0.007,0 -0.0124,-8.3e-4 -0.0173,-0.002 -0.005,-0.002 -0.007,-0.002 -0.007,-0.002 -0.0494,0.023 -0.10451,0.10604 -0.16534,0.24914 -0.0608,0.14311 -0.10441,0.3035 -0.13071,0.48119 0,0.007 -8.3e-4,0.0114 -0.002,0.0148 -0.002,0.003 -0.002,0.01 -0.002,0.0197 -0.0165,0.11846 -0.0181,0.21634 -0.005,0.29364 0.0131,0.0773 0.0395,0.11755 0.0791,0.12076 0.0526,0.01 0.11098,-0.0624 0.17513,-0.21699 0.0641,-0.1546 0.11103,-0.33555 0.14064,-0.54285 0.0165,-0.11846 0.0189,-0.21386 0.007,-0.28619 -0.0115,-0.0723 -0.0354,-0.11507 -0.0715,-0.12822 z"
           style="font-family:Dolphins;-inkscape-font-specification:Dolphins;fill:#ffffff"
           id="path3080"
           inkscape:connector-curvature="0" />
        <path
           d="m 232.88062,798.77124 0.28114,-1.28298 c 0.003,-0.01 0.005,-0.0197 0.005,-0.0296 0,-0.01 0.002,-0.0181 0.005,-0.0246 0.003,-0.0198 0.006,-0.0395 0.007,-0.0592 0.002,-0.0197 0.002,-0.0362 0.002,-0.0493 -1e-5,-0.0494 -0.007,-0.0864 -0.0222,-0.11106 -0.0148,-0.0246 -0.0436,-0.0469 -0.0864,-0.0666 0.0559,-0.046 0.11101,-0.0871 0.16527,-0.12325 0.0543,-0.0362 0.11101,-0.0658 0.17024,-0.0889 0.0559,-0.0263 0.11183,-0.0452 0.16775,-0.0567 0.0559,-0.0115 0.11017,-0.0172 0.16278,-0.0172 0.0855,0 0.15297,0.0247 0.20231,0.074 0.0493,0.0494 0.0757,0.12004 0.079,0.2121 0.0954,-0.0756 0.17924,-0.13477 0.25163,-0.17754 0.0724,-0.0428 0.14144,-0.074 0.2072,-0.0938 0.0329,-0.01 0.0667,-0.0164 0.10119,-0.0197 0.0345,-0.003 0.0699,-0.005 0.10617,-0.005 0.11514,0 0.20971,0.0255 0.2837,0.0765 0.074,0.051 0.12413,0.12418 0.15043,0.21955 0.0724,-0.0591 0.1423,-0.10844 0.20976,-0.14795 0.0675,-0.0395 0.13407,-0.0707 0.19983,-0.0937 0.0461,-0.0165 0.093,-0.0288 0.14065,-0.037 0.0477,-0.008 0.0962,-0.0123 0.14561,-0.0123 0.13151,0 0.23923,0.0362 0.32315,0.10857 0.0839,0.0724 0.12589,0.16615 0.12589,0.28129 0,0.0165 -8.3e-4,0.0321 -0.002,0.0468 -0.002,0.0148 -0.002,0.0288 -0.002,0.042 -0.003,0.007 -0.005,0.0139 -0.005,0.0221 0,0.008 -0.002,0.0156 -0.005,0.0221 l -0.13327,0.6317 c 0,0.003 -8.1e-4,0.006 -0.002,0.01 -0.002,0.003 -0.002,0.007 -0.002,0.01 -0.003,0.0197 -0.007,0.0394 -0.01,0.0592 -0.003,0.0198 -0.005,0.0346 -0.005,0.0444 0,0.0428 0.014,0.079 0.0419,0.10857 0.0279,0.0296 0.0617,0.0444 0.10127,0.0444 0.007,0 0.0139,0 0.0221,0 0.008,0 0.0173,-0.002 0.0271,-0.005 0.007,0 0.014,-0.002 0.0223,-0.005 0.008,-0.003 0.0156,-0.007 0.0221,-0.01 0.0263,-0.01 0.0493,-0.0182 0.0691,-0.0248 0.0198,-0.007 0.0362,-0.01 0.0494,-0.01 0.0197,0 0.0369,0.008 0.0517,0.0247 0.0148,0.0165 0.0222,0.0362 0.0222,0.0592 -0.003,0.0362 -0.0198,0.0766 -0.0493,0.12099 -0.0296,0.0444 -0.0723,0.0896 -0.12822,0.1356 -0.01,0.01 -0.0207,0.019 -0.0322,0.0272 -0.0115,0.008 -0.0238,0.0172 -0.037,0.0272 -0.0626,0.046 -0.12835,0.083 -0.19742,0.11098 -0.0691,0.028 -0.13979,0.0486 -0.21217,0.0617 -0.0263,0.003 -0.0526,0.006 -0.0789,0.01 -0.0263,0.003 -0.0526,0.005 -0.0791,0.005 -0.13814,0 -0.25078,-0.037 -0.33791,-0.11105 -0.0871,-0.074 -0.13071,-0.17024 -0.13071,-0.2886 0,-0.01 8e-4,-0.0207 0.002,-0.0322 0.002,-0.0115 0.002,-0.0238 0.002,-0.037 0.003,-0.007 0.006,-0.0124 0.007,-0.0173 0.002,-0.005 0.002,-0.0106 0.002,-0.0172 l 0.11836,-0.51319 c 0.007,-0.0165 0.0108,-0.0329 0.0124,-0.0494 0.002,-0.0165 0.002,-0.0313 0.002,-0.0444 0,-0.0526 -0.0115,-0.0913 -0.0346,-0.11595 -0.023,-0.0247 -0.0576,-0.037 -0.10367,-0.037 -0.0626,0 -0.11355,0.0247 -0.153,0.074 -0.0394,0.0494 -0.0723,0.13159 -0.0986,0.24673 l -0.11851,0.55762 -0.0641,0.34047 -0.76963,0 0.1825,-0.97202 c 0.003,-0.01 0.006,-0.0198 0.007,-0.0297 0.002,-0.01 0.002,-0.0197 0.002,-0.0297 0.003,-0.01 0.005,-0.0205 0.005,-0.032 0,-0.0115 0,-0.0255 0,-0.0419 0,-0.0361 -0.0115,-0.0657 -0.0345,-0.0888 -0.023,-0.023 -0.0526,-0.0346 -0.0889,-0.0346 -0.0624,0 -0.11505,0.0263 -0.15781,0.0789 -0.0428,0.0526 -0.0773,0.13648 -0.10375,0.25162 l -0.1923,0.89809 -0.32571,0 -0.42932,0 z"
           style="font-family:Dolphins;-inkscape-font-specification:Dolphins;fill:#ffffff"
           id="path3082"
           inkscape:connector-curvature="0" />
        <path
           d="m 236.6648,798.28274 0.17272,-0.80427 c 0.007,-0.0329 0.0114,-0.0617 0.0148,-0.0864 0.003,-0.0246 0.005,-0.0485 0.005,-0.0716 0,-0.0361 -0.009,-0.0682 -0.0272,-0.0961 -0.0181,-0.028 -0.0453,-0.0518 -0.0814,-0.0716 0.11514,-0.0954 0.22781,-0.1669 0.33798,-0.21458 0.11018,-0.0477 0.21627,-0.0715 0.31826,-0.0715 0.0855,0 0.15297,0.0206 0.20231,0.0617 0.0494,0.0411 0.0757,0.0979 0.079,0.17024 0,0.0164 0,0.0336 0,0.0517 0,0.0181 -0.003,0.0354 -0.01,0.0519 l -0.16775,0.78455 c 0,0.007 -8.3e-4,0.0131 -0.002,0.0196 -0.002,0.007 -0.004,0.0132 -0.007,0.0198 -0.003,0.0165 -0.006,0.0329 -0.007,0.0494 -0.002,0.0165 -0.002,0.0296 -0.002,0.0394 0,0.0526 0.0131,0.0945 0.0395,0.12582 0.0263,0.0313 0.0625,0.0469 0.10857,0.0469 0.007,0 0.0123,0 0.0172,0 0.005,0 0.009,0 0.0124,0 0.01,-0.003 0.0205,-0.007 0.032,-0.01 0.0115,-0.003 0.0206,-0.007 0.0272,-0.01 0.0296,-0.0132 0.0551,-0.023 0.0765,-0.0296 0.0214,-0.007 0.0387,-0.01 0.0518,-0.01 0.0165,0 0.0321,0.007 0.0468,0.0221 0.0148,0.0148 0.0221,0.0353 0.0221,0.0617 -1e-5,0.0295 -0.01,0.0624 -0.0296,0.0986 -0.0197,0.0362 -0.046,0.0724 -0.0788,0.10864 -0.0198,0.0165 -0.0395,0.0337 -0.0593,0.0518 -0.0197,0.0181 -0.0427,0.0353 -0.069,0.0518 -0.0362,0.023 -0.0733,0.0444 -0.11106,0.0641 -0.0378,0.0198 -0.0748,0.0378 -0.11106,0.0542 -0.0625,0.0231 -0.1234,0.0412 -0.18258,0.0544 -0.0592,0.0131 -0.11507,0.0197 -0.16767,0.0197 -0.13493,0 -0.24598,-0.037 -0.33317,-0.11105 -0.0872,-0.074 -0.13079,-0.17024 -0.13079,-0.2886 0,-0.0131 8.3e-4,-0.0271 0.002,-0.0419 0.002,-0.0148 0.002,-0.0304 0.002,-0.0469 0.003,-0.007 0.006,-0.014 0.007,-0.0222 0.002,-0.008 0.002,-0.0156 0.002,-0.0222 z m 0.824,-2.34384 c 0.11515,0 0.20725,0.0304 0.27632,0.0913 0.0691,0.0609 0.1036,0.14067 0.1036,0.23935 0,0.11184 -0.0559,0.21215 -0.16775,0.30094 -0.11183,0.0888 -0.24179,0.1332 -0.38986,0.1332 -0.102,0 -0.18507,-0.0296 -0.24922,-0.0888 -0.0642,-0.0592 -0.0962,-0.13485 -0.0962,-0.22701 0,-0.12167 0.0518,-0.22693 0.15548,-0.31577 0.10365,-0.0888 0.2262,-0.13327 0.36765,-0.13327 z"
           style="font-family:Dolphins;-inkscape-font-specification:Dolphins;fill:#ffffff"
           id="path3084"
           inkscape:connector-curvature="0" />
      </g>
    </g>
    <flowRoot
       xml:space="preserve"
       id="flowRoot3025"
       style="fill:black;stroke:none;stroke-opacity:1;stroke-width:1px;stroke-linejoin:miter;stroke-linecap:butt;fill-opacity:1;font-family:Arial;font-style:normal;font-weight:normal;font-size:10px;line-height:125%;letter-spacing:0px;word-spacing:0px;-inkscape-font-specification:Arial;font-stretch:normal;font-variant:normal"><flowRegion
         id="flowRegion3027"><rect
           id="rect3029"
           width="91.785713"
           height="80.535713"
           x="-82.5"
           y="-20.25" /></flowRegion><flowPara
         id="flowPara3031"></flowPara></flowRoot>  </g>
</svg>
