<?xml version="1.0" encoding="UTF-8" standalone="no"?>
<!-- Created with Inkscape (http://www.inkscape.org/) -->

<svg
   xmlns:dc="http://purl.org/dc/elements/1.1/"
   xmlns:cc="http://creativecommons.org/ns#"
   xmlns:rdf="http://www.w3.org/1999/02/22-rdf-syntax-ns#"
   xmlns:svg="http://www.w3.org/2000/svg"
   xmlns="http://www.w3.org/2000/svg"
   xmlns:sodipodi="http://sodipodi.sourceforge.net/DTD/sodipodi-0.dtd"
   xmlns:inkscape="http://www.inkscape.org/namespaces/inkscape"
   width="51"
   height="26"
   id="svg2"
   version="1.1"
   inkscape:version="0.48.4 r9939"
   sodipodi:docname="patriots.svg">
  <defs
     id="defs4" />
  <sodipodi:namedview
     id="base"
     pagecolor="#ffffff"
     bordercolor="#666666"
     borderopacity="1.0"
     inkscape:pageopacity="0.0"
     inkscape:pageshadow="2"
     inkscape:zoom="15.839192"
     inkscape:cx="41.918082"
     inkscape:cy="13.797316"
     inkscape:document-units="px"
     inkscape:current-layer="layer1"
     showgrid="false"
     inkscape:window-width="1680"
     inkscape:window-height="988"
     inkscape:window-x="-8"
     inkscape:window-y="-8"
     inkscape:window-maximized="1"
     fit-margin-top="0"
     fit-margin-left="0"
     fit-margin-right="0"
     fit-margin-bottom="0" />
  <metadata
     id="metadata7">
    <rdf:RDF>
      <cc:Work
         rdf:about="">
        <dc:format>image/svg+xml</dc:format>
        <dc:type
           rdf:resource="http://purl.org/dc/dcmitype/StillImage" />
        <dc:title />
      </cc:Work>
    </rdf:RDF>
  </metadata>
  <g
     inkscape:label="Layer 1"
     inkscape:groupmode="layer"
     id="layer1"
     transform="translate(-162.76568,-267.93674)">
    <g
       id="g3072"
       transform="matrix(0.42119483,0,0,0.80946412,94.801987,54.985382)">
      <g
         style="font-size:40px;font-style:normal;font-variant:normal;font-weight:normal;font-stretch:normal;line-height:125%;letter-spacing:0px;word-spacing:0px;fill:#ff0000;fill-opacity:1;stroke:none;font-family:Lobster Two;-inkscape-font-specification:Lobster Two"
         id="text2985-4">
        <path
           d="m 171.90854,268.75373 0,25.63967 4.31995,0 0,-11.39985 0.87999,0 c 2.10711,-0.0405 3.8661,-0.57282 5.27696,-1.59702 1.41083,-1.02417 2.47057,-2.29724 3.17922,-3.81921 0.70861,-1.52194 1.06317,-3.04982 1.06369,-4.58364 -0.0192,-2.45828 -0.98084,-4.49159 -2.88496,-6.09992 -1.90416,-1.60829 -4.63579,-2.44161 -8.19489,-2.49997 -3.34331,0.0759 -6.1866,1.01418 -8.5299,2.81496 -2.3433,1.80084 -3.56662,4.00914 -3.66995,6.62492 0.015,1.70666 0.445,2.94331 1.28999,3.70995 0.84498,0.76667 2.01497,1.14333 3.50995,1.12998 -0.245,-0.15081 -0.575,-0.57914 -0.98999,-1.28498 -0.415,-0.70581 -0.64499,-1.86412 -0.68999,-3.47495 0.0583,-2.61161 0.88165,-4.60825 2.46997,-5.98993 1.58831,-1.38162 3.59161,-2.07828 6.00992,-2.08997 3.35744,0.11086 5.54241,0.97918 6.55492,2.60497 1.01247,1.62583 1.46746,3.34414 1.36498,5.15493 0.0183,2.03499 -0.49834,3.87497 -1.54998,5.51993 -1.05167,1.64499 -2.74831,2.52498 -5.08993,2.63996 l 0,-13.59982 z"
           id="path3079"
           inkscape:connector-curvature="0" />
        <path
           d="m 199.291,274.39366 0,1.91997 c -0.40751,-0.8058 -0.9625,-1.36412 -1.66498,-1.67497 -0.7025,-0.31081 -1.38749,-0.45914 -2.05497,-0.445 -1.80641,0.0482 -3.2691,0.65853 -4.38809,1.83109 -1.11901,1.17259 -1.93578,2.6185 -2.45034,4.33772 -0.51457,1.71925 -0.76839,3.42293 -0.76147,5.11105 0.0825,3.32163 0.81748,5.68826 2.20497,7.0999 1.38747,1.41165 2.93245,2.09831 4.63494,2.05998 1.26914,-0.0283 2.35079,-0.40166 3.24496,-1.11999 0.89414,-0.71832 1.5458,-1.61164 1.95497,-2.67996 0.18415,1.03332 0.57581,1.91664 1.17499,2.64996 0.59914,0.73333 1.50079,1.11666 2.70496,1.14999 0.92664,0.10916 1.92329,-0.28916 2.98996,-1.19499 1.06663,-0.90582 1.92329,-2.97412 2.56997,-6.20492 l -1.47998,0 c -0.30252,1.44166 -0.69751,2.52831 -1.18499,3.25996 -0.48751,0.73166 -1.0525,1.09832 -1.69497,1.09999 -0.82751,-0.085 -1.34251,-0.55499 -1.54499,-1.40998 -0.20251,-0.85499 -0.28751,-1.58498 -0.25499,-2.18998 l 0,-13.59982 z m -3.47996,17.19978 c -1.16666,0.0183 -2.06331,-0.47833 -2.68996,-1.48998 -0.62667,-1.01165 -0.94333,-2.6483 -0.94999,-4.90994 -0.005,-1.27973 0.1516,-2.59131 0.46962,-3.93476 0.31802,-1.34343 0.82715,-2.4802 1.52739,-3.41033 0.70023,-0.9301 1.62121,-1.41503 2.76293,-1.4548 0.60081,0.0192 1.09914,0.20085 1.49498,0.545 0.39582,0.34418 0.68415,0.73584 0.86499,1.17498 l 0,9.11988 c -0.0425,1.24916 -0.41751,2.28081 -1.12499,3.09496 -0.7075,0.81416 -1.49249,1.23582 -2.35497,1.26499 z"
           id="path3081"
           inkscape:connector-curvature="0" />
        <path
           d="m 207.94614,268.87373 0,5.51993 -1.35998,0 0,1.39998 1.35998,0 0,13.03983 c -0.0433,1.39666 0.26333,2.6933 0.91999,3.88995 0.65665,1.19665 1.9233,1.83331 3.79995,1.90998 0.95498,0.10916 2.00496,-0.28916 3.14996,-1.19499 1.14497,-0.90582 2.17496,-2.97412 3.08996,-6.20492 l -1.47998,0 c -0.39251,1.45916 -0.9075,2.55081 -1.54499,3.27496 -0.6375,0.72416 -1.32249,1.08582 -2.05497,1.08499 -0.86583,-0.0725 -1.40415,-0.51749 -1.61498,-1.33498 -0.21083,-0.81749 -0.29917,-1.57248 -0.26499,-2.26498 l 0,-12.19984 3.07996,0 0,-1.39998 -3.07996,0 0,-6.07992 z"
           id="path3083"
           inkscape:connector-curvature="0" />
        <path
           d="m 217.35926,274.39366 0,19.99974 3.99995,0 0,-14.71981 c 0.46416,-0.50331 0.97582,-0.95664 1.53498,-1.35998 0.55915,-0.40331 1.14081,-0.61664 1.74498,-0.63999 0.54332,0.0417 0.94664,0.20834 1.20998,0.49999 0.26332,0.29168 0.60665,0.45834 1.02999,0.49999 0.35665,0.0134 0.74331,-0.13331 1.15999,-0.43999 0.41664,-0.30665 0.64331,-0.85331 0.67999,-1.63998 0.002,-0.67747 -0.21251,-1.24246 -0.645,-1.69498 -0.4325,-0.45247 -1.09749,-0.68747 -1.99497,-0.70499 -1.11666,0.0309 -2.03331,0.38918 -2.74996,1.07499 -0.71667,0.68584 -1.37333,1.51416 -1.96998,2.48497 l 0,-3.35996 z"
           id="path3085"
           inkscape:connector-curvature="0" />
        <path
           d="m 230.83676,274.39366 0,14.43981 c -0.0383,1.37916 0.26833,2.67081 0.91999,3.87495 0.65166,1.20415 1.87831,1.84581 3.67995,1.92498 0.92665,0.10916 1.9233,-0.28916 2.98997,-1.19499 1.06664,-0.90582 1.92329,-2.97412 2.56996,-6.20492 l -1.47998,0 c -0.30251,1.44166 -0.6975,2.52831 -1.18498,3.25996 -0.48751,0.73166 -1.0525,1.09832 -1.69498,1.09999 -0.8275,-0.085 -1.34249,-0.55499 -1.54498,-1.40998 -0.20251,-0.85499 -0.2875,-1.58498 -0.255,-2.18998 l 0,-13.59982 z m -0.71999,-5.75993 c 0.0175,0.75752 0.2725,1.38251 0.76499,1.87498 0.49249,0.49252 1.11749,0.74751 1.87498,0.76499 0.74165,-0.0175 1.36831,-0.27247 1.87997,-0.76499 0.51166,-0.49247 0.77832,-1.11746 0.79999,-1.87498 -0.0217,-0.74163 -0.28833,-1.36828 -0.79999,-1.87997 -0.51166,-0.51163 -1.13832,-0.7783 -1.87997,-0.79999 -0.75749,0.0217 -1.38249,0.28836 -1.87498,0.79999 -0.49249,0.51168 -0.74749,1.13834 -0.76499,1.87997 z"
           id="path3087"
           inkscape:connector-curvature="0" />
        <path
           d="m 246.78854,274.19366 c -1.98516,0.0506 -3.5481,0.66495 -4.68882,1.84294 -1.14073,1.17803 -1.94813,2.61603 -2.4222,4.31402 -0.47407,1.69801 -0.70369,3.35231 -0.68888,4.9629 0.0892,3.39829 0.89082,5.81159 2.40497,7.23991 1.51415,1.42831 3.20579,2.12163 5.07494,2.07997 2.17496,-0.0283 3.85494,-0.96165 5.03993,-2.79996 1.18497,-1.83831 1.78496,-4.41161 1.79998,-7.71991 -0.002,-0.28082 -0.008,-0.55914 -0.02,-0.83499 -0.0117,-0.27581 -0.0183,-0.54414 -0.02,-0.80498 1.25747,-0.20416 2.45245,-0.58582 3.58495,-1.14499 1.13247,-0.55915 1.97746,-1.2708 2.53497,-2.13497 l -0.59999,-1.07999 c -0.66835,0.69501 -1.47167,1.265 -2.40997,1.70998 -0.93834,0.44501 -1.96166,0.675 -3.06996,0.68999 l -0.24,0 c -0.22668,-1.82079 -0.81333,-3.31911 -1.75997,-4.49494 -0.94667,-1.1758 -2.45332,-1.78413 -4.51995,-1.82498 z m 0.4,17.39978 c -0.94916,0.0567 -1.82082,-0.36666 -2.61497,-1.26999 -0.79416,-0.90331 -1.21582,-2.62662 -1.26498,-5.16993 -0.0192,-2.07996 0.31916,-4.02993 1.01499,-5.84992 0.69581,-1.81996 1.86413,-2.78995 3.50495,-2.90997 0.60498,-0.0116 1.15497,0.17169 1.64998,0.55 0.49498,0.37834 0.90497,1.02167 1.22998,1.92997 -0.52167,0.0117 -0.91833,0.14835 -1.18998,0.41 -0.27168,0.26167 -0.40834,0.69834 -0.41,1.30998 -0.005,0.67334 0.16499,1.16666 0.51,1.47998 0.34498,0.31334 0.89497,0.48667 1.64998,0.51999 0.0333,0.32001 0.0466,0.64001 0.04,0.95999 0.003,2.55748 -0.33335,4.53245 -1.00999,5.92493 -0.67667,1.39248 -1.71332,2.09747 -3.10996,2.11497 z"
           id="path3089"
           inkscape:connector-curvature="0" />
        <path
           d="m 256.30551,268.87373 0,5.51993 -1.35998,0 0,1.39998 1.35998,0 0,13.03983 c -0.0433,1.39666 0.26333,2.6933 0.91999,3.88995 0.65666,1.19665 1.9233,1.83331 3.79995,1.90998 0.95498,0.10916 2.00497,-0.28916 3.14996,-1.19499 1.14498,-0.90582 2.17496,-2.97412 3.08996,-6.20492 l -1.47998,0 c -0.39251,1.45916 -0.9075,2.55081 -1.54498,3.27496 -0.6375,0.72416 -1.32249,1.08582 -2.05497,1.08499 -0.86583,-0.0725 -1.40416,-0.51749 -1.61498,-1.33498 -0.21084,-0.81749 -0.29917,-1.57248 -0.265,-2.26498 l 0,-12.19984 3.07996,0 0,-1.39998 -3.07996,0 0,-6.07992 z"
           id="path3091"
           inkscape:connector-curvature="0" />
        <path
           d="m 279.43846,287.23349 c -0.36168,0.30334 -0.74834,0.61667 -1.15998,0.93999 -0.41168,0.32334 -0.83834,0.63667 -1.27999,0.93999 -0.007,-1.29331 -0.1131,-2.5244 -0.31851,-3.69329 -0.20544,-1.16886 -0.54865,-2.67551 -1.02962,-4.51994 -0.48099,-1.8444 -1.13827,-4.42659 -1.97182,-7.74656 l -4.03995,0.79999 c -0.2275,1.96082 -0.6625,3.92913 -1.30499,5.90492 -0.64249,1.97582 -1.32748,3.95413 -2.05497,5.93492 -0.41,0.22667 -0.74999,0.59334 -1.01999,1.09999 -0.26999,0.50666 -0.40999,1.11332 -0.41999,1.81998 -0.0442,1.38415 0.36416,2.6958 1.22498,3.93494 0.86082,1.23915 2.43914,1.90081 4.73494,1.98498 0.90915,0.01 1.9008,-0.21 2.97496,-0.65999 1.07415,-0.45 1.9358,-1.18999 2.58497,-2.21997 0.76831,-0.52833 1.56163,-1.15165 2.37997,-1.86998 0.81831,-0.71832 1.61163,-1.60164 2.37997,-2.64997 z m -6.67991,1.59998 c -0.0117,0.97416 -0.26834,1.68582 -0.76999,2.13498 -0.50167,0.44916 -1.17833,0.67082 -2.02998,0.66499 -0.87999,-0.006 -1.58998,-0.26416 -2.12997,-0.77499 -0.54,-0.51083 -0.90999,-1.23915 -1.10998,-2.18497 0.15999,0.19833 0.32999,0.34166 0.50999,0.42999 0.17999,0.0883 0.36999,0.13167 0.56999,0.13 0.33333,-0.002 0.62666,-0.13749 0.87999,-0.405 0.25333,-0.26749 0.38666,-0.65248 0.4,-1.15498 -0.007,-0.43832 -0.0933,-0.80165 -0.26,-1.08999 -0.16667,-0.28832 -0.37333,-0.51165 -0.61999,-0.66999 0.42665,-1.4283 0.87331,-2.83162 1.33998,-4.20995 0.46665,-1.3783 0.79332,-2.80161 0.97999,-4.26994 0.49356,2.2711 0.9064,4.04441 1.2385,5.31993 0.33208,1.27555 0.58196,2.34665 0.74962,3.21329 0.16764,0.86667 0.25159,1.82221 0.25185,2.86663 z"
           id="path3093"
           inkscape:connector-curvature="0" />
      </g>
      <g
         style="font-size:40px;font-style:normal;font-variant:normal;font-weight:normal;font-stretch:normal;line-height:125%;letter-spacing:0px;word-spacing:0px;fill:#000080;fill-opacity:1;stroke:none;font-family:Lobster Two;-inkscape-font-specification:Lobster Two"
         id="text2985">
        <path
           d="m 170.96842,268.12632 0,25.63967 4.31994,0 0,-11.39985 0.87999,0 c 2.10712,-0.0405 3.86611,-0.57282 5.27697,-1.59702 1.41083,-1.02417 2.47056,-2.29724 3.17922,-3.81921 0.70861,-1.52194 1.06317,-3.04982 1.06369,-4.58364 -0.0192,-2.45828 -0.98085,-4.49159 -2.88497,-6.09993 -1.90416,-1.60828 -4.63579,-2.4416 -8.19489,-2.49996 -3.3433,0.0759 -6.18659,1.01418 -8.52989,2.81496 -2.34331,1.80084 -3.56662,4.00914 -3.66995,6.62492 0.015,1.70666 0.44499,2.94331 1.28998,3.70995 0.84499,0.76667 2.01497,1.14333 3.50996,1.12998 -0.24501,-0.15081 -0.575,-0.57914 -0.98999,-1.28498 -0.415,-0.70581 -0.645,-1.86412 -0.68999,-3.47496 0.0583,-2.61161 0.88165,-4.60824 2.46997,-5.98992 1.5883,-1.38162 3.59161,-2.07828 6.00992,-2.08997 3.35744,0.11086 5.54241,0.97918 6.55491,2.60497 1.01247,1.62583 1.46747,3.34414 1.36499,5.15493 0.0183,2.03499 -0.49835,3.87497 -1.54998,5.51993 -1.05167,1.64499 -2.74832,2.52498 -5.08994,2.63996 l 0,-13.59982 z"
           id="path3096"
           inkscape:connector-curvature="0" />
        <path
           d="m 198.35088,273.76625 0,1.91997 c -0.40751,-0.8058 -0.9625,-1.36413 -1.66498,-1.67497 -0.70251,-0.31081 -1.3875,-0.45915 -2.05498,-0.445 -1.8064,0.0482 -3.2691,0.65853 -4.38809,1.83109 -1.119,1.17259 -1.93578,2.6185 -2.45034,4.33772 -0.51456,1.71925 -0.76838,3.42293 -0.76147,5.11105 0.0825,3.32163 0.81749,5.68826 2.20497,7.0999 1.38748,1.41165 2.93246,2.09831 4.63494,2.05998 1.26914,-0.0283 2.3508,-0.40166 3.24496,-1.11999 0.89414,-0.71832 1.5458,-1.61164 1.95498,-2.67996 0.18415,1.03332 0.57581,1.91664 1.17498,2.64996 0.59914,0.73333 1.5008,1.11665 2.70497,1.14999 0.92663,0.10916 1.92329,-0.28916 2.98996,-1.19499 1.06663,-0.90582 1.92328,-2.97412 2.56996,-6.20492 l -1.47998,0 c -0.30251,1.44166 -0.69751,2.52831 -1.18498,3.25996 -0.48752,0.73166 -1.05251,1.09832 -1.69498,1.09999 -0.82751,-0.085 -1.3425,-0.55499 -1.54498,-1.40999 -0.20251,-0.85498 -0.28751,-1.58497 -0.255,-2.18997 l 0,-13.59982 z m -3.47996,17.19978 c -1.16666,0.0183 -2.06331,-0.47833 -2.68997,-1.48998 -0.62666,-1.01165 -0.94332,-2.6483 -0.94998,-4.90994 -0.005,-1.27973 0.15159,-2.59131 0.46962,-3.93477 0.31801,-1.34342 0.82714,-2.48019 1.52739,-3.41032 0.70023,-0.9301 1.6212,-1.41503 2.76293,-1.4548 0.60081,0.0192 1.09914,0.20085 1.49498,0.545 0.39581,0.34418 0.68414,0.73584 0.86499,1.17498 l 0,9.11988 c -0.0425,1.24916 -0.41751,2.28081 -1.12499,3.09496 -0.7075,0.81416 -1.49249,1.23582 -2.35497,1.26499 z"
           id="path3098"
           inkscape:connector-curvature="0" />
        <path
           d="m 207.00601,268.24632 0,5.51993 -1.35998,0 0,1.39998 1.35998,0 0,13.03983 c -0.0433,1.39666 0.26333,2.6933 0.91999,3.88995 0.65666,1.19665 1.92331,1.83331 3.79995,1.90998 0.95498,0.10916 2.00497,-0.28916 3.14996,-1.19499 1.14498,-0.90582 2.17496,-2.97412 3.08996,-6.20492 l -1.47998,0 c -0.39251,1.45916 -0.9075,2.55081 -1.54498,3.27496 -0.6375,0.72416 -1.32249,1.08582 -2.05497,1.08499 -0.86583,-0.0725 -1.40416,-0.51749 -1.61498,-1.33499 -0.21084,-0.81748 -0.29917,-1.57247 -0.265,-2.26497 l 0,-12.19984 3.07996,0 0,-1.39998 -3.07996,0 0,-6.07992 z"
           id="path3100"
           inkscape:connector-curvature="0" />
        <path
           d="m 216.41914,273.76625 0,19.99974 3.99995,0 0,-14.71981 c 0.46415,-0.50331 0.97581,-0.95664 1.53498,-1.35998 0.55915,-0.40331 1.14081,-0.61664 1.74498,-0.63999 0.54331,0.0417 0.94664,0.20834 1.20998,0.49999 0.26332,0.29168 0.60665,0.45834 1.02999,0.49999 0.35665,0.0134 0.74331,-0.13331 1.15998,-0.43999 0.41665,-0.30665 0.64331,-0.85331 0.67999,-1.63998 0.002,-0.67747 -0.21251,-1.24247 -0.64499,-1.69498 -0.43251,-0.45247 -1.0975,-0.68747 -1.99497,-0.70499 -1.11667,0.0308 -2.03332,0.38918 -2.74997,1.07499 -0.71666,0.68584 -1.37332,1.51416 -1.96997,2.48497 l 0,-3.35996 z"
           id="path3102"
           inkscape:connector-curvature="0" />
        <path
           d="m 229.89664,273.76625 0,14.43981 c -0.0383,1.37916 0.26833,2.6708 0.91999,3.87495 0.65165,1.20415 1.8783,1.84581 3.67995,1.92498 0.92665,0.10916 1.9233,-0.28916 2.98996,-1.19499 1.06664,-0.90582 1.9233,-2.97412 2.56997,-6.20492 l -1.47998,0 c -0.30251,1.44166 -0.69751,2.52831 -1.18499,3.25996 -0.4875,0.73166 -1.05249,1.09832 -1.69498,1.09999 -0.82749,-0.085 -1.34249,-0.55499 -1.54498,-1.40999 -0.2025,-0.85498 -0.2875,-1.58497 -0.25499,-2.18997 l 0,-13.59982 z m -0.71999,-5.75993 c 0.0175,0.75752 0.27249,1.38251 0.76499,1.87498 0.49249,0.49252 1.11748,0.74751 1.87497,0.76499 0.74166,-0.0175 1.36831,-0.27247 1.87998,-0.76499 0.51165,-0.49247 0.77832,-1.11746 0.79999,-1.87498 -0.0217,-0.74163 -0.28834,-1.36829 -0.79999,-1.87997 -0.51167,-0.51164 -1.13832,-0.7783 -1.87998,-0.79999 -0.75749,0.0217 -1.38248,0.28836 -1.87497,0.79999 -0.4925,0.51168 -0.74749,1.13834 -0.76499,1.87997 z"
           id="path3104"
           inkscape:connector-curvature="0" />
        <path
           d="m 245.84842,273.56625 c -1.98517,0.0506 -3.54811,0.66495 -4.68883,1.84294 -1.14073,1.17803 -1.94812,2.61603 -2.42219,4.31402 -0.47407,1.69801 -0.7037,3.35231 -0.68888,4.9629 0.0892,3.39829 0.89082,5.81159 2.40497,7.2399 1.51414,1.42832 3.20578,2.12164 5.07493,2.07998 2.17496,-0.0283 3.85494,-0.96166 5.03994,-2.79997 1.18497,-1.8383 1.78496,-4.4116 1.79998,-7.7199 -0.002,-0.28082 -0.008,-0.55915 -0.02,-0.83499 -0.0117,-0.27581 -0.0183,-0.54414 -0.02,-0.80499 1.25746,-0.20415 2.45245,-0.58581 3.58495,-1.14498 1.13246,-0.55915 1.97745,-1.2708 2.53497,-2.13497 l -0.59999,-1.07999 c -0.66835,0.69501 -1.47167,1.265 -2.40997,1.70998 -0.93834,0.44501 -1.96166,0.675 -3.06996,0.68999 l -0.24,0 c -0.22668,-1.8208 -0.81334,-3.31911 -1.75998,-4.49494 -0.94667,-1.1758 -2.45331,-1.78413 -4.51994,-1.82498 z m 0.39999,17.39978 c -0.94916,0.0567 -1.82081,-0.36666 -2.61496,-1.26999 -0.79417,-0.90331 -1.21583,-2.62662 -1.26499,-5.16993 -0.0192,-2.07996 0.31916,-4.02994 1.01499,-5.84993 0.69582,-1.81996 1.86414,-2.78994 3.50496,-2.90996 0.60498,-0.0116 1.15497,0.17169 1.64997,0.55 0.49499,0.37834 0.90498,1.02167 1.22999,1.92997 -0.52167,0.0117 -0.91833,0.14835 -1.18999,0.41 -0.27167,0.26167 -0.40834,0.69833 -0.40999,1.30998 -0.005,0.67334 0.16499,1.16666 0.50999,1.47998 0.34499,0.31334 0.89498,0.48667 1.64998,0.51999 0.0333,0.32001 0.0466,0.64001 0.04,0.95999 0.003,2.55748 -0.33334,4.53245 -1.00999,5.92492 -0.67667,1.39249 -1.71332,2.09748 -3.10996,2.11498 z"
           id="path3106"
           inkscape:connector-curvature="0" />
        <path
           d="m 255.36539,268.24632 0,5.51993 -1.35998,0 0,1.39998 1.35998,0 0,13.03983 c -0.0433,1.39666 0.26333,2.6933 0.91999,3.88995 0.65665,1.19665 1.9233,1.83331 3.79995,1.90998 0.95498,0.10916 2.00496,-0.28916 3.14996,-1.19499 1.14497,-0.90582 2.17496,-2.97412 3.08996,-6.20492 l -1.47998,0 c -0.39251,1.45916 -0.9075,2.55081 -1.54498,3.27496 -0.63751,0.72416 -1.3225,1.08582 -2.05498,1.08499 -0.86583,-0.0725 -1.40415,-0.51749 -1.61498,-1.33499 -0.21083,-0.81748 -0.29917,-1.57247 -0.26499,-2.26497 l 0,-12.19984 3.07996,0 0,-1.39998 -3.07996,0 0,-6.07992 z"
           id="path3108"
           inkscape:connector-curvature="0" />
        <path
           d="m 278.49834,286.60608 c -0.36168,0.30334 -0.74834,0.61667 -1.15999,0.93999 -0.41167,0.32334 -0.83833,0.63667 -1.27998,0.93999 -0.007,-1.29331 -0.1131,-2.52441 -0.31852,-3.69329 -0.20544,-1.16886 -0.54864,-2.67551 -1.02961,-4.51994 -0.48099,-1.84441 -1.13827,-4.42659 -1.97183,-7.74657 l -4.03995,0.79999 c -0.2275,1.96083 -0.66249,3.92914 -1.30498,5.90493 -0.6425,1.97582 -1.32749,3.95412 -2.05497,5.93492 -0.41,0.22667 -0.75,0.59334 -1.01999,1.09999 -0.27,0.50666 -0.41,1.11332 -0.41999,1.81997 -0.0442,1.38416 0.36416,2.69581 1.22498,3.93495 0.86082,1.23915 2.43913,1.90081 4.73494,1.98498 0.90915,0.01 1.9008,-0.21 2.97496,-0.65999 1.07414,-0.45 1.9358,-1.18999 2.58497,-2.21997 0.76831,-0.52833 1.56163,-1.15165 2.37997,-1.86998 0.8183,-0.71832 1.61163,-1.60164 2.37997,-2.64997 z m -6.67992,1.59998 c -0.0117,0.97416 -0.26834,1.68582 -0.76999,2.13497 -0.50167,0.44917 -1.17832,0.67083 -2.02997,0.665 -0.87999,-0.006 -1.58998,-0.26416 -2.12997,-0.77499 -0.54,-0.51083 -0.91,-1.23915 -1.10999,-2.18498 0.16,0.19834 0.32999,0.34167 0.51,0.43 0.17999,0.0883 0.36999,0.13167 0.56999,0.13 0.33332,-0.002 0.62665,-0.1375 0.87999,-0.405 0.25332,-0.26749 0.38665,-0.65248 0.39999,-1.15498 -0.007,-0.43832 -0.0933,-0.80165 -0.26,-1.08999 -0.16667,-0.28832 -0.37333,-0.51165 -0.61999,-0.66999 0.42666,-1.4283 0.87332,-2.83162 1.33998,-4.20995 0.46666,-1.3783 0.79332,-2.80161 0.97999,-4.26994 0.49357,2.2711 0.9064,4.04441 1.2385,5.31993 0.33209,1.27555 0.58196,2.34665 0.74962,3.21329 0.16765,0.86667 0.2516,1.82221 0.25185,2.86663 z"
           id="path3110"
           inkscape:connector-curvature="0" />
      </g>
    </g>
  </g>
</svg>
