<?xml version="1.0" encoding="UTF-8" standalone="no"?>
<!-- Created with Inkscape (http://www.inkscape.org/) -->

<svg
   xmlns:dc="http://purl.org/dc/elements/1.1/"
   xmlns:cc="http://creativecommons.org/ns#"
   xmlns:rdf="http://www.w3.org/1999/02/22-rdf-syntax-ns#"
   xmlns:svg="http://www.w3.org/2000/svg"
   xmlns="http://www.w3.org/2000/svg"
   xmlns:sodipodi="http://sodipodi.sourceforge.net/DTD/sodipodi-0.dtd"
   xmlns:inkscape="http://www.inkscape.org/namespaces/inkscape"
   width="51.139999"
   height="26.059999"
   id="svg2"
   version="1.1"
   inkscape:version="0.48.4 r9939"
   sodipodi:docname="ravens.svg">
  <defs
     id="defs4" />
  <sodipodi:namedview
     id="base"
     pagecolor="#ffffff"
     bordercolor="#666666"
     borderopacity="1.0"
     inkscape:pageopacity="0.0"
     inkscape:pageshadow="2"
     inkscape:zoom="7.9195959"
     inkscape:cx="47.30033"
     inkscape:cy="-5.0551363"
     inkscape:document-units="px"
     inkscape:current-layer="layer1"
     showgrid="false"
     fit-margin-top="0"
     fit-margin-left="0"
     fit-margin-right="0"
     fit-margin-bottom="0"
     inkscape:window-width="1600"
     inkscape:window-height="838"
     inkscape:window-x="-8"
     inkscape:window-y="-8"
     inkscape:window-maximized="1" />
  <metadata
     id="metadata7">
    <rdf:RDF>
      <cc:Work
         rdf:about="">
        <dc:format>image/svg+xml</dc:format>
        <dc:type
           rdf:resource="http://purl.org/dc/dcmitype/StillImage" />
        <dc:title></dc:title>
      </cc:Work>
    </rdf:RDF>
  </metadata>
  <g
     inkscape:label="Layer 1"
     inkscape:groupmode="layer"
     id="layer1"
     transform="translate(-203.10612,-495.44147)">
    <g
       id="g3864">
      <g
         transform="matrix(0.47959834,0,0,0.78787858,42.171323,37.665243)"
         style="font-size:40px;font-style:normal;font-variant:normal;font-weight:normal;font-stretch:normal;line-height:125%;letter-spacing:0px;word-spacing:0px;fill:#ffffff;fill-opacity:1;stroke:#e6c90d;stroke-opacity:1;font-family:MatrixExtraBold;-inkscape-font-specification:MatrixExtraBold"
         id="text2993">
        <path
           d="m 350.57455,601.742 3.7129,6.75196 2.43164,2.43164 -6.87989,0 -3.93652,-8.25586 -0.92773,0 0,5.82422 2.43164,2.43164 -9.8877,0 2.43164,-2.43164 0,-14.0166 -2.43164,-2.43164 8.28809,0 c 2.069,1e-5 3.82909,0.36264 5.28027,1.08789 1.87694,0.93881 2.81541,2.34669 2.81543,4.22363 -2e-5,2.0267 -1.10939,3.48829 -3.32813,4.38476 z m -4.76757,-7.36035 -0.83203,0 0,5.91992 0.83203,0 c 0.76822,2e-5 1.40819,-0.29865 1.91992,-0.89599 0.51171,-0.59732 0.76757,-1.2801 0.76758,-2.04834 -1e-5,-0.78905 -0.25587,-1.48225 -0.76758,-2.07959 -0.51173,-0.59732 -1.1517,-0.89598 -1.91992,-0.896 z"
           style="font-size:32px;fill:#ffffff;stroke:#e6c90d"
           id="path3816"
           inkscape:connector-curvature="0" />
        <path
           d="m 366.77084,605.99786 -5.59961,0 -0.86425,2.52735 2.40039,2.40039 -7.36035,0 2.46386,-2.46387 5.85645,-16.41601 3.64746,0 5.98437,16.41601 2.46387,2.46387 -10.52832,0 2.40039,-2.40039 z m -4.73632,-2.36816 3.93652,0 -1.95215,-5.69629 z"
           style="font-size:32px;fill:#ffffff;stroke:#e6c90d"
           id="path3818"
           inkscape:connector-curvature="0" />
        <path
           d="m 374.40952,592.04572 10.55957,0 -2.39942,2.39941 3.04004,10.52832 3.2002,-10.52832 -2.40039,-2.39941 7.36035,0 -2.46485,2.46386 -5.34375,16.41602 -3.61621,0 -5.47168,-16.41602 z"
           style="font-size:32px;fill:#ffffff;stroke:#e6c90d"
           id="path3820"
           inkscape:connector-curvature="0" />
        <path
           d="m 407.99057,605.61407 0,5.31153 -14.78418,0 2.43164,-2.43164 0,-14.0166 -2.43164,-2.43164 14.78418,0 0,5.31152 -2.97656,-2.97559 -4.35156,0 0,5.24805 2.9121,0 2.4004,-2.40039 0,7.20019 -2.4004,-2.43164 -2.9121,0 0,6.5918 4.35156,0 z"
           style="font-size:32px;fill:#ffffff;stroke:#e6c90d"
           id="path3822"
           inkscape:connector-curvature="0" />
        <path
           d="m 413.69955,598.18927 0,10.30469 2.43262,2.43164 -7.48828,0 2.43164,-2.43164 0,-14.0166 -2.43164,-2.43164 6.33594,0 7.04004,9.82421 0,-7.39257 -2.43164,-2.43164 7.45605,0 -2.43262,2.43164 0,19.07226 z"
           style="font-size:32px;fill:#ffffff;stroke:#e6c90d"
           id="path3824"
           inkscape:connector-curvature="0" />
        <path
           d="m 438.46909,600.58966 c 1.53579,0.93881 2.30369,2.37891 2.30371,4.32031 -2e-5,2.11199 -0.62925,3.72266 -1.8877,4.83203 -1.25847,1.10938 -2.95443,1.66407 -5.08789,1.66407 -0.76823,0 -1.58952,-0.0749 -2.46387,-0.22461 l -3.90429,-0.67188 2.17578,-4.28808 2.1123,2.65625 c 0.51172,0.40495 1.0983,0.60742 1.75977,0.60742 0.78905,0 1.44498,-0.26123 1.96777,-0.78369 0.52278,-0.52246 0.78417,-1.17855 0.78418,-1.96826 -1e-5,-0.68229 -0.29851,-1.20475 -0.89551,-1.56739 l -4.57617,-2.8164 c -0.89583,-0.55468 -1.62109,-1.27994 -2.17578,-2.17578 -0.55469,-0.89583 -0.83203,-1.85579 -0.83203,-2.87989 0,-1.77082 0.60775,-3.16828 1.82324,-4.19238 1.13086,-0.95962 2.60286,-1.43943 4.41602,-1.43945 0.76822,2e-5 1.63248,0.0853 2.59277,0.25586 l 3.77539,0.67187 -2.17578,4.03223 -1.98438,-2.40039 c -0.29818,-0.36262 -0.778,-0.54393 -1.43945,-0.54395 -1.51498,2e-5 -2.27246,0.70412 -2.27246,2.11231 0,0.74676 0.2666,1.27996 0.79981,1.59961 z"
           style="font-size:32px;fill:#ffffff;stroke:#e6c90d"
           id="path3826"
           inkscape:connector-curvature="0" />
      </g>
      <g
         transform="matrix(0.58287279,0,0,0.64828083,42.171323,37.665243)"
         style="font-size:48.61341475999999800px;font-style:normal;font-variant:normal;font-weight:normal;font-stretch:normal;line-height:125%;letter-spacing:0px;word-spacing:0px;fill:#f9f9f9;stroke:#000000;stroke-width:0.60000001999999997;stroke-miterlimit:4;stroke-opacity:1;font-family:MatrixExtraBold;-inkscape-font-specification:MatrixExtraBold"
         id="text3805">
        <path
           d="m 291.8875,707.897 2.78197,0 c 0.5507,0 0.96135,0.0229 1.23195,0.0688 0.2706,0.0459 0.51272,0.14164 0.72636,0.28722 0.21363,0.14559 0.39165,0.33945 0.53408,0.58156 0.14242,0.24212 0.21363,0.51351 0.21363,0.81418 0,0.32599 -0.0878,0.62508 -0.26348,0.89726 -0.17566,0.27219 -0.41382,0.47632 -0.71448,0.61241 0.42409,0.12344 0.75008,0.33391 0.97796,0.63141 0.22787,0.2975 0.34181,0.64723 0.34182,1.04917 -10e-6,0.3165 -0.0736,0.62429 -0.22076,0.92337 -0.14717,0.29909 -0.34815,0.53804 -0.60292,0.71686 -0.25478,0.17882 -0.5689,0.2888 -0.94236,0.32995 -0.23421,0.0253 -0.79915,0.0411 -1.69482,0.0475 l -2.36895,0 z m 1.40523,1.15836 0,1.60937 0.92099,0 c 0.54753,1e-5 0.88776,-0.008 1.02069,-0.0237 0.24054,-0.0285 0.42964,-0.11155 0.56732,-0.24923 0.13767,-0.13767 0.20651,-0.31887 0.20651,-0.54358 0,-0.21521 -0.0593,-0.39007 -0.17803,-0.52459 -0.11869,-0.1345 -0.29513,-0.216 -0.52933,-0.24449 -0.13926,-0.0158 -0.53963,-0.0237 -1.20109,-0.0237 z m 0,2.76774 0,1.86098 1.30079,0 c 0.50638,0 0.82762,-0.0142 0.96372,-0.0427 0.20888,-0.038 0.37899,-0.13055 0.51034,-0.27772 0.13134,-0.14717 0.19702,-0.34418 0.19702,-0.59105 0,-0.20888 -0.0506,-0.38612 -0.15192,-0.53171 -0.10128,-0.14558 -0.24766,-0.25161 -0.43913,-0.31808 -0.19148,-0.0665 -0.60688,-0.0997 -1.24619,-0.0997 z"
           style="font-size:9.72268294999999940px;font-weight:bold;stroke:#000000;font-family:Arial;-inkscape-font-specification:Arial Bold;fill:#f9f9f9"
           id="path3829"
           inkscape:connector-curvature="0" />
        <path
           d="m 305.18497,714.85669 -1.52866,0 -0.60767,-1.58089 -2.78198,0 -0.57443,1.58089 -1.49069,0 2.71077,-6.95969 1.48594,0 z m -2.58733,-2.75349 -0.95898,-2.58259 -0.93998,2.58259 z"
           style="font-size:9.72268294999999940px;font-weight:bold;stroke:#000000;font-family:Arial;-inkscape-font-specification:Arial Bold;fill:#f9f9f9"
           id="path3831"
           inkscape:connector-curvature="0" />
        <path
           d="m 305.97304,714.85669 0,-6.90273 1.40523,0 0,5.73012 3.49409,0 0,1.17261 z"
           style="font-size:9.72268294999999940px;font-weight:bold;stroke:#000000;font-family:Arial;-inkscape-font-specification:Arial Bold;fill:#f9f9f9"
           id="path3833"
           inkscape:connector-curvature="0" />
        <path
           d="m 313.44545,714.85669 0,-5.78234 -2.06512,0 0,-1.17735 5.53073,0 0,1.17735 -2.06037,0 0,5.78234 z"
           style="font-size:9.72268294999999940px;font-weight:bold;stroke:#000000;font-family:Arial;-inkscape-font-specification:Arial Bold;fill:#f9f9f9"
           id="path3835"
           inkscape:connector-curvature="0" />
        <path
           d="m 317.77983,714.85669 0,-6.95969 1.40524,0 0,6.95969 z"
           style="font-size:9.72268294999999940px;font-weight:bold;stroke:#000000;font-family:Arial;-inkscape-font-specification:Arial Bold;fill:#f9f9f9"
           id="path3837"
           inkscape:connector-curvature="0" />
        <path
           d="m 320.5001,714.85669 0,-6.95969 2.1031,0 1.26281,4.7474 1.24856,-4.7474 2.10785,0 0,6.95969 -1.30554,0 0,-5.4785 -1.38149,5.4785 -1.35301,0 -1.37675,-5.4785 0,5.4785 z"
           style="font-size:9.72268294999999940px;font-weight:bold;stroke:#000000;font-family:Arial;-inkscape-font-specification:Arial Bold;fill:#f9f9f9"
           id="path3839"
           inkscape:connector-curvature="0" />
        <path
           d="m 328.34281,711.41957 c 0,-0.70894 0.10602,-1.30395 0.31807,-1.78502 0.15825,-0.35447 0.37426,-0.67255 0.64802,-0.95423 0.27377,-0.28168 0.57365,-0.49056 0.89964,-0.62666 0.43359,-0.18356 0.93365,-0.27534 1.50018,-0.27535 1.02543,10e-6 1.84594,0.31808 2.46153,0.95423 0.61557,0.63616 0.92336,1.52075 0.92337,2.6538 -10e-6,1.12355 -0.30543,2.00261 -0.91625,2.63718 -0.61084,0.63457 -1.42739,0.95185 -2.44966,0.95185 -1.03494,0 -1.85782,-0.3157 -2.46865,-0.9471 -0.61084,-0.63141 -0.91625,-1.50097 -0.91625,-2.6087 z m 1.44796,-0.0475 c -1e-5,0.78807 0.18198,1.38545 0.54595,1.79214 0.36396,0.4067 0.82604,0.61004 1.38624,0.61004 0.56019,0 1.01989,-0.20176 1.37912,-0.60529 0.35921,-0.40353 0.53882,-1.00882 0.53883,-1.81588 -1e-5,-0.79756 -0.17487,-1.39257 -0.52459,-1.78503 -0.34973,-0.39244 -0.81418,-0.58867 -1.39336,-0.58868 -0.57919,10e-6 -1.04602,0.19861 -1.40049,0.5958 -0.35447,0.39721 -0.53171,0.99617 -0.5317,1.7969 z"
           style="font-size:9.72268294999999940px;font-weight:bold;stroke:#000000;font-family:Arial;-inkscape-font-specification:Arial Bold;fill:#f9f9f9"
           id="path3841"
           inkscape:connector-curvature="0" />
        <path
           d="m 336.19027,714.85669 0,-6.95969 2.95763,0 c 0.74376,0 1.28417,0.0625 1.62124,0.18752 0.33706,0.12502 0.60687,0.34736 0.80943,0.66701 0.20255,0.31966 0.30383,0.68521 0.30383,1.09665 0,0.52222 -0.1535,0.95344 -0.46049,1.29367 -0.30701,0.34023 -0.76592,0.55465 -1.37675,0.64327 0.30383,0.17724 0.55465,0.37188 0.75246,0.58393 0.19781,0.21205 0.46445,0.58868 0.79994,1.12988 l 0.84979,1.35776 -1.68059,0 -1.01594,-1.51442 c -0.36081,-0.5412 -0.60767,-0.88223 -0.74059,-1.02307 -0.13294,-0.14083 -0.27377,-0.23737 -0.42252,-0.28959 -0.14876,-0.0522 -0.38455,-0.0783 -0.70737,-0.0783 l -0.28484,0 0,2.90541 z m 1.40523,-4.0163 1.03968,0 c 0.67413,0 1.09506,-0.0285 1.26281,-0.0855 0.16774,-0.057 0.29908,-0.15508 0.39403,-0.29434 0.095,-0.13925 0.14242,-0.31332 0.14243,-0.52221 -1e-5,-0.2342 -0.0625,-0.42331 -0.18753,-0.56732 -0.12502,-0.14399 -0.30146,-0.23499 -0.52933,-0.27297 -0.11394,-0.0158 -0.45576,-0.0237 -1.02544,-0.0237 l -1.09665,0 z"
           style="font-size:9.72268294999999940px;font-weight:bold;stroke:#000000;font-family:Arial;-inkscape-font-specification:Arial Bold;fill:#f9f9f9"
           id="path3843"
           inkscape:connector-curvature="0" />
        <path
           d="m 343.21168,714.85669 0,-6.95969 5.16043,0 0,1.17735 -3.7552,0 0,1.54291 3.49409,0 0,1.17261 -3.49409,0 0,1.89421 3.88812,0 0,1.17261 z"
           style="font-size:9.72268294999999940px;font-weight:bold;stroke:#000000;font-family:Arial;-inkscape-font-specification:Arial Bold;fill:#f9f9f9"
           id="path3845"
           inkscape:connector-curvature="0" />
      </g>
    </g>
  </g>
</svg>
