<?xml version="1.0" encoding="UTF-8" standalone="no"?>
<!-- Created with Inkscape (http://www.inkscape.org/) -->

<svg
   xmlns:dc="http://purl.org/dc/elements/1.1/"
   xmlns:cc="http://creativecommons.org/ns#"
   xmlns:rdf="http://www.w3.org/1999/02/22-rdf-syntax-ns#"
   xmlns:svg="http://www.w3.org/2000/svg"
   xmlns="http://www.w3.org/2000/svg"
   xmlns:sodipodi="http://sodipodi.sourceforge.net/DTD/sodipodi-0.dtd"
   xmlns:inkscape="http://www.inkscape.org/namespaces/inkscape"
   width="51"
   height="26"
   id="svg2"
   version="1.1"
   inkscape:version="0.48.4 r9939"
   sodipodi:docname="New document 1">
  <defs
     id="defs4" />
  <sodipodi:namedview
     id="base"
     pagecolor="#ffffff"
     bordercolor="#666666"
     borderopacity="1.0"
     inkscape:pageopacity="0.0"
     inkscape:pageshadow="2"
     inkscape:zoom="11.2"
     inkscape:cx="13.827852"
     inkscape:cy="8.1191525"
     inkscape:document-units="px"
     inkscape:current-layer="layer1"
     showgrid="false"
     fit-margin-top="0"
     fit-margin-left="0"
     fit-margin-right="0"
     fit-margin-bottom="0"
     showguides="true"
     inkscape:guide-bbox="true"
     inkscape:window-width="1680"
     inkscape:window-height="988"
     inkscape:window-x="-8"
     inkscape:window-y="-8"
     inkscape:window-maximized="1" />
  <metadata
     id="metadata7">
    <rdf:RDF>
      <cc:Work
         rdf:about="">
        <dc:format>image/svg+xml</dc:format>
        <dc:type
           rdf:resource="http://purl.org/dc/dcmitype/StillImage" />
        <dc:title></dc:title>
      </cc:Work>
    </rdf:RDF>
  </metadata>
  <g
     inkscape:label="Layer 1"
     inkscape:groupmode="layer"
     id="layer1"
     transform="translate(-317.86988,-408.30779)">
    <g
       id="g3027">
      <g
         transform="scale(0.65313471,1.5310777)"
         style="font-size:19.86441231px;font-style:normal;font-variant:normal;font-weight:normal;font-stretch:normal;line-height:125%;letter-spacing:0px;word-spacing:0px;fill:#f9b82a;fill-opacity:1;stroke:none;font-family:Times New Roman;-inkscape-font-specification:Times New Roman"
         id="text2997">
        <path
           d="m 495.40995,271.47395 c -10e-6,-1.09925 -0.5165,-1.7283 -1.54948,-1.88714 l 0,-2.66188 c 3.46955,0.13257 5.20433,1.64891 5.20435,4.54902 z m -4.4296,6.79384 c 0.0396,1.39026 0.70825,2.14499 2.00596,2.26421 l 0,2.72129 c -3.65507,-0.13215 -5.4826,-1.79398 -5.4826,-4.9855 z m 8.20389,0.99298 c -10e-6,2.58247 -1.7746,3.91331 -5.32377,3.99252 l 0,-2.70128 c 1.17888,-0.10589 1.76832,-0.52963 1.76833,-1.27123 -0.0796,-0.50316 -0.39102,-0.96671 -0.93418,-1.39066 -0.91377,-0.67532 -1.76793,-1.31093 -2.56246,-1.90684 -0.79455,-0.5959 -1.57576,-1.15211 -2.34363,-1.66861 -1.07259,-0.84747 -1.72811,-1.95341 -1.96655,-3.31781 -10e-6,-2.62206 1.71497,-3.97937 5.14493,-4.07193 l 0,2.66188 c -0.59611,0.0663 -1.00016,0.21532 -1.21212,0.44708 -0.21198,0.23179 -0.31797,0.57946 -0.31796,1.04299 -10e-6,0.43689 0.17883,0.78102 0.5365,1.03239 0.23844,0.1459 0.52982,0.33474 0.87416,0.5665 0.34432,0.23179 0.70522,0.4768 1.0827,0.73504 0.37746,0.25825 0.75159,0.51973 1.1224,0.78444 0.37079,0.26472 0.70512,0.50306 1.00298,0.71503 0.29784,0.21198 0.53952,0.38414 0.72503,0.51649 0.18549,0.13237 0.28491,0.19854 0.29826,0.19854 1.40357,1.00672 2.10537,2.21854 2.10538,3.63546 z"
           style="fill:#f9b82a;font-family:Gunplay;-inkscape-font-specification:Gunplay"
           id="path3032" />
        <path
           d="m 501.43026,272.18929 0,2.48305 -1.29123,0 0,-2.48305 z m 4.11195,0 1.37065,0 0,2.48305 -1.37065,0 z m -0.49649,-3.2578 0,10.4487 c 0,1.00632 0.43687,1.50948 1.31063,1.50948 0.14589,0 0.31149,-0.007 0.4968,-0.02 0.18529,-0.0133 0.39049,-0.0331 0.61561,-0.0594 l 0,2.26421 c -0.1455,0.0267 -0.3507,0.0532 -0.61561,0.0797 -0.26492,0.0265 -0.58268,0.0595 -0.95327,0.0991 -2.71504,-0.0129 -4.07255,-1.23788 -4.07255,-3.67486 l 0,-10.64694 z"
           style="fill:#f9b82a;font-family:Gunplay;-inkscape-font-specification:Gunplay"
           id="path3034" />
        <path
           d="m 517.892,279.26077 c -1e-5,2.50286 -1.48322,3.81389 -4.44961,3.93312 l 0,-2.36363 c 0.75493,-0.11922 1.1324,-0.58277 1.1324,-1.39066 l 0,-0.29825 3.31721,0 z m -4.44961,-2.92013 1.1324,0 0,-0.81415 c 0,-0.75493 -0.37747,-1.1722 -1.1324,-1.25183 l 0,-2.34362 c 2.96639,0.0659 4.4496,1.31064 4.44961,3.73428 l 0,2.28421 -4.44961,0 z m -0.5559,0 0,1.60889 -1.03299,0 0,1.49007 c 0,0.82082 0.34433,1.29084 1.03299,1.41006 l 0,2.34423 c -2.91347,-0.0796 -4.3702,-1.39733 -4.3702,-3.95312 l 0,-3.61546 c 0,-2.42323 1.45673,-3.66132 4.3702,-3.71427 l 0,2.36362 c -0.68866,0.053 -1.03299,0.47023 -1.03299,1.25183 l 0,0.81415 z"
           style="fill:#f9b82a;font-family:Gunplay;-inkscape-font-specification:Gunplay"
           id="path3036" />
        <path
           d="m 528.94933,279.26077 c -1e-5,2.50286 -1.48321,3.81389 -4.4496,3.93312 l 0,-2.36363 c 0.75493,-0.11922 1.1324,-0.58277 1.1324,-1.39066 l 0,-0.29825 3.3172,0 z m -4.4496,-2.92013 1.1324,0 0,-0.81415 c 0,-0.75493 -0.37747,-1.1722 -1.1324,-1.25183 l 0,-2.34362 c 2.96639,0.0659 4.44959,1.31064 4.4496,3.73428 l 0,2.28421 -4.4496,0 z m -0.5559,0 0,1.60889 -1.03299,0 0,1.49007 c 0,0.82082 0.34432,1.29084 1.03299,1.41006 l 0,2.34423 c -2.91347,-0.0796 -4.3702,-1.39733 -4.3702,-3.95312 l 0,-3.61546 c 0,-2.42323 1.45673,-3.66132 4.3702,-3.71427 l 0,2.36362 c -0.68867,0.053 -1.03299,0.47023 -1.03299,1.25183 l 0,0.81415 z"
           style="fill:#f9b82a;font-family:Gunplay;-inkscape-font-specification:Gunplay"
           id="path3038" />
        <path
           d="m 530.74979,266.96494 3.2778,0 0,15.9707 -3.2778,0 z"
           style="fill:#f9b82a;font-family:Gunplay;-inkscape-font-specification:Gunplay"
           id="path3040" />
        <path
           d="m 545.28316,279.26077 c -10e-6,2.50286 -1.48321,3.81389 -4.44961,3.93312 l 0,-2.36363 c 0.75493,-0.11922 1.1324,-0.58277 1.13241,-1.39066 l 0,-0.29825 3.3172,0 z m -4.44961,-2.92013 1.13241,0 0,-0.81415 c -10e-6,-0.75493 -0.37748,-1.1722 -1.13241,-1.25183 l 0,-2.34362 c 2.9664,0.0659 4.4496,1.31064 4.44961,3.73428 l 0,2.28421 -4.44961,0 z m -0.5559,0 0,1.60889 -1.03299,0 0,1.49007 c 0,0.82082 0.34433,1.29084 1.03299,1.41006 l 0,2.34423 c -2.91347,-0.0796 -4.3702,-1.39733 -4.3702,-3.95312 l 0,-3.61546 c 0,-2.42323 1.45673,-3.66132 4.3702,-3.71427 l 0,2.36362 c -0.68866,0.053 -1.03299,0.47023 -1.03299,1.25183 l 0,0.81415 z"
           style="fill:#f9b82a;font-family:Gunplay;-inkscape-font-specification:Gunplay"
           id="path3042" />
        <path
           d="m 550.8579,273.18227 c 0.56943,-0.72826 1.39711,-1.09239 2.48305,-1.0924 l 0.21884,0 0,2.72129 c -0.18551,-0.0663 -0.36767,-0.11264 -0.5465,-0.13912 -0.17884,-0.0265 -0.35434,-0.0397 -0.5265,-0.0397 -0.72827,10e-6 -1.27123,0.26492 -1.62889,0.79474 z m -3.77429,-0.99298 3.2778,0 0,10.74635 -3.2778,0 z"
           style="fill:#f9b82a;font-family:Gunplay;-inkscape-font-specification:Gunplay"
           id="path3044" />
        <path
           d="m 561.03804,275.68532 c -0.0263,-0.86081 -0.46982,-1.33103 -1.33064,-1.41066 l 0,-2.34362 c 2.76756,0.0659 4.17135,1.31731 4.21137,3.75428 z m -3.39661,3.35661 c -10e-6,1.073 0.51649,1.66911 1.54948,1.78833 l 0,2.40364 c -2.97974,-0.10629 -4.48942,-1.50362 -4.52902,-4.19197 z m 6.41616,0.93417 c -10e-6,2.11852 -1.46987,3.20445 -4.40959,3.2578 l 0,-2.38424 c 0.94002,0 1.41004,-0.25825 1.41005,-0.77474 -10e-6,-0.52943 -0.66866,-1.01278 -2.00596,-1.45007 -1.32438,-0.42353 -2.31433,-0.89355 -2.96984,-1.41005 -0.65552,-0.51649 -0.98328,-1.19848 -0.98328,-2.04597 0,-2.10557 1.39045,-3.1915 4.17135,-3.25779 l 0,2.36362 c -0.78121,0.0267 -1.17181,0.2916 -1.17181,0.79475 0,0.22511 0.14569,0.42708 0.43708,0.60591 0.29139,0.17884 0.65885,0.36091 1.1024,0.5462 0.44354,0.1853 0.92356,0.38061 1.44006,0.5859 0.51649,0.20531 0.99651,0.45366 1.44006,0.74504 0.44354,0.29139 0.81101,0.63239 1.1024,1.02299 0.29138,0.3906 0.43707,0.85749 0.43708,1.40065 z"
           style="fill:#f9b82a;font-family:Gunplay;-inkscape-font-specification:Gunplay"
           id="path3046" />
      </g>
    </g>
  </g>
</svg>
