<?xml version="1.0" encoding="UTF-8" standalone="no"?>
<!-- Created with Inkscape (http://www.inkscape.org/) -->

<svg
   xmlns:dc="http://purl.org/dc/elements/1.1/"
   xmlns:cc="http://creativecommons.org/ns#"
   xmlns:rdf="http://www.w3.org/1999/02/22-rdf-syntax-ns#"
   xmlns:svg="http://www.w3.org/2000/svg"
   xmlns="http://www.w3.org/2000/svg"
   xmlns:sodipodi="http://sodipodi.sourceforge.net/DTD/sodipodi-0.dtd"
   xmlns:inkscape="http://www.inkscape.org/namespaces/inkscape"
   width="286.77734"
   height="39.804688"
   id="svg3139"
   version="1.1"
   inkscape:version="0.48.4 r9939"
   sodipodi:docname="coomingsoon.svg">
  <defs
     id="defs3141" />
  <sodipodi:namedview
     id="base"
     pagecolor="#ffffff"
     bordercolor="#666666"
     borderopacity="1.0"
     inkscape:pageopacity="0.0"
     inkscape:pageshadow="2"
     inkscape:zoom="1.979899"
     inkscape:cx="93.055172"
     inkscape:cy="-25.791029"
     inkscape:document-units="px"
     inkscape:current-layer="text3147"
     showgrid="false"
     inkscape:window-width="1680"
     inkscape:window-height="988"
     inkscape:window-x="-8"
     inkscape:window-y="-8"
     inkscape:window-maximized="1"
     fit-margin-top="0"
     fit-margin-left="0"
     fit-margin-right="0"
     fit-margin-bottom="0" />
  <metadata
     id="metadata3144">
    <rdf:RDF>
      <cc:Work
         rdf:about="">
        <dc:format>image/svg+xml</dc:format>
        <dc:type
           rdf:resource="http://purl.org/dc/dcmitype/StillImage" />
        <dc:title />
      </cc:Work>
    </rdf:RDF>
  </metadata>
  <g
     inkscape:label="Layer 1"
     inkscape:groupmode="layer"
     id="layer1"
     transform="translate(-175.7607,-686.83527)">
    <g
       style="font-size:40px;font-style:normal;font-variant:normal;font-weight:normal;font-stretch:normal;line-height:125%;letter-spacing:0px;word-spacing:0px;fill:#000000;fill-opacity:1;stroke:none;font-family:Segoe Script;-inkscape-font-specification:Segoe Script"
       id="text3147">
      <path
         d="m 206.85445,704.39386 c -4e-5,0.8073 -0.55342,1.8034 -1.66016,2.98828 -0.27347,0.29949 -0.60876,0.63152 -1.00586,0.99609 -0.39717,0.3646 -0.81709,0.73243 -1.25976,1.10352 -0.44274,0.3711 -0.88871,0.73894 -1.3379,1.10352 -0.44924,0.36459 -0.86916,0.69662 -1.25976,0.99609 -1.25003,0.96355 -2.55862,1.875 -3.92578,2.73437 -1.36721,0.85938 -2.74742,1.61459 -4.14063,2.26563 -1.39324,0.65104 -2.78322,1.16536 -4.16992,1.54297 -1.38673,0.3776 -2.72462,0.5664 -4.01367,0.5664 -1.40626,0 -2.63022,-0.20182 -3.67188,-0.60546 -1.04167,-0.40365 -1.9043,-0.97657 -2.58789,-1.71875 -0.68359,-0.74219 -1.19466,-1.63737 -1.5332,-2.68555 -0.33854,-1.04817 -0.50781,-2.21679 -0.50781,-3.50586 -0.013,-1.17187 0.10742,-2.36327 0.36133,-3.57422 0.2539,-1.21092 0.60872,-2.40233 1.06445,-3.57422 0.45572,-1.17186 1.0026,-2.30141 1.64062,-3.38867 0.63802,-1.08722 1.33463,-2.09308 2.08985,-3.01758 0.45572,-0.55987 0.97004,-1.12953 1.54297,-1.70898 0.5729,-0.57941 1.17512,-1.14256 1.80664,-1.68946 0.6315,-0.54685 1.27277,-1.05791 1.92383,-1.5332 0.65102,-0.47523 1.28904,-0.89515 1.91406,-1.25976 0.40363,-0.23435 0.91795,-0.50779 1.54297,-0.82032 0.62498,-0.31247 1.28253,-0.60544 1.97265,-0.8789 0.69009,-0.27341 1.37368,-0.50453 2.05078,-0.69336 0.67707,-0.18877 1.263,-0.28318 1.75782,-0.28321 0.79424,3e-5 1.42901,0.0554 1.90429,0.16602 0.47524,0.11071 0.89516,0.29625 1.25977,0.55664 0.16924,0.13024 0.36781,0.32881 0.5957,0.5957 0.22784,0.26696 0.44268,0.55993 0.64453,0.87891 0.2018,0.31904 0.37107,0.63805 0.50782,0.95703 0.13669,0.31904 0.20505,0.58922 0.20507,0.81055 -2e-5,0.22138 -0.10419,0.55341 -0.3125,0.99609 -0.20836,0.44273 -0.44924,0.90172 -0.72265,1.37696 -0.27347,0.47528 -0.5469,0.91799 -0.82031,1.32812 -0.27347,0.41018 -0.4818,0.69338 -0.625,0.84961 -0.53388,0.58596 -1.1068,0.87893 -1.71875,0.87891 -0.52086,2e-5 -0.92776,-0.15949 -1.22071,-0.47852 -0.29299,-0.31899 -0.43947,-0.71938 -0.43945,-1.20117 -2e-5,-0.16925 0.0976,-0.43292 0.29297,-0.79102 0.19529,-0.35805 0.52081,-0.76495 0.97656,-1.2207 0.45571,-0.45571 0.81052,-0.87563 1.06445,-1.25977 0.25389,-0.38409 0.41339,-0.64125 0.47852,-0.77148 -0.26044,-0.18227 -0.57945,-0.3255 -0.95703,-0.42969 -0.37763,-0.10414 -0.72919,-0.15622 -1.05469,-0.15625 -0.46877,3e-5 -1.0482,0.10745 -1.73828,0.32227 -0.69013,0.21487 -1.3965,0.49156 -2.11914,0.83008 -0.72268,0.33856 -1.4258,0.71291 -2.10938,1.12304 -0.68361,0.41018 -1.25978,0.80406 -1.72851,1.18164 -1.34116,1.1068 -2.57814,2.2982 -3.71094,3.57422 -1.13282,1.27606 -2.07032,2.68882 -2.8125,4.23828 -0.29949,0.63804 -0.58269,1.30536 -0.84961,2.00196 -0.26693,0.69662 -0.49805,1.403 -0.69336,2.11914 -0.19532,0.71615 -0.34831,1.42904 -0.45898,2.13867 -0.11069,0.70964 -0.16602,1.38998 -0.16602,2.04101 0,0.76824 0.0879,1.48438 0.26367,2.14844 0.17578,0.66407 0.46549,1.23698 0.86914,1.71875 0.40364,0.48178 0.93424,0.85938 1.5918,1.13281 0.65754,0.27344 1.46809,0.41016 2.43164,0.41016 1.04166,0 2.10936,-0.14323 3.20313,-0.42969 1.09373,-0.28645 2.18422,-0.67382 3.27148,-1.16211 1.08722,-0.48827 2.16469,-1.04817 3.23242,-1.67968 1.06769,-0.63151 2.09308,-1.29232 3.07617,-1.98243 0.98305,-0.69009 1.9173,-1.3802 2.80274,-2.07031 0.88539,-0.69009 1.69268,-1.34113 2.42187,-1.95312 0.29945,-0.24739 0.61521,-0.52083 0.94727,-0.82032 0.332,-0.29946 0.66078,-0.59894 0.98633,-0.89843 0.32549,-0.29947 0.64124,-0.59895 0.94726,-0.89844 0.30596,-0.29947 0.57614,-0.5729 0.81055,-0.82031 0.5859,0.29949 0.87887,0.72918 0.87891,1.28906 z"
         style=""
         id="path3000" />
      <path
         d="m 233.33882,700.62433 c -3e-5,0.22137 -0.0489,0.44598 -0.14648,0.67383 -0.0977,0.22788 -0.22464,0.44923 -0.38086,0.66406 -0.15628,0.21486 -0.32881,0.41668 -0.51758,0.60547 -0.18883,0.18881 -0.38089,0.34181 -0.57617,0.45898 -0.45576,0.2995 -1.10355,0.56317 -1.94336,0.79102 -0.83987,0.22788 -1.87828,0.34181 -3.11524,0.34179 -0.9896,2e-5 -1.9857,-0.12694 -2.98828,-0.38085 -1.00262,-0.2539 -1.96616,-0.67382 -2.89062,-1.25977 0.29946,0.45574 0.49152,0.89194 0.57617,1.30859 0.0846,0.41668 0.12693,0.91147 0.12695,1.48438 -2e-5,1.02866 -0.26043,2.1224 -0.78125,3.28125 -0.50783,1.17188 -1.16538,2.25912 -1.97265,3.26172 -0.80731,1.00261 -1.66017,1.83594 -2.5586,2.5 -0.50782,0.3776 -1.06446,0.70638 -1.66992,0.98633 -0.60548,0.27994 -1.24024,0.50781 -1.9043,0.68359 -0.66407,0.17578 -1.35417,0.30599 -2.07031,0.39062 -0.71615,0.0846 -1.43881,0.12696 -2.16797,0.12696 -0.50781,0 -1.00261,-0.16276 -1.48437,-0.48828 -0.48178,-0.32552 -0.91146,-0.72266 -1.28906,-1.19141 -0.37761,-0.46875 -0.68035,-0.97005 -0.90821,-1.50391 -0.22786,-0.53385 -0.3418,-1.01562 -0.34179,-1.44531 -1e-5,-1.05468 0.13997,-2.06705 0.41992,-3.03711 0.27994,-0.97004 0.65755,-1.90754 1.13281,-2.8125 0.47526,-0.90493 1.02539,-1.79035 1.65039,-2.65625 0.62499,-0.86587 1.28906,-1.7285 1.99219,-2.58789 0.39062,-0.48175 0.83658,-0.95376 1.33789,-1.41601 0.50129,-0.46223 1.02538,-0.87564 1.57226,-1.24024 0.54687,-0.36456 1.10025,-0.66079 1.66016,-0.88867 0.55988,-0.22785 1.09374,-0.34178 1.60156,-0.3418 0.41666,2e-5 0.77473,0.0586 1.07422,0.17578 0.29947,0.11721 0.58267,0.28323 0.84961,0.49805 0.26691,0.21486 0.54035,0.48505 0.82031,0.81055 0.27994,0.32554 0.6022,0.69012 0.9668,1.09375 0.11717,0.1172 0.43944,0.28973 0.9668,0.51758 0.52732,0.22788 1.15232,0.44923 1.875,0.66406 0.72263,0.21486 1.4811,0.40366 2.27539,0.5664 0.79425,0.16278 1.5169,0.24416 2.16797,0.24414 0.65101,2e-5 1.24997,-0.0228 1.79687,-0.0684 0.54685,-0.0456 1.07745,-0.12043 1.5918,-0.22461 0.51429,-0.10415 1.02536,-0.24738 1.5332,-0.42969 0.50778,-0.18228 1.05466,-0.40363 1.64063,-0.66406 0.052,0.19533 0.0781,0.3646 0.0781,0.50781 z m -14.58984,4.6875 c 0.013,-0.36457 -0.013,-0.77798 -0.0781,-1.24024 -0.0651,-0.46222 -0.17905,-0.89842 -0.34179,-1.30859 -0.16278,-0.41014 -0.37762,-0.74543 -0.64454,-1.00586 -0.26694,-0.2604 -0.59571,-0.36457 -0.98632,-0.3125 -0.59898,-0.23436 -1.09377,-0.48175 -1.48438,-0.74219 -0.39064,-0.2604 -0.69011,-0.3906 -0.89844,-0.39062 -0.15626,2e-5 -0.32553,0.0488 -0.50781,0.14648 -0.1823,0.0977 -0.3711,0.23114 -0.5664,0.40039 -0.19533,0.16929 -0.3939,0.36786 -0.59571,0.59571 -0.20183,0.22788 -0.4004,0.46551 -0.5957,0.71289 -0.39063,0.50782 -0.75196,0.97006 -1.08399,1.38672 -0.33203,0.41668 -0.64453,0.83009 -0.9375,1.24023 -0.29297,0.41017 -0.57617,0.83986 -0.8496,1.28906 -0.27345,0.44923 -0.54689,0.95379 -0.82032,1.51367 -0.11719,0.23439 -0.22136,0.51434 -0.3125,0.83985 -0.0911,0.32553 -0.16927,0.66081 -0.23437,1.00586 -0.0651,0.34506 -0.11394,0.69011 -0.14649,1.03515 -0.0325,0.34506 -0.0488,0.65431 -0.0488,0.92774 -1e-5,0.16927 0.0586,0.37435 0.17578,0.61523 0.11718,0.24089 0.27017,0.47527 0.45898,0.70313 0.1888,0.22787 0.40364,0.41992 0.64453,0.57617 0.24088,0.15625 0.47851,0.23438 0.71289,0.23437 0.66406,10e-6 1.23046,-0.0293 1.69922,-0.0879 0.46874,-0.0586 0.90168,-0.16275 1.29883,-0.3125 0.39712,-0.14973 0.79751,-0.35481 1.20117,-0.61523 0.40364,-0.26041 0.87239,-0.59895 1.40625,-1.01563 0.26041,-0.1953 0.51757,-0.42317 0.77149,-0.68359 0.25389,-0.26041 0.50454,-0.5371 0.75195,-0.83008 0.24738,-0.29296 0.48176,-0.59244 0.70312,-0.89843 0.22134,-0.30599 0.42968,-0.60872 0.625,-0.90821 0.1302,-0.1953 0.24087,-0.43619 0.33204,-0.72265 0.0911,-0.28645 0.16274,-0.57291 0.21484,-0.85938 0.0521,-0.28645 0.0879,-0.54686 0.10742,-0.78125 0.0195,-0.23436 0.0293,-0.40363 0.0293,-0.50781 z"
         style=""
         id="path3002" />
      <path
         d="m 272.5771,703.37823 c -4e-5,0.11721 -0.0228,0.26695 -0.0684,0.44922 -0.0456,0.18231 -0.10421,0.37762 -0.17578,0.58594 -0.0717,0.20835 -0.15629,0.41994 -0.2539,0.63477 -0.0977,0.21485 -0.20513,0.40691 -0.32227,0.57617 -0.2214,0.33855 -0.51111,0.72918 -0.86914,1.17187 -0.35812,0.44272 -0.752,0.90171 -1.18164,1.37696 -0.42973,0.47527 -0.88872,0.95053 -1.37695,1.42578 -0.48833,0.47527 -0.96684,0.90821 -1.43555,1.29883 -0.37765,0.3125 -0.81384,0.65755 -1.30859,1.03515 -0.49484,0.37761 -1.01567,0.72917 -1.5625,1.05469 -0.54692,0.32552 -1.10681,0.59571 -1.67969,0.81055 -0.57295,0.21484 -1.11332,0.32227 -1.6211,0.32226 -0.45576,1e-5 -0.86917,-0.0651 -1.24023,-0.19531 -0.37113,-0.13021 -0.70967,-0.37435 -1.01563,-0.73242 -0.30602,-0.35807 -0.5762,-0.84961 -0.81054,-1.47461 -0.23441,-0.625 -0.43623,-1.43229 -0.60547,-2.42188 -0.0782,-0.41665 -0.14652,-0.86262 -0.20508,-1.33789 -0.0586,-0.47525 -0.11722,-0.94725 -0.17578,-1.41601 -0.0586,-0.46874 -0.11396,-0.92122 -0.16602,-1.35742 -0.0521,-0.43619 -0.11396,-0.8203 -0.18554,-1.15235 -0.0716,-0.33202 -0.14977,-0.59569 -0.23438,-0.79101 -0.0847,-0.1953 -0.17906,-0.29296 -0.2832,-0.29297 -0.1693,1e-5 -0.40693,0.14324 -0.71289,0.42968 -0.30602,0.28648 -0.66409,0.69989 -1.07422,1.24024 -0.41018,0.54038 -0.8594,1.18816 -1.34766,1.94336 -0.4883,0.75522 -0.99937,1.60157 -1.5332,2.53906 -1.05471,1.87501 -1.94664,3.30079 -2.67578,4.27734 -0.72919,0.97657 -1.39325,1.46485 -1.99219,1.46485 -0.89846,0 -1.50392,-0.42318 -1.8164,-1.26953 -0.28648,-0.85937 -0.46226,-2.29817 -0.52735,-4.31641 -0.0391,-1.96614 -0.17905,-3.47981 -0.41992,-4.54101 -0.2409,-1.06119 -0.55015,-1.59179 -0.92773,-1.5918 -0.2344,10e-6 -0.57619,0.2116 -1.0254,0.63476 -0.44923,0.42319 -0.95704,1.00588 -1.52343,1.74805 -0.56642,0.7422 -1.18166,1.61785 -1.84571,2.62695 -0.66407,1.00913 -1.32813,2.10613 -1.99218,3.29102 -0.18231,0.31251 -0.39064,0.67058 -0.625,1.07422 -0.23439,0.40365 -0.47202,0.81055 -0.71289,1.2207 -0.2409,0.41016 -0.47527,0.79753 -0.70313,1.16211 -0.22787,0.36459 -0.42644,0.66407 -0.5957,0.89844 -0.37761,0.54687 -0.83334,0.82031 -1.36719,0.82031 -0.98959,0 -1.64063,-0.50781 -1.95312,-1.52344 -0.0781,-0.26041 -0.13998,-0.472 -0.18555,-0.63476 -0.0456,-0.16276 -0.0814,-0.32552 -0.10742,-0.48828 -0.0261,-0.16276 -0.0423,-0.3418 -0.0488,-0.53711 -0.007,-0.19531 -0.01,-0.44922 -0.01,-0.76172 0,-0.52083 0.0163,-0.99935 0.0488,-1.43555 0.0325,-0.43619 0.0749,-0.87564 0.12695,-1.31836 0.0521,-0.4427 0.11719,-0.91796 0.19532,-1.42578 0.0781,-0.5078 0.15624,-1.10025 0.23437,-1.77734 0.0651,-0.55989 0.12369,-1.15885 0.17578,-1.79688 0.0521,-0.63801 0.10091,-1.25975 0.14649,-1.86523 0.0456,-0.60546 0.0911,-1.1621 0.13672,-1.66992 0.0456,-0.5078 0.10741,-0.91145 0.18554,-1.21094 0.0391,-0.15623 0.13021,-0.33853 0.27344,-0.54688 0.14322,-0.20831 0.30924,-0.40688 0.49805,-0.5957 0.18879,-0.18878 0.38736,-0.35154 0.5957,-0.48828 0.20833,-0.1367 0.39062,-0.20506 0.54688,-0.20508 0.27343,2e-5 0.49803,0.0619 0.67382,0.18555 0.17578,0.12371 0.31901,0.28973 0.42969,0.49804 0.11067,0.20836 0.18879,0.4525 0.23438,0.73243 0.0456,0.27996 0.0684,0.56967 0.0684,0.86914 -1e-5,0.31251 -0.0293,0.70314 -0.0879,1.17187 -0.0586,0.46877 -0.13347,0.97658 -0.2246,1.52344 -0.0912,0.54689 -0.19207,1.11329 -0.30274,1.69922 -0.11068,0.58595 -0.21811,1.14584 -0.32226,1.67969 -0.10418,0.53386 -0.19858,1.0254 -0.28321,1.47461 -0.0846,0.44922 -0.14649,0.81706 -0.18554,1.10351 -0.1172,0.71615 -0.19532,1.28581 -0.23438,1.70899 -0.0391,0.42318 -0.0586,0.76497 -0.0586,1.02539 0.16926,-0.16927 0.3841,-0.42318 0.64453,-0.76172 0.26041,-0.33854 0.54686,-0.73567 0.85937,-1.19141 0.31249,-0.45572 0.64127,-0.95702 0.98633,-1.50391 0.34504,-0.54686 0.69335,-1.10676 1.04492,-1.67968 0.24739,-0.40364 0.52408,-0.85937 0.83008,-1.36719 0.30598,-0.5078 0.62499,-1.01887 0.95703,-1.5332 0.33202,-0.51431 0.6608,-0.99934 0.98633,-1.45508 0.32551,-0.45572 0.62499,-0.83983 0.89844,-1.15235 0.54686,-0.62498 1.11326,-1.10024 1.69922,-1.42578 0.58592,-0.3255 1.1979,-0.48826 1.83593,-0.48828 0.62499,2e-5 1.1686,0.24416 1.63086,0.73242 0.46222,0.4883 0.77147,1.12307 0.92774,1.9043 0.0781,0.3646 0.13995,0.78452 0.18554,1.25977 0.0456,0.47527 0.0879,0.97332 0.12696,1.49414 0.039,0.52084 0.0748,1.04168 0.10742,1.5625 0.0325,0.52084 0.0683,1.01563 0.10742,1.48437 0.039,0.45574 0.0944,0.83334 0.16602,1.13281 0.0716,0.29949 0.14646,0.53712 0.22461,0.7129 0.0781,0.17578 0.14971,0.29948 0.21484,0.37109 0.0651,0.0716 0.11717,0.10743 0.15625,0.10742 0.24737,10e-6 0.66404,-0.51431 1.25,-1.54297 0.29946,-0.52082 0.63149,-1.10025 0.99609,-1.73828 0.36456,-0.63801 0.76821,-1.34113 1.21094,-2.10937 0.44268,-0.7552 0.91794,-1.48437 1.42578,-2.1875 0.50779,-0.70311 1.00583,-1.32486 1.49414,-1.86524 0.48826,-0.54035 0.94724,-0.97003 1.37696,-1.28906 0.42965,-0.31899 0.79424,-0.4785 1.09375,-0.47852 0.19528,2e-5 0.3971,0.0195 0.60547,0.0586 0.2083,0.0391 0.41012,0.0977 0.60546,0.17578 0.19528,0.0781 0.36781,0.17254 0.51758,0.2832 0.14971,0.1107 0.26364,0.23114 0.3418,0.36133 0.19528,0.31252 0.33525,0.66733 0.41992,1.06445 0.0846,0.39715 0.14645,0.85288 0.18555,1.36719 0.039,0.51434 0.0748,1.08725 0.10742,1.71875 0.0325,0.63152 0.0879,1.33139 0.16602,2.09961 0.18225,1.62761 0.46546,2.8418 0.8496,3.64258 0.38408,0.80079 0.93421,1.20118 1.6504,1.20117 0.2734,10e-6 0.61845,-0.0911 1.03515,-0.27344 0.41663,-0.18228 0.85934,-0.41991 1.32813,-0.71289 0.46871,-0.29296 0.94397,-0.62499 1.42578,-0.99609 0.48173,-0.37109 0.93095,-0.73893 1.34765,-1.10352 0.41663,-0.36457 0.81702,-0.73241 1.20118,-1.10351 0.38407,-0.37109 0.77144,-0.74869 1.16211,-1.13282 0.39058,-0.3841 0.79097,-0.78449 1.20117,-1.20117 0.41011,-0.41665 0.84956,-0.85936 1.31836,-1.32812 0.1562,-0.15624 0.29943,-0.23436 0.42968,-0.23438 0.19527,2e-5 0.29293,0.16929 0.29297,0.50781 z"
         style=""
         id="path3004" />
      <path
         d="m 278.31929,688.39777 c -1e-5,0.84638 -0.22137,1.56903 -0.66406,2.16796 -0.4297,0.59899 -1.06121,0.89847 -1.89453,0.89844 -0.52085,3e-5 -1.10027,-0.0781 -1.73828,-0.23437 -0.62501,-0.15623 -0.93751,-0.41013 -0.9375,-0.76172 -1e-5,-0.638 0.19856,-1.24672 0.5957,-1.82617 0.39713,-0.5794 0.87564,-1.05141 1.43555,-1.41602 0.44269,-0.26039 0.73566,-0.39059 0.8789,-0.39062 0.74218,3e-5 1.31509,0.10094 1.71875,0.30273 0.40364,0.20185 0.60546,0.62177 0.60547,1.25977 z m 12.79297,15.8789 c 0.013,0.27345 -0.10745,0.64455 -0.36133,1.11328 -0.25393,0.46876 -0.59898,0.99936 -1.03516,1.5918 -0.43622,0.59246 -0.94403,1.22722 -1.52343,1.9043 -0.57945,0.67709 -1.18817,1.35417 -1.82617,2.03125 -0.72919,0.78125 -1.50067,1.53321 -2.31446,2.25586 -0.81382,0.72266 -1.68296,1.42253 -2.60742,2.09961 -1.82293,1.35416 -3.45053,2.03125 -4.88281,2.03125 -1.57553,0 -2.79949,-0.52735 -3.67188,-1.58204 -0.8724,-1.0677 -1.46485,-2.35676 -1.77734,-3.86718 -0.31251,-1.49739 -0.46876,-3.04036 -0.46875,-4.62891 -10e-6,-0.66405 0.0781,-1.69921 0.23437,-3.10547 0.0781,-0.70311 0.15625,-1.30858 0.23438,-1.8164 0.0781,-0.5078 0.16275,-0.91796 0.25391,-1.23047 0.18228,-0.61197 0.5664,-1.14582 1.15234,-1.60157 0.59895,-0.48175 1.22395,-0.72263 1.875,-0.72265 0.35155,2e-5 0.52733,0.33205 0.52734,0.99609 -10e-6,0.44273 -0.0423,0.94403 -0.12695,1.50391 -0.0846,0.55991 -0.17253,1.11329 -0.26367,1.66015 -0.16928,1.02866 -0.29298,1.94989 -0.3711,2.76368 -0.0781,0.81381 -0.11719,1.52019 -0.11718,2.11914 -10e-6,1.31511 0.18228,2.64323 0.54687,3.98437 0.36458,1.36719 1.02213,2.05079 1.97266,2.05078 0.96353,10e-6 2.08332,-0.35156 3.35937,-1.05468 0.63801,-0.36458 1.27603,-0.76823 1.91407,-1.21094 0.638,-0.4427 1.27602,-0.9375 1.91406,-1.48438 0.65102,-0.54686 1.27602,-1.09699 1.875,-1.65039 0.59894,-0.55337 1.18487,-1.12303 1.75781,-1.70898 0.5729,-0.58593 1.08722,-1.1328 1.54297,-1.64063 0.45571,-0.5078 0.85284,-0.97655 1.19141,-1.40625 0.013,-0.026 0.0358,-0.0683 0.0684,-0.12695 0.0325,-0.0586 0.0683,-0.11717 0.10743,-0.17578 0.039,-0.0586 0.0781,-0.10741 0.11718,-0.14649 0.039,-0.039 0.0781,-0.0521 0.11719,-0.0391 0.18227,2e-5 0.31899,0.14325 0.41016,0.42969 0.11716,0.27345 0.17575,0.4948 0.17578,0.66406 z"
         style=""
         id="path3006" />
      <path
         d="m 322.14742,703.02667 c -4e-5,0.24741 -0.0424,0.49806 -0.12696,0.75196 -0.0847,0.25391 -0.18884,0.50782 -0.3125,0.76171 -0.12373,0.25392 -0.26371,0.50132 -0.41992,0.74219 -0.15629,0.2409 -0.30603,0.47202 -0.44922,0.69336 -0.37764,0.58595 -0.82035,1.18165 -1.32812,1.78711 -0.50785,0.60548 -1.05147,1.19467 -1.63086,1.76758 -0.57946,0.57292 -1.17516,1.11329 -1.78711,1.62109 -0.61201,0.50782 -1.21097,0.95704 -1.79688,1.34766 -0.46878,0.3125 -0.91474,0.60547 -1.33789,0.8789 -0.4232,0.27345 -0.84963,0.50782 -1.27929,0.70313 -0.42972,0.19532 -0.87894,0.35156 -1.34766,0.46875 -0.46878,0.11719 -0.9831,0.17578 -1.54297,0.17578 -1.08075,0 -1.95966,-0.27343 -2.63672,-0.82031 -0.33856,-0.27344 -0.63478,-0.62825 -0.88867,-1.06445 -0.25393,-0.4362 -0.47528,-0.92122 -0.66406,-1.45508 -0.18882,-0.53385 -0.35158,-1.10026 -0.48828,-1.69922 -0.13674,-0.59895 -0.25067,-1.1914 -0.3418,-1.77735 -0.11721,-0.72915 -0.22788,-1.38345 -0.33203,-1.96289 -0.10419,-0.57941 -0.22463,-1.06769 -0.36133,-1.46484 -0.13674,-0.39712 -0.30275,-0.70311 -0.49805,-0.91797 -0.19533,-0.21483 -0.44923,-0.32225 -0.76172,-0.32226 -0.24741,10e-6 -0.48178,0.026 -0.70312,0.0781 -0.22137,0.0521 -0.45249,0.15626 -0.69336,0.3125 -0.2409,0.15626 -0.50457,0.37762 -0.79102,0.66406 -0.28647,0.28647 -0.62175,0.66408 -1.00586,1.13282 -0.38412,0.46876 -0.82358,1.04167 -1.31835,1.71875 -0.49481,0.67709 -1.07423,1.48438 -1.73829,2.42187 -0.32553,0.45574 -0.70964,0.95704 -1.15234,1.50391 -0.44272,0.54688 -0.89519,1.06771 -1.35742,1.5625 -0.46225,0.49479 -0.91472,0.93099 -1.35742,1.30859 -0.44272,0.37761 -0.83334,0.61849 -1.17188,0.72266 -1.14584,-0.2474 -1.71875,-1.67318 -1.71875,-4.27735 0,-0.69009 0.0781,-1.73827 0.23438,-3.14453 0.0781,-0.63801 0.16926,-1.30533 0.27343,-2.00195 0.10417,-0.6966 0.23437,-1.39322 0.39063,-2.08984 0.15624,-0.6966 0.33528,-1.37369 0.53711,-2.03125 0.20182,-0.65754 0.43945,-1.26626 0.71289,-1.82618 0.1302,-0.2604 0.26692,-0.46547 0.41016,-0.61523 0.14322,-0.14972 0.2897,-0.2604 0.43945,-0.33203 0.14973,-0.0716 0.30598,-0.11717 0.46875,-0.13672 0.16275,-0.0195 0.32877,-0.0293 0.49805,-0.0293 0.20832,2e-5 0.39387,0.14325 0.55664,0.42969 0.16275,0.28648 0.24413,0.68361 0.24414,1.19141 -10e-6,0.31251 -0.026,0.60548 -0.0781,0.8789 -0.0521,0.27346 -0.1237,0.5534 -0.21484,0.83985 -0.0912,0.28647 -0.18881,0.59571 -0.29297,0.92773 -0.10418,0.33205 -0.20834,0.7129 -0.3125,1.14258 -0.0781,0.35157 -0.16602,0.7422 -0.26367,1.17187 -0.0977,0.4297 -0.18881,0.8659 -0.27344,1.3086 -0.0846,0.44272 -0.15626,0.87566 -0.21484,1.29883 -0.0586,0.42318 -0.0879,0.80404 -0.0879,1.14257 -1e-5,0.23439 0.039,0.47527 0.11718,0.72266 0.36458,-0.039 0.96354,-0.58593 1.79688,-1.64063 0.42968,-0.53384 0.90168,-1.11978 1.41601,-1.75781 0.51432,-0.63801 1.07096,-1.34113 1.66993,-2.10937 0.44269,-0.57291 0.88214,-1.10676 1.31835,-1.60157 0.43619,-0.49477 0.88866,-0.92771 1.35743,-1.29882 0.46873,-0.37108 0.96678,-0.66405 1.49414,-0.87891 0.52732,-0.21483 1.11001,-0.32225 1.74804,-0.32227 0.67707,2e-5 1.24022,0.14651 1.68946,0.43946 0.4492,0.29298 0.81052,0.69663 1.08398,1.21094 0.27342,0.51433 0.48501,1.12957 0.63477,1.8457 0.14972,0.71616 0.27016,1.50392 0.36133,2.36328 0.0781,0.72918 0.15297,1.45183 0.2246,2.16797 0.0716,0.71615 0.21157,1.35743 0.41993,1.92383 0.20831,0.56641 0.50779,1.02539 0.89843,1.37695 0.39061,0.35157 0.9505,0.52735 1.67969,0.52734 0.55987,10e-6 1.14581,-0.1302 1.75781,-0.39062 0.61196,-0.26041 1.25649,-0.62174 1.9336,-1.08399 0.67705,-0.46223 1.37692,-1.00585 2.09961,-1.63086 0.72262,-0.62499 1.46806,-1.30858 2.23633,-2.05078 0.29944,-0.28644 0.62822,-0.64777 0.98632,-1.08398 0.35804,-0.43619 0.7096,-0.85611 1.05469,-1.25977 0.34502,-0.40363 0.66728,-0.74868 0.9668,-1.03515 0.29944,-0.28645 0.54033,-0.42968 0.72265,-0.42969 0.0781,10e-6 0.20505,0.0391 0.38086,0.11719 0.17575,0.0781 0.26364,0.20834 0.26368,0.39062 z"
         style=""
         id="path3008" />
      <path
         d="m 333.22163,701.99152 c -0.10418,0.89845 -0.18882,1.89454 -0.2539,2.98828 -0.0651,1.09376 -0.14976,2.3112 -0.25391,3.65234 -0.0391,0.4948 -0.0912,1.0547 -0.15625,1.67969 -0.0651,0.625 -0.13673,1.26954 -0.21484,1.93359 -0.0781,0.66407 -0.15627,1.31837 -0.23438,1.96289 -0.0781,0.64454 -0.15626,1.22722 -0.23437,1.74805 -0.11721,0.75521 -0.26695,1.53971 -0.44922,2.35352 -0.18231,0.8138 -0.41017,1.61783 -0.68359,2.4121 -0.27346,0.79427 -0.60874,1.54948 -1.00586,2.26563 -0.39715,0.71614 -0.86916,1.34439 -1.41602,1.88477 -0.54689,0.54035 -1.18165,0.97004 -1.9043,1.28906 -0.72266,0.319 -1.54623,0.4785 -2.4707,0.47851 -0.58595,-10e-6 -1.17839,-0.0716 -1.77734,-0.21484 -0.59897,-0.14324 -1.18816,-0.3353 -1.76758,-0.57617 -0.57943,-0.2409 -1.13933,-0.52735 -1.67969,-0.85938 -0.54037,-0.33204 -1.03841,-0.68685 -1.49414,-1.06445 -0.50781,-0.41667 -0.95703,-0.84311 -1.34766,-1.2793 -0.39062,-0.4362 -0.71614,-0.88216 -0.97656,-1.33789 -0.26041,-0.44271 -0.39062,-0.87891 -0.39062,-1.30859 0,-0.40365 0.13021,-0.60547 0.39062,-0.60547 0.0912,0 0.1888,0.0456 0.29297,0.13672 0.0521,0.0391 0.11393,0.0977 0.18555,0.17578 0.0716,0.0781 0.13997,0.15299 0.20508,0.22461 0.0651,0.0716 0.12369,0.13671 0.17578,0.19531 0.0521,0.0586 0.0846,0.0944 0.0976,0.10742 2.51302,2.31771 5.19531,3.47656 8.04688,3.47657 0.95051,-1e-5 1.7285,-0.21811 2.33398,-0.6543 0.60546,-0.4362 1.08723,-1.00261 1.44531,-1.69922 0.35806,-0.69662 0.6315,-1.47136 0.82032,-2.32422 0.18879,-0.85286 0.34829,-1.69596 0.47851,-2.5293 0.0781,-0.52083 0.14647,-1.04166 0.20508,-1.5625 0.0586,-0.52083 0.11392,-1.06445 0.16602,-1.63085 0.0521,-0.56641 0.10415,-1.16211 0.15625,-1.78711 0.0521,-0.625 0.11066,-1.30208 0.17578,-2.03125 -0.53387,0.57292 -1.2077,1.18164 -2.02149,1.82617 -0.81381,0.64453 -1.68621,1.24024 -2.61718,1.78711 -0.931,0.54688 -1.8685,0.99935 -2.8125,1.35742 -0.94402,0.35807 -1.81316,0.53711 -2.60743,0.53711 -0.33854,0 -0.65104,-0.0781 -0.9375,-0.23438 -0.28646,-0.15624 -0.53385,-0.38085 -0.74218,-0.67382 -0.20834,-0.29297 -0.37435,-0.65104 -0.49805,-1.07422 -0.1237,-0.42318 -0.18555,-0.89518 -0.18555,-1.41602 0,-0.7552 0.13021,-1.56249 0.39063,-2.42187 0.26041,-0.85937 0.59244,-1.71549 0.99609,-2.56836 0.40364,-0.85286 0.85286,-1.67968 1.34766,-2.48047 0.49478,-0.80077 0.97655,-1.52017 1.44531,-2.15821 0.46874,-0.62498 1.03515,-1.27928 1.69922,-1.96289 0.66405,-0.68357 1.37694,-1.30857 2.13867,-1.875 0.76171,-0.56638 1.55272,-1.03188 2.37305,-1.39648 0.8203,-0.36456 1.62108,-0.54685 2.40234,-0.54688 0.69009,3e-5 1.33462,0.15302 1.9336,0.45899 0.59894,0.30601 1.06118,0.76499 1.38671,1.37695 0.0781,0.14325 0.12368,0.35484 0.13672,0.63477 0.013,0.27996 0.007,0.59897 -0.0195,0.95703 -0.0261,0.35809 -0.0651,0.7422 -0.11719,1.15234 -0.0521,0.41018 -0.10418,0.81708 -0.15625,1.22071 z m -3.20312,3.55468 c 0.0521,-0.39061 0.10415,-0.86261 0.15625,-1.41601 0.0521,-0.55337 0.11717,-1.24022 0.19531,-2.06055 0.039,-0.42967 0.0814,-0.85936 0.12695,-1.28906 0.0456,-0.42967 0.0293,-0.78123 -0.0488,-1.05469 -0.10419,-0.37759 -0.30601,-0.61847 -0.60547,-0.72266 -0.2995,-0.10414 -0.78778,-0.15623 -1.46485,-0.15625 -0.62501,0.39065 -1.24675,0.87242 -1.86523,1.44532 -0.6185,0.57293 -1.21095,1.19142 -1.77734,1.85547 -0.56642,0.66407 -1.09051,1.35092 -1.57227,2.06054 -0.48178,0.70965 -0.90495,1.40301 -1.26953,2.08008 -0.40365,0.7422 -0.72266,1.48113 -0.95703,2.2168 -0.23438,0.73568 -0.35157,1.35743 -0.35156,1.86523 -1e-5,0.22136 0.0423,0.40365 0.12695,0.54688 0.0846,0.14323 0.19531,0.25716 0.33203,0.34179 0.13671,0.0847 0.29296,0.14324 0.46875,0.17579 0.17577,0.0326 0.35481,0.0488 0.53711,0.0488 0.45572,10e-6 0.94726,-0.0977 1.47461,-0.29297 0.52733,-0.1953 1.05142,-0.43619 1.57226,-0.72265 0.52083,-0.28645 1.01562,-0.58919 1.48438,-0.9082 0.46874,-0.31901 0.87238,-0.60872 1.21094,-0.86915 0.14321,-0.10415 0.33202,-0.26691 0.5664,-0.48828 0.23436,-0.22134 0.46874,-0.4785 0.70313,-0.77148 0.23436,-0.29296 0.44269,-0.6022 0.625,-0.92774 0.18228,-0.32551 0.29295,-0.64452 0.33203,-0.95703 z"
         style=""
         id="path3010" />
      <path
         d="m 374.37398,692.18683 c -3e-5,0.16929 -0.0196,0.37763 -0.0586,0.625 -0.0391,0.24742 -0.0944,0.49807 -0.16601,0.75195 -0.0716,0.25393 -0.15627,0.49482 -0.25391,0.72266 -0.0977,0.22789 -0.2051,0.40692 -0.32226,0.53711 -0.31253,0.37762 -0.87242,0.56643 -1.67969,0.5664 -2e-5,-0.88539 -0.12372,-1.62107 -0.37109,-2.20703 -0.11721,-0.27341 -0.3288,-0.50453 -0.63477,-0.69336 -0.30601,-0.18877 -0.64781,-0.34828 -1.02539,-0.47851 -0.37762,-0.13019 -0.75848,-0.22459 -1.14258,-0.28321 -0.38413,-0.0586 -0.71291,-0.0879 -0.98633,-0.0879 -0.62501,3e-5 -1.22723,0.0131 -1.80664,0.0391 -0.57944,0.0261 -1.14584,0.0814 -1.69922,0.16601 -0.55339,0.0847 -1.11329,0.20185 -1.67968,0.35156 -0.56642,0.14977 -1.15561,0.34834 -1.76758,0.59571 -0.46876,0.19533 -0.95704,0.42645 -1.46485,0.69336 -0.50782,0.26695 -0.97657,0.56968 -1.40625,0.9082 -0.42969,0.33856 -0.80078,0.70966 -1.11328,1.11328 -0.3125,0.40367 -0.50781,0.84638 -0.58593,1.32813 -0.026,0.3646 0.0846,0.78127 0.33203,1.25 0.24739,0.46876 0.58267,0.92449 1.00586,1.36718 0.42317,0.44273 0.91145,0.84637 1.46484,1.21094 0.55338,0.3646 1.12955,0.63153 1.72852,0.80078 0.10415,0.0391 0.34504,0.12372 0.72265,0.25391 0.37759,0.13022 0.7845,0.26694 1.2207,0.41015 0.43619,0.14325 0.83984,0.27671 1.21094,0.4004 0.37108,0.12371 0.60871,0.19858 0.71289,0.2246 2.94269,0.75523 5.12694,1.65041 6.55274,2.68555 1.42576,1.03517 2.13865,2.30144 2.13867,3.79883 -2e-5,0.48178 -0.10745,0.96029 -0.32227,1.43555 -0.21486,0.47526 -0.48504,0.93099 -0.81054,1.36718 -0.32555,0.43621 -0.67711,0.8366 -1.05469,1.20118 -0.37762,0.36458 -0.72919,0.67057 -1.05469,0.91796 -0.37762,0.29949 -0.80731,0.60873 -1.28906,0.92774 -0.48179,0.31901 -0.99611,0.62826 -1.54297,0.92773 -0.54689,0.29948 -1.1133,0.57943 -1.69922,0.83985 -0.58595,0.26041 -1.1784,0.48828 -1.77734,0.68359 -0.58595,0.19531 -1.20119,0.37435 -1.84571,0.53711 -0.64454,0.16276 -1.28256,0.30273 -1.91406,0.41992 -0.63152,0.11719 -1.23698,0.21159 -1.8164,0.28321 -0.57944,0.0716 -1.09702,0.10742 -1.55274,0.10742 -0.33855,0 -0.778,-0.0488 -1.31836,-0.14649 -0.54037,-0.0976 -1.07096,-0.23437 -1.59179,-0.41015 -0.52084,-0.17579 -0.9668,-0.38412 -1.3379,-0.625 -0.37109,-0.24089 -0.55664,-0.49805 -0.55664,-0.77149 0,-0.16927 0.0228,-0.3776 0.0684,-0.625 0.0456,-0.24739 0.11068,-0.48828 0.19532,-0.72265 0.0846,-0.23438 0.18229,-0.43294 0.29296,-0.59571 0.11068,-0.16276 0.23763,-0.24414 0.38086,-0.24414 0.26042,0 0.5306,0.0423 0.81055,0.12696 0.27995,0.0846 0.61198,0.17903 0.99609,0.2832 0.38412,0.10417 0.83984,0.19857 1.36719,0.2832 0.52734,0.0846 1.16862,0.12696 1.92383,0.12695 0.78124,10e-6 1.59179,-0.0814 2.43164,-0.24414 0.83983,-0.16275 1.6634,-0.38085 2.4707,-0.65429 0.80728,-0.27344 1.57877,-0.58594 2.31446,-0.9375 0.73566,-0.35156 1.39647,-0.71614 1.98242,-1.09375 0.27342,-0.18229 0.57615,-0.39388 0.9082,-0.63477 0.33202,-0.24088 0.64126,-0.50455 0.92774,-0.79101 0.28644,-0.28646 0.52732,-0.59245 0.72265,-0.91797 0.1953,-0.32552 0.29295,-0.66406 0.29297,-1.01563 -2e-5,-0.49478 -0.3646,-0.97004 -1.09375,-1.42578 -0.71616,-0.4427 -1.44858,-0.78775 -2.19726,-1.03516 -0.74872,-0.24738 -1.41603,-0.44269 -2.00196,-0.58593 -0.71616,-0.18228 -1.52019,-0.42317 -2.41211,-0.72266 -0.89193,-0.29947 -1.87175,-0.65754 -2.93945,-1.07422 -1.77084,-0.67707 -3.26823,-1.66665 -4.49219,-2.96875 -1.22396,-1.30206 -1.83594,-2.87107 -1.83593,-4.70703 -0.026,-0.85935 0.23762,-1.68617 0.79101,-2.48047 0.55338,-0.79424 1.29883,-1.52992 2.23633,-2.20703 0.93749,-0.67706 2.00846,-1.27927 3.21289,-1.80664 1.20442,-0.52732 2.44465,-0.94073 3.7207,-1.24023 0.26041,-0.0521 0.57616,-0.11065 0.94727,-0.17579 0.37108,-0.0651 0.75519,-0.12041 1.15234,-0.16601 0.39712,-0.0456 0.78124,-0.0846 1.15235,-0.11719 0.37107,-0.0325 0.68683,-0.0488 0.94726,-0.0488 0.31249,3e-5 0.70636,0.0228 1.18164,0.0684 0.47524,0.0456 0.96353,0.10745 1.46485,0.18555 0.50128,0.0781 0.97654,0.17581 1.42578,0.29297 0.4492,0.11721 0.81052,0.25393 1.08398,0.41015 0.66404,0.35159 1.18487,0.77477 1.5625,1.26954 0.37758,0.49481 0.56638,0.97658 0.56641,1.44531 z"
         style=""
         id="path3012" />
      <path
         d="m 406.15132,700.62433 c -3e-5,0.22137 -0.0489,0.44598 -0.14648,0.67383 -0.0977,0.22788 -0.22464,0.44923 -0.38086,0.66406 -0.15628,0.21486 -0.32881,0.41668 -0.51758,0.60547 -0.18883,0.18881 -0.38089,0.34181 -0.57617,0.45898 -0.45576,0.2995 -1.10355,0.56317 -1.94336,0.79102 -0.83987,0.22788 -1.87828,0.34181 -3.11524,0.34179 -0.9896,2e-5 -1.9857,-0.12694 -2.98828,-0.38085 -1.00262,-0.2539 -1.96616,-0.67382 -2.89062,-1.25977 0.29946,0.45574 0.49152,0.89194 0.57617,1.30859 0.0846,0.41668 0.12693,0.91147 0.12695,1.48438 -2e-5,1.02866 -0.26043,2.1224 -0.78125,3.28125 -0.50783,1.17188 -1.16538,2.25912 -1.97265,3.26172 -0.80731,1.00261 -1.66017,1.83594 -2.5586,2.5 -0.50782,0.3776 -1.06446,0.70638 -1.66992,0.98633 -0.60548,0.27994 -1.24024,0.50781 -1.9043,0.68359 -0.66407,0.17578 -1.35417,0.30599 -2.07031,0.39062 -0.71615,0.0846 -1.43881,0.12696 -2.16797,0.12696 -0.50781,0 -1.00261,-0.16276 -1.48437,-0.48828 -0.48178,-0.32552 -0.91146,-0.72266 -1.28906,-1.19141 -0.37761,-0.46875 -0.68035,-0.97005 -0.90821,-1.50391 -0.22786,-0.53385 -0.3418,-1.01562 -0.34179,-1.44531 -1e-5,-1.05468 0.13997,-2.06705 0.41992,-3.03711 0.27994,-0.97004 0.65755,-1.90754 1.13281,-2.8125 0.47526,-0.90493 1.02539,-1.79035 1.65039,-2.65625 0.62499,-0.86587 1.28906,-1.7285 1.99219,-2.58789 0.39062,-0.48175 0.83658,-0.95376 1.33789,-1.41601 0.50129,-0.46223 1.02538,-0.87564 1.57226,-1.24024 0.54687,-0.36456 1.10025,-0.66079 1.66016,-0.88867 0.55988,-0.22785 1.09374,-0.34178 1.60156,-0.3418 0.41666,2e-5 0.77473,0.0586 1.07422,0.17578 0.29947,0.11721 0.58267,0.28323 0.84961,0.49805 0.26691,0.21486 0.54035,0.48505 0.82031,0.81055 0.27994,0.32554 0.6022,0.69012 0.9668,1.09375 0.11717,0.1172 0.43944,0.28973 0.9668,0.51758 0.52732,0.22788 1.15232,0.44923 1.875,0.66406 0.72263,0.21486 1.4811,0.40366 2.27539,0.5664 0.79425,0.16278 1.5169,0.24416 2.16797,0.24414 0.65101,2e-5 1.24997,-0.0228 1.79687,-0.0684 0.54685,-0.0456 1.07745,-0.12043 1.5918,-0.22461 0.51429,-0.10415 1.02536,-0.24738 1.5332,-0.42969 0.50778,-0.18228 1.05466,-0.40363 1.64063,-0.66406 0.0521,0.19533 0.0781,0.3646 0.0781,0.50781 z m -14.58984,4.6875 c 0.013,-0.36457 -0.013,-0.77798 -0.0781,-1.24024 -0.0651,-0.46222 -0.17905,-0.89842 -0.34179,-1.30859 -0.16278,-0.41014 -0.37762,-0.74543 -0.64454,-1.00586 -0.26694,-0.2604 -0.59571,-0.36457 -0.98632,-0.3125 -0.59898,-0.23436 -1.09377,-0.48175 -1.48438,-0.74219 -0.39064,-0.2604 -0.69011,-0.3906 -0.89844,-0.39062 -0.15626,2e-5 -0.32553,0.0488 -0.50781,0.14648 -0.1823,0.0977 -0.3711,0.23114 -0.5664,0.40039 -0.19533,0.16929 -0.3939,0.36786 -0.59571,0.59571 -0.20183,0.22788 -0.4004,0.46551 -0.5957,0.71289 -0.39063,0.50782 -0.75196,0.97006 -1.08399,1.38672 -0.33203,0.41668 -0.64453,0.83009 -0.9375,1.24023 -0.29297,0.41017 -0.57617,0.83986 -0.8496,1.28906 -0.27345,0.44923 -0.54689,0.95379 -0.82032,1.51367 -0.11719,0.23439 -0.22136,0.51434 -0.3125,0.83985 -0.0911,0.32553 -0.16927,0.66081 -0.23437,1.00586 -0.0651,0.34506 -0.11394,0.69011 -0.14649,1.03515 -0.0326,0.34506 -0.0488,0.65431 -0.0488,0.92774 -1e-5,0.16927 0.0586,0.37435 0.17578,0.61523 0.11718,0.24089 0.27017,0.47527 0.45898,0.70313 0.1888,0.22787 0.40364,0.41992 0.64453,0.57617 0.24088,0.15625 0.47851,0.23438 0.71289,0.23437 0.66406,10e-6 1.23046,-0.0293 1.69922,-0.0879 0.46874,-0.0586 0.90168,-0.16275 1.29883,-0.3125 0.39712,-0.14973 0.79751,-0.35481 1.20117,-0.61523 0.40364,-0.26041 0.87239,-0.59895 1.40625,-1.01563 0.26041,-0.1953 0.51757,-0.42317 0.77149,-0.68359 0.25389,-0.26041 0.50454,-0.5371 0.75195,-0.83008 0.24738,-0.29296 0.48176,-0.59244 0.70312,-0.89843 0.22134,-0.30599 0.42968,-0.60872 0.625,-0.90821 0.1302,-0.1953 0.24087,-0.43619 0.33204,-0.72265 0.0911,-0.28645 0.16274,-0.57291 0.21484,-0.85938 0.0521,-0.28645 0.0879,-0.54686 0.10742,-0.78125 0.0195,-0.23436 0.0293,-0.40363 0.0293,-0.50781 z"
         style=""
         id="path3014" />
      <path
         d="m 429.27632,700.62433 c -3e-5,0.22137 -0.0489,0.44598 -0.14648,0.67383 -0.0977,0.22788 -0.22464,0.44923 -0.38086,0.66406 -0.15628,0.21486 -0.32881,0.41668 -0.51758,0.60547 -0.18883,0.18881 -0.38089,0.34181 -0.57617,0.45898 -0.45576,0.2995 -1.10355,0.56317 -1.94336,0.79102 -0.83987,0.22788 -1.87828,0.34181 -3.11524,0.34179 -0.9896,2e-5 -1.9857,-0.12694 -2.98828,-0.38085 -1.00262,-0.2539 -1.96616,-0.67382 -2.89062,-1.25977 0.29946,0.45574 0.49152,0.89194 0.57617,1.30859 0.0846,0.41668 0.12693,0.91147 0.12695,1.48438 -2e-5,1.02866 -0.26043,2.1224 -0.78125,3.28125 -0.50783,1.17188 -1.16538,2.25912 -1.97265,3.26172 -0.80731,1.00261 -1.66017,1.83594 -2.5586,2.5 -0.50782,0.3776 -1.06446,0.70638 -1.66992,0.98633 -0.60548,0.27994 -1.24024,0.50781 -1.9043,0.68359 -0.66407,0.17578 -1.35417,0.30599 -2.07031,0.39062 -0.71615,0.0846 -1.43881,0.12696 -2.16797,0.12696 -0.50781,0 -1.00261,-0.16276 -1.48437,-0.48828 -0.48178,-0.32552 -0.91146,-0.72266 -1.28906,-1.19141 -0.37761,-0.46875 -0.68035,-0.97005 -0.90821,-1.50391 -0.22786,-0.53385 -0.3418,-1.01562 -0.34179,-1.44531 -1e-5,-1.05468 0.13997,-2.06705 0.41992,-3.03711 0.27994,-0.97004 0.65755,-1.90754 1.13281,-2.8125 0.47526,-0.90493 1.02539,-1.79035 1.65039,-2.65625 0.62499,-0.86587 1.28906,-1.7285 1.99219,-2.58789 0.39062,-0.48175 0.83658,-0.95376 1.33789,-1.41601 0.50129,-0.46223 1.02538,-0.87564 1.57226,-1.24024 0.54687,-0.36456 1.10025,-0.66079 1.66016,-0.88867 0.55988,-0.22785 1.09374,-0.34178 1.60156,-0.3418 0.41666,2e-5 0.77473,0.0586 1.07422,0.17578 0.29947,0.11721 0.58267,0.28323 0.84961,0.49805 0.26691,0.21486 0.54035,0.48505 0.82031,0.81055 0.27994,0.32554 0.6022,0.69012 0.9668,1.09375 0.11717,0.1172 0.43944,0.28973 0.9668,0.51758 0.52732,0.22788 1.15232,0.44923 1.875,0.66406 0.72263,0.21486 1.4811,0.40366 2.27539,0.5664 0.79425,0.16278 1.5169,0.24416 2.16797,0.24414 0.65101,2e-5 1.24997,-0.0228 1.79687,-0.0684 0.54685,-0.0456 1.07745,-0.12043 1.5918,-0.22461 0.51429,-0.10415 1.02536,-0.24738 1.5332,-0.42969 0.50778,-0.18228 1.05466,-0.40363 1.64063,-0.66406 0.0521,0.19533 0.0781,0.3646 0.0781,0.50781 z m -14.58984,4.6875 c 0.013,-0.36457 -0.013,-0.77798 -0.0781,-1.24024 -0.0651,-0.46222 -0.17905,-0.89842 -0.34179,-1.30859 -0.16278,-0.41014 -0.37762,-0.74543 -0.64454,-1.00586 -0.26694,-0.2604 -0.59571,-0.36457 -0.98632,-0.3125 -0.59898,-0.23436 -1.09377,-0.48175 -1.48438,-0.74219 -0.39064,-0.2604 -0.69011,-0.3906 -0.89844,-0.39062 -0.15626,2e-5 -0.32553,0.0488 -0.50781,0.14648 -0.1823,0.0977 -0.3711,0.23114 -0.5664,0.40039 -0.19533,0.16929 -0.3939,0.36786 -0.59571,0.59571 -0.20183,0.22788 -0.4004,0.46551 -0.5957,0.71289 -0.39063,0.50782 -0.75196,0.97006 -1.08399,1.38672 -0.33203,0.41668 -0.64453,0.83009 -0.9375,1.24023 -0.29297,0.41017 -0.57617,0.83986 -0.8496,1.28906 -0.27345,0.44923 -0.54689,0.95379 -0.82032,1.51367 -0.11719,0.23439 -0.22136,0.51434 -0.3125,0.83985 -0.0911,0.32553 -0.16927,0.66081 -0.23437,1.00586 -0.0651,0.34506 -0.11394,0.69011 -0.14649,1.03515 -0.0326,0.34506 -0.0488,0.65431 -0.0488,0.92774 -1e-5,0.16927 0.0586,0.37435 0.17578,0.61523 0.11718,0.24089 0.27017,0.47527 0.45898,0.70313 0.1888,0.22787 0.40364,0.41992 0.64453,0.57617 0.24088,0.15625 0.47851,0.23438 0.71289,0.23437 0.66406,10e-6 1.23046,-0.0293 1.69922,-0.0879 0.46874,-0.0586 0.90168,-0.16275 1.29883,-0.3125 0.39712,-0.14973 0.79751,-0.35481 1.20117,-0.61523 0.40364,-0.26041 0.87239,-0.59895 1.40625,-1.01563 0.26041,-0.1953 0.51757,-0.42317 0.77149,-0.68359 0.25389,-0.26041 0.50454,-0.5371 0.75195,-0.83008 0.24738,-0.29296 0.48176,-0.59244 0.70312,-0.89843 0.22134,-0.30599 0.42968,-0.60872 0.625,-0.90821 0.1302,-0.1953 0.24087,-0.43619 0.33204,-0.72265 0.0911,-0.28645 0.16274,-0.57291 0.21484,-0.85938 0.0521,-0.28645 0.0879,-0.54686 0.10742,-0.78125 0.0195,-0.23436 0.0293,-0.40363 0.0293,-0.50781 z"
         style=""
         id="path3016" />
      <path
         d="m 458.70992,703.02667 c -4e-5,0.24741 -0.0424,0.49806 -0.12696,0.75196 -0.0847,0.25391 -0.18884,0.50782 -0.3125,0.76171 -0.12373,0.25392 -0.26371,0.50132 -0.41992,0.74219 -0.15629,0.2409 -0.30603,0.47202 -0.44922,0.69336 -0.37764,0.58595 -0.82035,1.18165 -1.32812,1.78711 -0.50785,0.60548 -1.05147,1.19467 -1.63086,1.76758 -0.57946,0.57292 -1.17516,1.11329 -1.78711,1.62109 -0.61201,0.50782 -1.21097,0.95704 -1.79688,1.34766 -0.46878,0.3125 -0.91474,0.60547 -1.33789,0.8789 -0.4232,0.27345 -0.84963,0.50782 -1.27929,0.70313 -0.42972,0.19532 -0.87894,0.35156 -1.34766,0.46875 -0.46878,0.11719 -0.9831,0.17578 -1.54297,0.17578 -1.08075,0 -1.95966,-0.27343 -2.63672,-0.82031 -0.33856,-0.27344 -0.63478,-0.62825 -0.88867,-1.06445 -0.25393,-0.4362 -0.47528,-0.92122 -0.66406,-1.45508 -0.18882,-0.53385 -0.35158,-1.10026 -0.48828,-1.69922 -0.13674,-0.59895 -0.25067,-1.1914 -0.3418,-1.77735 -0.11721,-0.72915 -0.22788,-1.38345 -0.33203,-1.96289 -0.10419,-0.57941 -0.22463,-1.06769 -0.36133,-1.46484 -0.13674,-0.39712 -0.30275,-0.70311 -0.49805,-0.91797 -0.19533,-0.21483 -0.44923,-0.32225 -0.76172,-0.32226 -0.24741,10e-6 -0.48178,0.026 -0.70312,0.0781 -0.22137,0.0521 -0.45249,0.15626 -0.69336,0.3125 -0.2409,0.15626 -0.50457,0.37762 -0.79102,0.66406 -0.28647,0.28647 -0.62175,0.66408 -1.00586,1.13282 -0.38412,0.46876 -0.82358,1.04167 -1.31835,1.71875 -0.49481,0.67709 -1.07423,1.48438 -1.73829,2.42187 -0.32553,0.45574 -0.70964,0.95704 -1.15234,1.50391 -0.44272,0.54688 -0.89519,1.06771 -1.35742,1.5625 -0.46225,0.49479 -0.91472,0.93099 -1.35742,1.30859 -0.44272,0.37761 -0.83334,0.61849 -1.17188,0.72266 -1.14584,-0.2474 -1.71875,-1.67318 -1.71875,-4.27735 0,-0.69009 0.0781,-1.73827 0.23438,-3.14453 0.0781,-0.63801 0.16926,-1.30533 0.27343,-2.00195 0.10417,-0.6966 0.23437,-1.39322 0.39063,-2.08984 0.15624,-0.6966 0.33528,-1.37369 0.53711,-2.03125 0.20182,-0.65754 0.43945,-1.26626 0.71289,-1.82618 0.1302,-0.2604 0.26692,-0.46547 0.41016,-0.61523 0.14322,-0.14972 0.2897,-0.2604 0.43945,-0.33203 0.14973,-0.0716 0.30598,-0.11717 0.46875,-0.13672 0.16275,-0.0195 0.32877,-0.0293 0.49805,-0.0293 0.20832,2e-5 0.39387,0.14325 0.55664,0.42969 0.16275,0.28648 0.24413,0.68361 0.24414,1.19141 -10e-6,0.31251 -0.026,0.60548 -0.0781,0.8789 -0.0521,0.27346 -0.1237,0.5534 -0.21484,0.83985 -0.0912,0.28647 -0.18881,0.59571 -0.29297,0.92773 -0.10418,0.33205 -0.20834,0.7129 -0.3125,1.14258 -0.0781,0.35157 -0.16602,0.7422 -0.26367,1.17187 -0.0977,0.4297 -0.18881,0.8659 -0.27344,1.3086 -0.0846,0.44272 -0.15626,0.87566 -0.21484,1.29883 -0.0586,0.42318 -0.0879,0.80404 -0.0879,1.14257 -1e-5,0.23439 0.039,0.47527 0.11718,0.72266 0.36458,-0.039 0.96354,-0.58593 1.79688,-1.64063 0.42968,-0.53384 0.90168,-1.11978 1.41601,-1.75781 0.51432,-0.63801 1.07096,-1.34113 1.66993,-2.10937 0.44269,-0.57291 0.88214,-1.10676 1.31835,-1.60157 0.43619,-0.49477 0.88866,-0.92771 1.35743,-1.29882 0.46873,-0.37108 0.96678,-0.66405 1.49414,-0.87891 0.52732,-0.21483 1.11001,-0.32225 1.74804,-0.32227 0.67707,2e-5 1.24022,0.14651 1.68946,0.43946 0.4492,0.29298 0.81052,0.69663 1.08398,1.21094 0.27342,0.51433 0.48501,1.12957 0.63477,1.8457 0.14972,0.71616 0.27016,1.50392 0.36133,2.36328 0.0781,0.72918 0.15297,1.45183 0.2246,2.16797 0.0716,0.71615 0.21157,1.35743 0.41993,1.92383 0.20831,0.56641 0.50779,1.02539 0.89843,1.37695 0.39061,0.35157 0.9505,0.52735 1.67969,0.52734 0.55987,10e-6 1.14581,-0.1302 1.75781,-0.39062 0.61196,-0.26041 1.25649,-0.62174 1.9336,-1.08399 0.67705,-0.46223 1.37692,-1.00585 2.09961,-1.63086 0.72262,-0.62499 1.46806,-1.30858 2.23633,-2.05078 0.29944,-0.28644 0.62822,-0.64777 0.98632,-1.08398 0.35804,-0.43619 0.7096,-0.85611 1.05469,-1.25977 0.34502,-0.40363 0.66728,-0.74868 0.9668,-1.03515 0.29944,-0.28645 0.54033,-0.42968 0.72265,-0.42969 0.0781,10e-6 0.20505,0.0391 0.38086,0.11719 0.17575,0.0781 0.26364,0.20834 0.26368,0.39062 z"
         style=""
         id="path3018" />
      <path
         d="m 462.53804,689.23761 c -1e-5,0.28649 -0.0977,0.86591 -0.29297,1.73828 -0.10418,0.44274 -0.20834,0.90172 -0.3125,1.37695 -0.10417,0.47529 -0.22136,0.96682 -0.35156,1.47461 -0.40366,1.80992 -0.80079,3.58401 -1.19141,5.32227 -0.39063,1.7383 -0.69662,3.47332 -0.91797,5.20508 -0.026,0.31251 -0.0391,0.59897 -0.0391,0.85937 -10e-6,0.26043 -0.01,0.50783 -0.0293,0.74219 -0.0195,0.23439 -0.0586,0.45899 -0.11718,0.67383 -0.0586,0.21485 -0.14649,0.42644 -0.26367,0.63476 -0.15626,10e-6 -0.34832,-0.013 -0.57618,-0.0391 -0.22787,-0.026 -0.49154,-0.0651 -0.79101,-0.11719 -0.58594,-0.11717 -0.97006,-0.24738 -1.15235,-0.39062 -0.013,-0.10416 -0.0228,-0.24413 -0.0293,-0.41992 -0.007,-0.17577 -0.01,-0.37434 -0.01,-0.59571 -0.013,-0.66405 0.0293,-1.37368 0.12695,-2.1289 0.0977,-0.7552 0.22461,-1.52668 0.38086,-2.31446 0.15625,-0.78774 0.32552,-1.58526 0.50782,-2.39257 0.18228,-0.80728 0.3483,-1.6048 0.49804,-2.39258 0.14974,-0.78774 0.27343,-1.55597 0.3711,-2.30469 0.0976,-0.74867 0.13996,-1.46156 0.12695,-2.13867 -1e-5,-0.31248 0.0586,-0.78123 0.17578,-1.40625 0.11718,-0.638 0.24088,-1.07419 0.3711,-1.3086 0.0911,-0.1432 0.21158,-0.29294 0.36132,-0.44921 0.14974,-0.15623 0.33528,-0.31248 0.55664,-0.46875 0.4427,-0.3255 0.80729,-0.48826 1.09375,-0.48829 0.32552,3e-5 0.65755,0.13675 0.9961,0.41016 0.33853,0.26045 0.5078,0.56644 0.50781,0.91797 z m -3.51562,23.82812 c -1e-5,0.22136 -0.0912,0.8073 -0.27344,1.75782 -0.0521,0.36458 -0.3711,0.75521 -0.95703,1.17187 -0.5599,0.40365 -1.02865,0.60547 -1.40625,0.60547 -0.96355,0 -1.44532,-0.63151 -1.44532,-1.89453 0,-0.49479 0.23438,-1.08724 0.70313,-1.77734 0.48177,-0.67708 0.944,-1.01562 1.38672,-1.01563 0.14322,-0.013 0.33202,0.0195 0.5664,0.0977 0.23437,0.0781 0.45898,0.17904 0.67383,0.30273 0.21484,0.1237 0.39713,0.25717 0.54688,0.40039 0.14973,0.14324 0.21809,0.26042 0.20508,0.35156 z"
         style=""
         id="path3020" />
    </g>
  </g>
</svg>
