<?xml version="1.0" encoding="UTF-8" standalone="no"?>
<!-- Created with Inkscape (http://www.inkscape.org/) -->

<svg
   xmlns:dc="http://purl.org/dc/elements/1.1/"
   xmlns:cc="http://creativecommons.org/ns#"
   xmlns:rdf="http://www.w3.org/1999/02/22-rdf-syntax-ns#"
   xmlns:svg="http://www.w3.org/2000/svg"
   xmlns="http://www.w3.org/2000/svg"
   xmlns:sodipodi="http://sodipodi.sourceforge.net/DTD/sodipodi-0.dtd"
   xmlns:inkscape="http://www.inkscape.org/namespaces/inkscape"
   width="75.098999"
   height="25"
   id="svg2"
   version="1.1"
   inkscape:version="0.48.4 r9939"
   sodipodi:docname="linkImage.svg">
  <defs
     id="defs4" />
  <sodipodi:namedview
     id="base"
     pagecolor="#ffffff"
     bordercolor="#666666"
     borderopacity="1.0"
     inkscape:pageopacity="0.0"
     inkscape:pageshadow="2"
     inkscape:zoom="3.959798"
     inkscape:cx="77.259487"
     inkscape:cy="-41.254119"
     inkscape:document-units="px"
     inkscape:current-layer="layer1"
     showgrid="false"
     fit-margin-top="0"
     fit-margin-left="0"
     fit-margin-right="0"
     fit-margin-bottom="0"
     inkscape:window-width="1680"
     inkscape:window-height="988"
     inkscape:window-x="-8"
     inkscape:window-y="-8"
     inkscape:window-maximized="1" />
  <metadata
     id="metadata7">
    <rdf:RDF>
      <cc:Work
         rdf:about="">
        <dc:format>image/svg+xml</dc:format>
        <dc:type
           rdf:resource="http://purl.org/dc/dcmitype/StillImage" />
        <dc:title></dc:title>
      </cc:Work>
    </rdf:RDF>
  </metadata>
  <g
     inkscape:label="Layer 1"
     inkscape:groupmode="layer"
     id="layer1"
     transform="translate(-194.11897,-228.49487)">
    <g
       transform="matrix(0.44724132,0,0,0.58304183,96.931113,121.4663)"
       style="font-size:61.40930176px;font-style:normal;font-variant:normal;font-weight:bold;font-stretch:normal;line-height:125%;letter-spacing:0px;word-spacing:0px;fill:#000000;fill-opacity:1;stroke:none;font-family:Magneto;-inkscape-font-specification:Magneto Bold"
       id="text2985">
      <path
         d="m 283.00234,190.88562 c -7e-5,2.05901 -0.82965,3.78814 -2.48876,5.18741 -1.57927,1.33936 -3.40835,2.00902 -5.48725,2.009 -2.33889,2e-5 -4.28791,-0.76959 -5.84708,-2.30885 -1.55927,-1.5392 -2.24893,-3.47823 -2.06897,-5.81709 -0.63973,-0.0799 -1.59924,0.16995 -2.87856,0.74962 -2.83862,1.2794 -4.57775,6.02702 -5.21739,14.24288 -0.65971,8.11596 -5.38734,13.68317 -14.18291,16.70165 l 35.53224,0 c -0.85963,3.19841 -3.53829,4.79761 -8.03598,4.79761 l -55.0225,0 c 1.67916,-4.83758 3.74812,-7.25637 6.2069,-7.25638 1.09944,1e-5 3.00849,0.43979 5.72714,1.31934 2.71862,0.87957 4.67764,1.31935 5.87706,1.31934 3.43826,1e-5 6.24685,-3.12842 8.42579,-9.3853 l 4.76761,-13.82309 c 3.47823,-10.03495 12.14389,-15.05244 25.99701,-15.05248 2.31878,4e-5 4.30778,0.61973 5.96701,1.85907 1.81903,1.37935 2.72857,3.19844 2.72864,5.45727 z"
         id="path3000"
         inkscape:connector-curvature="0" />
      <path
         d="m 301.0833,193.76418 c -2e-5,1.99904 -0.77463,3.69818 -2.32384,5.09746 -1.54924,1.39932 -3.41331,2.09897 -5.5922,2.09895 -2.2189,2e-5 -4.10296,-0.69963 -5.65218,-2.09895 -1.54923,-1.39928 -2.32384,-3.09842 -2.32384,-5.09746 0,-1.97897 0.77461,-3.66813 2.32384,-5.06746 1.54922,-1.39926 3.43328,-2.09891 5.65218,-2.09895 2.17889,4e-5 4.04296,0.69969 5.5922,2.09895 1.54921,1.39933 2.32382,3.08849 2.32384,5.06746 z m 2.15892,27.88606 c -0.51976,1.75913 -1.59922,3.05848 -3.23838,3.89806 -1.17943,0.5997 -2.45879,0.89955 -3.83808,0.89955 l -11.84408,0 c -2.85857,0 -4.28786,-1.1994 -4.28786,-3.59821 0,-0.67965 0.13993,-1.40929 0.41979,-2.1889 l 5.21739,-14.6027 10.88456,0 -5.54722,15.5922 z"
         id="path3002"
         inkscape:connector-curvature="0" />
      <path
         d="m 344.38166,221.65024 c -0.51978,1.75913 -1.66921,3.05848 -3.44828,3.89806 -1.25941,0.5997 -2.60873,0.89955 -4.04798,0.89955 l -11.96401,0 c -2.73865,0 -4.10797,-0.89955 -4.10795,-2.69866 -2e-5,-0.59969 0.13991,-1.29934 0.41979,-2.09895 l 2.27886,-6.44677 -10.31484,8.72563 c -2.4188,1.67917 -4.40781,2.51875 -5.96702,2.51875 l -5.51724,0 7.16641,-20.38981 10.82459,0 -3.3883,9.5952 9.14543,-7.49625 c 2.47873,-2.01897 5.16739,-2.98849 8.06596,-2.90855 1.95899,0.08 2.9385,1.11946 2.93853,3.11844 -3e-5,0.73965 -0.15995,1.56924 -0.47976,2.48876 l -3.86806,10.7946 z"
         id="path3004"
         inkscape:connector-curvature="0" />
      <path
         d="m 385.22124,221.65024 c -0.49979,1.75913 -1.64922,3.05848 -3.44828,3.89806 -1.25941,0.5997 -2.60873,0.89955 -4.04798,0.89955 l -11.7841,0 c -2.73865,0 -4.10797,-1.05947 -4.10795,-3.17842 -2e-5,-0.65966 0.13991,-1.3793 0.41979,-2.15892 l 3.08845,-8.36581 c -0.91956,0.95953 -4.58772,4.29786 -11.00449,10.01499 -1.57922,1.43928 -2.77862,2.37881 -3.59821,2.81859 -1.07946,0.57971 -2.37881,0.86957 -3.89805,0.86957 l -4.46776,0 12.77361,-36.16193 10.79461,0 -7.97602,22.39881 11.96402,-11.90405 6.89655,0 -6.95652,7.1964 2.27886,0 c 2.77858,2e-5 4.16789,1.06948 4.16792,3.2084 -3e-5,0.67967 -0.15995,1.46927 -0.47976,2.36881 l -2.93853,8.09595 z"
         id="path3006"
         inkscape:connector-curvature="0" />
    </g>
  </g>
</svg>
