<?xml version="1.0" encoding="UTF-8" standalone="no"?>
<!-- Created with Inkscape (http://www.inkscape.org/) -->

<svg
   xmlns:dc="http://purl.org/dc/elements/1.1/"
   xmlns:cc="http://creativecommons.org/ns#"
   xmlns:rdf="http://www.w3.org/1999/02/22-rdf-syntax-ns#"
   xmlns:svg="http://www.w3.org/2000/svg"
   xmlns="http://www.w3.org/2000/svg"
   xmlns:sodipodi="http://sodipodi.sourceforge.net/DTD/sodipodi-0.dtd"
   xmlns:inkscape="http://www.inkscape.org/namespaces/inkscape"
   width="331.5"
   height="135"
   id="svg2"
   version="1.1"
   inkscape:version="0.48.4 r9939"
   sodipodi:docname="logo2.svg">
  <defs
     id="defs4" />
  <sodipodi:namedview
     id="base"
     pagecolor="#ffffff"
     bordercolor="#666666"
     borderopacity="1.0"
     inkscape:pageopacity="0.0"
     inkscape:pageshadow="2"
     inkscape:zoom="3.4281172"
     inkscape:cx="158.0225"
     inkscape:cy="62.170283"
     inkscape:document-units="px"
     inkscape:current-layer="g3010"
     showgrid="false"
     inkscape:window-width="1680"
     inkscape:window-height="988"
     inkscape:window-x="-8"
     inkscape:window-y="-8"
     inkscape:window-maximized="1"
     fit-margin-top="0"
     fit-margin-left="0"
     fit-margin-right="0"
     fit-margin-bottom="0" />
  <metadata
     id="metadata7">
    <rdf:RDF>
      <cc:Work
         rdf:about="">
        <dc:format>image/svg+xml</dc:format>
        <dc:type
           rdf:resource="http://purl.org/dc/dcmitype/StillImage" />
        <dc:title />
      </cc:Work>
    </rdf:RDF>
  </metadata>
  <g
     inkscape:label="Layer 1"
     inkscape:groupmode="layer"
     id="layer1"
     transform="translate(-52.809668,-401.42782)">
    <g
       transform="scale(0.98438054,1.0158673)"
       style="font-size:75.35337067px;font-style:normal;font-variant:normal;font-weight:normal;font-stretch:normal;line-height:125%;letter-spacing:0px;word-spacing:0px;fill:#000000;fill-opacity:1;stroke:none;font-family:'Frail&amp;Bedazzled';-inkscape-font-specification:'Frail&amp;Bedazzled'"
       id="text3020" />
    <g
       id="g3010"
       transform="translate(4,0)">
      <g
         transform="scale(0.45440205,2.2006943)"
         style="font-size:63.55735016px;font-style:normal;font-variant:normal;font-weight:normal;font-stretch:normal;line-height:125%;letter-spacing:0px;word-spacing:0px;fill:#000000;fill-opacity:1;stroke:none;font-family:Goudy Stout;-inkscape-font-specification:Goudy Stout"
         id="text3117" />
      <g
         id="g3070">
        <path
           inkscape:connector-curvature="0"
           style="fill:#000000"
           d="m 378.30966,468.92782 c 0,37.27922 -72.86566,67.5 -162.75,67.5 -89.88433,0 -162.749992,-30.22078 -162.749992,-67.5 0,-37.27922 72.865662,-67.5 162.749992,-67.5 89.88434,0 162.75,30.22078 162.75,67.5 z"
           id="path3036-1" />
        <path
           inkscape:connector-curvature="0"
           style="fill:#ffff00"
           d="m 365.71081,468.71452 c 0,34.29525 -67.03321,62.09704 -149.72286,62.09704 -82.68965,0 -149.722856,-27.80179 -149.722856,-62.09704 0,-34.29525 67.033206,-62.09704 149.722856,-62.09704 82.68965,0 149.72286,27.80179 149.72286,62.09704 z"
           id="path3036" />
        <path
           id="path3075"
           style="font-size:40px;font-style:italic;font-variant:normal;font-weight:normal;font-stretch:normal;line-height:125%;letter-spacing:0px;word-spacing:0px;fill:#000000;fill-opacity:1;stroke:none;font-family:Wide Latin;-inkscape-font-specification:Wide Latin Italic"
           d="m 154.6306,499.37137 19.43057,0 c 2.11446,10e-6 3.72107,0.32296 4.81982,0.96886 1.0987,0.64593 1.47117,1.49083 1.11743,2.53472 -0.5132,1.51366 -2.80559,2.49884 -6.87718,2.95553 4.36437,0.58068 6.23244,1.79747 5.60422,3.65039 -0.73401,2.16609 -3.81404,3.24913 -9.24014,3.24913 l -19.38177,0 5.9275,-3.06319 2.43126,-7.17354 z m 9.98854,5.25537 5.57251,0 c 1.50289,1e-5 2.41029,-0.45996 2.7222,-1.3799 0.34033,-1.00475 -0.25721,-1.50712 -1.79264,-1.50713 l -5.52371,0 z m -1.9433,5.73492 5.49443,0 c 1.83471,0 2.919,-0.49259 3.25287,-1.47777 0.36472,-1.07652 -0.1393,-1.61478 -1.51207,-1.61479 l -6.18733,0 z"
           inkscape:connector-curvature="0" />
        <path
           id="path3077"
           style="font-size:40px;font-style:italic;font-variant:normal;font-weight:normal;font-stretch:normal;line-height:125%;letter-spacing:0px;word-spacing:0px;fill:#000000;fill-opacity:1;stroke:none;font-family:Wide Latin;-inkscape-font-specification:Wide Latin Italic"
           d="m 180.82429,503.37406 9.17853,-0.2153 -0.97835,2.88703 c 1.81682,-1.92468 3.71091,-2.88702 5.68229,-2.88703 1.32723,1e-5 2.32419,0.25935 2.99089,0.77803 0.66665,0.51869 0.86194,1.18581 0.58586,2.00134 -0.49774,1.46799 -1.80059,2.20198 -3.90857,2.20198 -0.55303,0 -1.24004,-0.075 -2.06102,-0.22509 0.53919,-0.53499 0.86734,-0.97539 0.98446,-1.32118 0.27853,-0.82207 -0.0409,-1.2331 -0.95823,-1.23311 -0.80677,1e-5 -1.59605,0.32786 -2.36782,0.98355 -0.77181,0.6557 -1.32035,1.46309 -1.64565,2.42217 l -0.51419,1.51691 3.61152,2.44664 -13.78975,0 4.62525,-2.44664 1.50902,-4.45288 z"
           inkscape:connector-curvature="0" />
        <path
           id="path3079"
           style="font-size:40px;font-style:italic;font-variant:normal;font-weight:normal;font-stretch:normal;line-height:125%;letter-spacing:0px;word-spacing:0px;fill:#000000;fill-opacity:1;stroke:none;font-family:Wide Latin;-inkscape-font-specification:Wide Latin Italic"
           d="m 214.36545,508.56093 -10.58874,0 c -0.58352,1.72243 0.68293,2.58365 3.79938,2.58365 2.95377,0 5.08595,-0.5611 6.39655,-1.68329 0.0264,0.2675 0.0109,0.48607 -0.0464,0.6557 -0.32085,0.94604 -1.24971,1.70449 -2.78656,2.27537 -1.53688,0.57089 -3.41461,0.85633 -5.63319,0.85633 -2.77162,0 -4.85216,-0.46976 -6.24162,-1.40927 -1.38947,-0.9395 -1.82558,-2.1726 -1.30834,-3.69931 0.50218,-1.48102 1.76072,-2.73696 3.77558,-3.76782 2.01487,-1.03084 4.21943,-1.54626 6.6137,-1.54627 2.16652,10e-6 3.78218,0.50728 4.84696,1.5218 1.06475,1.01455 1.45563,2.41892 1.17263,4.21311 z m -4.23427,-1.6735 c 0.50217,-1.48102 -0.18361,-2.22154 -2.05737,-2.22155 -0.82629,10e-6 -1.58944,0.21205 -2.28944,0.63613 -0.70003,0.42409 -1.1574,0.95257 -1.37209,1.58542 z"
           inkscape:connector-curvature="0" />
        <path
           id="path3081"
           style="font-size:40px;font-style:italic;font-variant:normal;font-weight:normal;font-stretch:normal;line-height:125%;letter-spacing:0px;word-spacing:0px;fill:#000000;fill-opacity:1;stroke:none;font-family:Wide Latin;-inkscape-font-specification:Wide Latin Italic"
           d="m 249.05879,503.14897 -4.30808,2.23133 -5.51577,5.79364 1.47303,1.55606 -11.12549,0 2.52824,-1.55606 -1.31993,-3.67974 -3.48159,3.67974 1.47303,1.55606 -11.73057,0 3.12966,-2.00624 -1.82436,-5.12815 -2.94789,-2.44664 11.70128,0 -2.97107,2.23133 1.43888,3.7874 3.54625,-4.01249 -1.76032,-2.00624 11.9355,0 -3.29312,2.23133 1.52244,4.0027 3.63042,-4.0027 -1.57672,-2.23133 z"
           inkscape:connector-curvature="0" />
        <path
           id="path3083"
           style="font-size:40px;font-style:italic;font-variant:normal;font-weight:normal;font-stretch:normal;line-height:125%;letter-spacing:0px;word-spacing:0px;fill:#000000;fill-opacity:1;stroke:none;font-family:Wide Latin;-inkscape-font-specification:Wide Latin Italic"
           d="m 262.96626,508.56093 -10.58873,0 c -0.58352,1.72243 0.68293,2.58365 3.79938,2.58365 2.95377,0 5.08595,-0.5611 6.39655,-1.68329 0.0264,0.2675 0.0109,0.48607 -0.0464,0.6557 -0.32086,0.94604 -1.24971,1.70449 -2.78656,2.27537 -1.53689,0.57089 -3.41462,0.85633 -5.6332,0.85633 -2.77162,0 -4.85215,-0.46976 -6.24161,-1.40927 -1.38947,-0.9395 -1.82558,-2.1726 -1.30835,-3.69931 0.50219,-1.48102 1.76072,-2.73696 3.77559,-3.76782 2.01486,-1.03084 4.21943,-1.54626 6.61369,-1.54627 2.16653,10e-6 3.78219,0.50728 4.84697,1.5218 1.06475,1.01455 1.45563,2.41892 1.17263,4.21311 z m -4.23427,-1.6735 c 0.50218,-1.48102 -0.18361,-2.22154 -2.05736,-2.22155 -0.82629,10e-6 -1.58944,0.21205 -2.28945,0.63613 -0.70003,0.42409 -1.15739,0.95257 -1.37208,1.58542 z"
           inkscape:connector-curvature="0" />
        <path
           id="path3085"
           style="font-size:40px;font-style:italic;font-variant:normal;font-weight:normal;font-stretch:normal;line-height:125%;letter-spacing:0px;word-spacing:0px;fill:#000000;fill-opacity:1;stroke:none;font-family:Wide Latin;-inkscape-font-specification:Wide Latin Italic"
           d="m 264.9486,503.37406 9.17853,-0.2153 -0.97836,2.88703 c 1.81682,-1.92468 3.71092,-2.88702 5.68229,-2.88703 1.32723,1e-5 2.3242,0.25935 2.99089,0.77803 0.66666,0.51869 0.86194,1.18581 0.58586,2.00134 -0.49774,1.46799 -1.80059,2.20198 -3.90856,2.20198 -0.55303,0 -1.24004,-0.075 -2.06102,-0.22509 0.53918,-0.53499 0.86733,-0.97539 0.98446,-1.32118 0.27853,-0.82207 -0.0409,-1.2331 -0.95823,-1.23311 -0.80678,1e-5 -1.59605,0.32786 -2.36783,0.98355 -0.7718,0.6557 -1.32035,1.46309 -1.64564,2.42217 l -0.51419,1.51691 3.61151,2.44664 -13.78975,0 4.62525,-2.44664 1.50902,-4.45288 z"
           inkscape:connector-curvature="0" />
        <path
           id="path3087"
           style="font-size:40px;font-style:italic;font-variant:normal;font-weight:normal;font-stretch:normal;line-height:125%;letter-spacing:0px;word-spacing:0px;fill:#000000;fill-opacity:1;stroke:none;font-family:Wide Latin;-inkscape-font-specification:Wide Latin Italic"
           d="m 305.46697,503.14897 -4.43678,2.43685 -7.59814,8.42622 c -1.04222,1.15481 -2.12599,1.97199 -3.25134,2.45153 -1.12537,0.47954 -2.52083,0.7193 -4.18639,0.71931 -1.48341,-10e-6 -2.6417,-0.2251 -3.47489,-0.67528 -0.83319,-0.45018 -1.13369,-1.0178 -0.90151,-1.70285 0.17485,-0.51543 0.70053,-0.97702 1.57703,-1.3848 0.87649,-0.40777 1.77993,-0.61166 2.71032,-0.61166 0.37734,0 0.89438,0.049 1.55109,0.1468 -0.36353,0.51543 -0.59267,0.91341 -0.68741,1.19396 -0.24114,0.71115 -0.0201,1.06673 0.66302,1.06673 0.62458,0 1.16642,-0.27402 1.62552,-0.82207 l 0.92773,-1.09609 -4.59231,-7.70201 -3.61152,-2.44664 13.32131,0 -3.15588,2.1139 1.9921,3.76782 3.42364,-3.65039 -1.90853,-2.23133 z"
           inkscape:connector-curvature="0" />
        <path
           id="path3052"
           style="font-size:31.77867507999999900px;font-style:normal;font-variant:normal;font-weight:normal;font-stretch:normal;line-height:125%;letter-spacing:0px;word-spacing:0px;fill:#000000;fill-opacity:1;stroke:none;font-family:Goudy Stout;-inkscape-font-specification:Goudy Stout"
           d="m 241.27719,199.06833 c -4e-5,0.34139 -0.36727,0.66208 -1.1017,0.96205 -0.50693,0.20691 -1.01899,0.41381 -1.53618,0.62068 -0.43451,0.28967 -1.01898,0.98793 -1.75341,2.09478 -1.14829,1.68619 -2.30171,3.36719 -3.46028,5.043 -1.36552,2.01722 -2.44136,3.74477 -3.22752,5.18266 -0.0311,0.34138 -0.088,1.16895 -0.17069,2.48271 -0.0517,0.85861 -0.0776,1.6448 -0.0776,2.35857 -3e-5,0.44482 0.0207,0.75516 0.0621,0.93102 0.1241,0.50689 0.7034,0.86895 1.73789,1.08618 0.92064,0.16552 1.84649,0.33103 2.77753,0.49655 0.96202,0.26896 1.44304,0.72929 1.44308,1.381 -4e-5,0.18621 -0.16038,0.34655 -0.48103,0.48103 -0.25864,0.11379 -0.49657,0.17068 -0.71378,0.17068 -0.3414,0 -0.80173,-0.0259 -1.381,-0.0776 -0.68278,-0.0621 -1.13794,-0.0983 -1.36549,-0.10862 -4.06546,-0.1862 -7.23091,-0.2793 -9.49637,-0.2793 -1.83101,0 -3.7189,0.0776 -5.66368,0.23275 -2.06893,0.16551 -3.20167,0.24827 -3.3982,0.24827 -0.74482,0 -1.11723,-0.34654 -1.11722,-1.03963 -1e-5,-0.52758 0.49136,-0.8793 1.47411,-1.05516 0.92066,-0.14482 1.84133,-0.28964 2.76201,-0.43447 0.98273,-0.25861 1.47409,-0.74998 1.47411,-1.47411 -2e-5,-0.39309 -0.008,-0.99566 -0.0233,-1.80772 -0.0155,-0.81205 -0.0233,-1.41462 -0.0233,-1.80772 -2e-5,-0.83791 -0.0104,-1.42238 -0.031,-1.75342 -0.0104,-0.17585 -0.82241,-1.83098 -2.43615,-4.96541 -1.53102,-2.99993 -2.48789,-4.82575 -2.87064,-5.47748 -0.5793,-1.00341 -1.18446,-1.59822 -1.81548,-1.78445 -0.65172,-0.11377 -1.29825,-0.23273 -1.93961,-0.35689 -0.81723,-0.20687 -1.22585,-0.62065 -1.22584,-1.24135 -1e-5,-0.19653 0.13706,-0.39049 0.4112,-0.58189 0.27412,-0.19135 0.50946,-0.28704 0.70602,-0.28706 0.69308,2e-5 1.7353,0.0414 3.12666,0.12414 1.39134,0.0828 2.43356,0.12415 3.12666,0.12413 0.75515,2e-5 1.88529,-0.008 3.39045,-0.0233 1.50513,-0.0155 2.63528,-0.0233 3.39045,-0.0233 0.57928,2e-5 1.44564,-0.031 2.59909,-0.0931 1.1534,-0.062 2.01976,-0.0931 2.59908,-0.0931 0.98272,2e-5 1.47409,0.30519 1.47411,0.9155 -2e-5,0.52759 -0.66208,0.94655 -1.98617,1.25687 -0.52759,0.12415 -0.79138,0.24829 -0.79136,0.3724 -2e-5,0.0414 0.11894,0.33105 0.35689,0.86895 1.89304,4.29304 3.03612,6.43954 3.42924,6.43953 0.7241,1e-5 1.46891,-0.96721 2.23444,-2.90167 0.68272,-1.70684 1.02409,-3.01544 1.02412,-3.92578 -3e-5,-0.64135 -0.49399,-1.01375 -1.48187,-1.11722 -0.98794,-0.10343 -1.48189,-0.41376 -1.48187,-0.93102 -2e-5,-0.631 0.52755,-0.94651 1.58273,-0.94653 0.39307,2e-5 0.98012,0.0207 1.76117,0.0621 0.78099,0.0414 1.36805,0.0621 1.76117,0.0621 1.23098,2e-5 2.24475,-0.0207 3.04132,-0.0621 1.38614,-0.0724 2.06889,-0.1086 2.04824,-0.10862 0.83787,2e-5 1.25683,0.25347 1.25687,0.76033 z"
           transform="scale(0.45440205,2.2006943)" />
        <path
           id="path3054"
           style="font-size:31.77867507999999900px;font-style:normal;font-variant:normal;font-weight:normal;font-stretch:normal;line-height:125%;letter-spacing:0px;word-spacing:0px;fill:#000000;fill-opacity:1;stroke:none;font-family:Goudy Stout;-inkscape-font-specification:Goudy Stout"
           d="m 279.21609,213.62321 c -4e-5,1.23102 -0.119,2.50858 -0.35689,3.83268 -0.269,1.26205 -0.53796,2.52409 -0.80688,3.78613 -0.11383,0.56896 -0.9776,0.85344 -2.59133,0.85344 -0.87932,0 -2.57325,-0.031 -5.0818,-0.0931 -2.50859,-0.0621 -4.20252,-0.0931 -5.08179,-0.0931 -5.25508,0 -9.51189,0.0776 -12.77044,0.23276 l -3.47579,0.15517 c -0.23793,0 -0.46034,-0.1138 -0.66723,-0.34138 -0.1862,-0.19654 -0.27413,-0.38792 -0.26378,-0.57412 0.0103,-0.42413 0.23275,-0.70344 0.66722,-0.83792 0.20689,-0.0724 0.61033,-0.11896 1.21032,-0.13965 0.41378,0 1.11205,-0.0155 2.09479,-0.0465 1.51031,-0.0517 2.2396,-0.80171 2.18789,-2.24996 -0.0207,-0.47584 -0.10346,-1.79995 -0.24827,-3.97233 -0.12415,-1.72754 -0.18622,-3.34647 -0.18621,-4.8568 -1e-5,-0.0207 0.0388,-1.09652 0.11638,-3.22752 0.0776,-2.13098 0.11637,-3.34129 0.11638,-3.63096 -1e-5,-0.77583 -0.4138,-1.39133 -1.24136,-1.84652 -0.27931,-0.15515 -1.31377,-0.331 -3.10338,-0.52757 -1.44825,-0.17584 -2.17238,-0.49135 -2.17237,-0.94654 -1e-5,-0.58962 0.28447,-0.88444 0.85343,-0.88446 -0.23793,2e-5 1.00342,0.0517 3.72406,0.15517 2.762,0.10347 5.68436,0.15519 8.76707,0.15517 4.32403,2e-5 7.57482,-0.0543 9.75239,-0.16293 2.17751,-0.1086 4.13006,-0.1629 5.85764,-0.16293 0.73444,3e-5 1.19477,0.47588 1.38101,1.42756 0.0517,0.27933 0.0775,1.02414 0.0776,2.23444 -3e-5,0.92069 -0.17072,2.13101 -0.51206,3.63096 -0.14485,0.63104 -0.45519,0.97241 -0.93101,1.02412 -0.21727,0.0207 -0.42158,-0.0543 -0.61292,-0.225 -0.19141,-0.17067 -0.29227,-0.40601 -0.30258,-0.70602 -0.0104,-0.39308 -0.0725,-0.71893 -0.18621,-0.97757 -0.58967,-1.35512 -1.7224,-2.36372 -3.3982,-3.0258 -1.30345,-0.52755 -2.73618,-0.79134 -4.29819,-0.79136 -0.18623,2e-5 -0.35174,0.0802 -0.49655,0.24051 -0.14484,0.16036 -0.21725,0.31812 -0.21723,0.47327 -2e-5,0.61035 0.0155,1.28792 0.0465,2.03272 0.062,1.48964 0.0931,2.60686 0.0931,3.35165 -2e-5,0.66207 0.35687,0.9931 1.07067,0.99309 0.0827,1e-5 0.4629,-0.0414 1.14049,-0.12414 0.67755,-0.0827 1.05772,-0.12412 1.1405,-0.12413 1.0034,1e-5 1.90855,0.13449 2.71546,0.40344 0.59996,0.19656 0.9103,0.8793 0.93102,2.04823 0.0207,0.74482 -0.19141,2.03273 -0.6362,3.86372 -0.18623,0.78619 -0.48105,1.17929 -0.88446,1.17928 -0.42416,10e-6 -0.64657,-0.18102 -0.66723,-0.54309 -0.0104,-0.10344 -0.005,-0.26895 0.0155,-0.49654 0.0103,-0.26895 0.0155,-0.45516 0.0155,-0.55861 -2e-5,-0.75515 -0.3776,-1.55686 -1.13273,-2.40512 -0.85863,-0.96204 -1.84654,-1.44307 -2.96374,-1.44308 -0.15519,1e-5 -0.35691,0.13966 -0.60516,0.41896 -0.0104,1.18964 -0.0905,3.0077 -0.24051,5.4542 -0.15002,2.44651 -0.22502,3.62321 -0.225,3.5301 -2e-5,0.49654 0.22239,0.74482 0.66723,0.74481 1.60339,1e-5 3.62059,-0.82239 6.05161,-2.46719 1.64476,-1.11721 2.82922,-2.12581 3.55337,-3.0258 0.20686,-0.25861 0.36979,-0.62584 0.48879,-1.1017 0.11893,-0.47585 0.37496,-0.71377 0.76808,-0.71378 0.27928,1e-5 0.50168,0.15518 0.66723,0.46551 0.1241,0.22759 0.18617,0.43965 0.18621,0.63619 z"
           transform="scale(0.45440205,2.2006943)" />
        <path
           id="path3056"
           style="font-size:31.77867507999999900px;font-style:normal;font-variant:normal;font-weight:normal;font-stretch:normal;line-height:125%;letter-spacing:0px;word-spacing:0px;fill:#000000;fill-opacity:1;stroke:none;font-family:Goudy Stout;-inkscape-font-specification:Goudy Stout"
           d="m 318.30323,213.60769 c -3e-5,0.2069 -0.14486,1.24654 -0.43447,3.11891 -0.32072,2.09996 -0.60002,3.64648 -0.83791,4.63956 -0.0414,0.16551 -0.18107,0.30517 -0.41896,0.41896 -0.23796,0.11379 -0.43968,0.17068 -0.60516,0.17068 -1.26208,0 -3.15255,-0.008 -5.67144,-0.0233 -2.51894,-0.0155 -4.40942,-0.0233 -5.67144,-0.0233 -4.21028,0 -7.71193,0.0259 -10.50496,0.0776 -0.58965,0.0103 -1.56205,0.0517 -2.91718,0.12413 -1.22068,0.0724 -2.18272,0.10862 -2.88615,0.10862 -0.27931,0 -0.57931,-0.0672 -0.89998,-0.20172 -0.40345,-0.16551 -0.60517,-0.37758 -0.60517,-0.63619 0,-0.52758 0.1862,-0.86895 0.55861,-1.02412 0.0104,0 0.34654,-0.0517 1.00861,-0.15517 0.50688,-0.0103 1.39134,-0.0828 2.65339,-0.21724 1.38617,-0.22758 2.06374,-0.77584 2.03272,-1.64479 -0.0724,-1.24135 -0.16553,-3.37751 -0.27931,-6.40849 -0.031,-1.14825 -1e-5,-2.88097 0.0931,-5.19818 0.0931,-2.58613 0.13964,-4.32403 0.13965,-5.21369 -10e-6,-0.36204 -0.18622,-0.68789 -0.55861,-0.97756 -0.3,-0.23791 -0.54828,-0.35687 -0.74481,-0.35689 -1.65515,2e-5 -2.77754,-0.0465 -3.36718,-0.13965 -0.3,-0.0414 -0.60516,-0.0879 -0.9155,-0.13966 -0.27931,-0.12411 -0.41896,-0.44479 -0.41895,-0.96205 -1e-5,-0.19652 0.13964,-0.37238 0.41895,-0.52757 0.32068,-0.17584 0.72929,-0.26377 1.22584,-0.26379 0.9517,2e-5 2.86028,0.0724 5.72575,0.21724 2.59648,0.1345 4.31886,0.18622 5.16714,0.15517 3.87921,-0.15515 6.44467,-0.23273 7.69639,-0.23276 0.0827,3e-5 0.73962,-0.0129 1.97065,-0.0388 1.23099,-0.0258 1.88787,-0.0388 1.97065,-0.0388 0.70341,2e-5 1.05513,0.26381 1.05516,0.79136 -3e-5,0.74484 -0.73967,1.11724 -2.21893,1.11722 -0.0724,2e-5 -0.54311,0.0595 -1.41204,0.17845 -0.86897,0.11898 -1.34999,0.17846 -1.44307,0.17844 -0.93104,2e-5 -1.37069,0.28967 -1.31894,0.86895 0.17584,2.08963 0.26376,5.04302 0.26379,8.86017 -3e-5,1.32412 -0.0776,3.0646 -0.23276,5.22144 -0.15519,2.15686 -0.23277,3.26632 -0.23275,3.32839 -2e-5,0.44482 0.22239,0.68791 0.66723,0.72929 0.1448,0.0104 0.2948,0.0155 0.44999,0.0155 1.11719,0 2.19303,-0.25862 3.22752,-0.77585 0.95168,-0.47585 2.27062,-1.34997 3.95682,-2.62236 0.40341,-0.28964 0.80167,-0.58446 1.1948,-0.88447 0.31031,-0.27929 0.58961,-0.7448 0.83792,-1.39652 0.36202,-0.9517 0.70857,-1.42755 1.03963,-1.42756 0.82754,1e-5 1.24132,0.40345 1.24135,1.21032 z"
           transform="scale(0.45440205,2.2006943)" />
        <path
           id="path3058"
           style="font-size:31.77867507999999900px;font-style:normal;font-variant:normal;font-weight:normal;font-stretch:normal;line-height:125%;letter-spacing:0px;word-spacing:0px;fill:#000000;fill-opacity:1;stroke:none;font-family:Goudy Stout;-inkscape-font-specification:Goudy Stout"
           d="m 355.91628,213.60769 c -4e-5,0.2069 -0.14486,1.24654 -0.43447,3.11891 -0.32072,2.09996 -0.60003,3.64648 -0.83792,4.63956 -0.0414,0.16551 -0.18106,0.30517 -0.41896,0.41896 -0.23796,0.11379 -0.43968,0.17068 -0.60516,0.17068 -1.26207,0 -3.15255,-0.008 -5.67143,-0.0233 -2.51894,-0.0155 -4.40942,-0.0233 -5.67144,-0.0233 -4.21028,0 -7.71193,0.0259 -10.50497,0.0776 -0.58965,0.0103 -1.56204,0.0517 -2.91718,0.12413 -1.22067,0.0724 -2.18272,0.10862 -2.88615,0.10862 -0.27931,0 -0.5793,-0.0672 -0.89998,-0.20172 -0.40344,-0.16551 -0.60516,-0.37758 -0.60516,-0.63619 0,-0.52758 0.1862,-0.86895 0.55861,-1.02412 0.0103,0 0.34654,-0.0517 1.0086,-0.15517 0.50688,-0.0103 1.39134,-0.0828 2.65339,-0.21724 1.38618,-0.22758 2.06375,-0.77584 2.03272,-1.64479 -0.0724,-1.24135 -0.16552,-3.37751 -0.2793,-6.40849 -0.031,-1.14825 -10e-6,-2.88097 0.0931,-5.19818 0.0931,-2.58613 0.13964,-4.32403 0.13965,-5.21369 -1e-5,-0.36204 -0.18621,-0.68789 -0.55861,-0.97756 -0.3,-0.23791 -0.54827,-0.35687 -0.74481,-0.35689 -1.65515,2e-5 -2.77754,-0.0465 -3.36717,-0.13965 -0.3,-0.0414 -0.60517,-0.0879 -0.9155,-0.13966 -0.27931,-0.12411 -0.41896,-0.44479 -0.41896,-0.96205 0,-0.19652 0.13965,-0.37238 0.41896,-0.52757 0.32068,-0.17584 0.72929,-0.26377 1.22583,-0.26379 0.9517,2e-5 2.86028,0.0724 5.72575,0.21724 2.59649,0.1345 4.31887,0.18622 5.16714,0.15517 3.87921,-0.15515 6.44468,-0.23273 7.6964,-0.23276 0.0827,3e-5 0.73961,-0.0129 1.97065,-0.0388 1.23098,-0.0258 1.88786,-0.0388 1.97065,-0.0388 0.7034,2e-5 1.05512,0.26381 1.05515,0.79136 -3e-5,0.74484 -0.73967,1.11724 -2.21892,1.11722 -0.0724,2e-5 -0.54312,0.0595 -1.41204,0.17845 -0.86897,0.11898 -1.35,0.17846 -1.44308,0.17844 -0.93104,2e-5 -1.37068,0.28967 -1.31894,0.86895 0.17584,2.08963 0.26377,5.04302 0.26379,8.86017 -2e-5,1.32412 -0.0776,3.0646 -0.23275,5.22144 -0.15519,2.15686 -0.23278,3.26632 -0.23276,3.32839 -2e-5,0.44482 0.22239,0.68791 0.66723,0.72929 0.1448,0.0104 0.2948,0.0155 0.44999,0.0155 1.1172,0 2.19304,-0.25862 3.22752,-0.77585 0.95168,-0.47585 2.27062,-1.34997 3.95682,-2.62236 0.40341,-0.28964 0.80168,-0.58446 1.19481,-0.88447 0.3103,-0.27929 0.58961,-0.7448 0.83791,-1.39652 0.36203,-0.9517 0.70857,-1.42755 1.03963,-1.42756 0.82754,1e-5 1.24132,0.40345 1.24136,1.21032 z"
           transform="scale(0.45440205,2.2006943)" />
        <path
           id="path3060"
           style="font-size:31.77867507999999900px;font-style:normal;font-variant:normal;font-weight:normal;font-stretch:normal;line-height:125%;letter-spacing:0px;word-spacing:0px;fill:#000000;fill-opacity:1;stroke:none;font-family:Goudy Stout;-inkscape-font-specification:Goudy Stout"
           d="m 393.5138,210.41121 c -4e-5,4.46888 -1.86207,7.73778 -5.5861,9.8067 -2.92755,1.63445 -6.81712,2.45167 -11.66873,2.45167 -4.15855,0 -7.57744,-1.07584 -10.25669,-3.22752 -2.90684,-2.33788 -4.36026,-5.53436 -4.36026,-9.58946 0,-4.11715 1.67583,-7.20501 5.02749,-9.26361 2.78269,-1.70684 6.36193,-2.56027 10.73771,-2.56029 4.53093,2e-5 8.21361,0.90517 11.04806,2.71546 3.37231,2.16204 5.05848,5.38439 5.05852,9.66705 z m -15.59452,-10.00842 c -1.00344,2e-5 -1.77412,1.2724 -2.31202,3.81716 -0.37242,1.7586 -0.55863,3.45512 -0.55861,5.08955 -2e-5,2.19307 0.16033,4.31889 0.48103,6.37746 0.49652,3.18615 1.26202,4.77922 2.2965,4.77922 1.98615,0 2.97923,-3.20166 2.97925,-9.60498 -2e-5,-6.97226 -0.96207,-10.45839 -2.88615,-10.45841 z"
           transform="scale(0.45440205,2.2006943)" />
        <path
           id="path3062"
           style="font-size:31.77867507999999900px;font-style:normal;font-variant:normal;font-weight:normal;font-stretch:normal;line-height:125%;letter-spacing:0px;word-spacing:0px;fill:#000000;fill-opacity:1;stroke:none;font-family:Goudy Stout;-inkscape-font-specification:Goudy Stout"
           d="m 449.65406,198.69592 c -6e-5,0.23795 -0.32074,0.56898 -0.96205,0.99309 -0.75521,0.51725 -1.19486,0.85862 -1.31894,1.02411 -0.39315,0.54829 -0.79659,1.38103 -1.21032,2.49823 -0.56901,1.53102 -0.90521,2.41031 -1.0086,2.63788 -0.94141,2.04825 -2.90689,5.20853 -5.89644,9.48084 -3.46548,4.97577 -5.75682,7.46365 -6.874,7.46365 -0.41382,0 -1.69138,-1.65514 -3.83268,-4.96542 -2.27585,-3.52751 -3.56892,-5.41023 -3.87923,-5.64816 -1.60344,1.94479 -3.20169,3.88958 -4.79474,5.83436 -2.73099,3.27925 -4.49992,4.91887 -5.30679,4.91887 -0.33104,0 -1.61894,-1.98617 -3.86371,-5.9585 -1.56205,-2.76201 -3.16547,-6.20159 -4.81025,-10.31876 -0.0207,-0.062 -0.33621,-1.04996 -0.94653,-2.96374 -0.45517,-1.45857 -0.81723,-2.33269 -1.08619,-2.62236 -0.26896,-0.28962 -0.9155,-0.61548 -1.93961,-0.97756 -0.79654,-0.28963 -1.19481,-0.66204 -1.19481,-1.11722 0,-0.57928 0.31034,-0.86893 0.93102,-0.86895 0.67239,2e-5 1.63444,0.0569 2.88615,0.17069 1.33444,0.11381 2.30167,0.17588 2.90166,0.1862 l 4.45336,0.0776 c 0.35171,0.0104 0.8379,-0.0155 1.45859,-0.0776 0.69308,-0.0517 1.18445,-0.0827 1.47411,-0.0931 0.50687,-0.0103 1.28272,-0.12929 2.32754,-0.35689 1.01375,-0.22756 1.77926,-0.34135 2.29651,-0.34137 0.25859,2e-5 0.49135,0.0905 0.69826,0.27154 0.20687,0.18106 0.31032,0.39571 0.31034,0.64395 -2e-5,0.49657 -0.4707,0.91553 -1.41204,1.25688 -0.70346,0.18622 -1.41206,0.37242 -2.12582,0.55861 0.21722,0.78621 0.62066,1.1793 1.21032,1.17928 0.12411,2e-5 0.92582,-0.0982 2.40512,-0.29482 3.03095,-0.40342 5.4309,-0.77582 7.19986,-1.11722 1.64476,-0.32066 3.88954,-0.90513 6.73435,-1.75341 0.61029,-0.22756 1.21545,-0.44997 1.81548,-0.66723 0.78615,-0.28962 1.39648,-0.43445 1.831,-0.43447 0.4034,2e-5 0.60512,0.36208 0.60516,1.08618 -4e-5,0.55863 -0.34659,0.99828 -1.03964,1.31894 -0.0104,0.0104 -0.65175,0.2276 -1.9241,0.65171 -0.69312,0.2276 -1.03967,0.50174 -1.03963,0.8224 -4e-5,0.84828 0.5896,2.581 1.76893,5.19817 1.25166,2.75168 2.18784,4.12752 2.80856,4.1275 0.62064,2e-5 1.41717,-1.12237 2.38961,-3.36717 0.89994,-2.07925 1.34993,-3.5275 1.34997,-4.34474 -4e-5,-0.66204 -0.12935,-1.10168 -0.38792,-1.31894 -0.22763,-0.18618 -0.67244,-0.27928 -1.33446,-0.2793 -0.0828,2e-5 -0.20435,0.0155 -0.36464,0.0466 -0.16039,0.031 -0.28194,0.0466 -0.36465,0.0465 -0.88968,2e-5 -1.3345,-0.32584 -1.33446,-0.97757 -4e-5,-0.46549 0.78098,-0.84824 2.34306,-1.14825 1.00338,-0.1448 2.00164,-0.2948 2.99477,-0.44999 0.21719,-0.0517 0.93614,-0.27928 2.15685,-0.68275 1.10682,-0.36204 1.72233,-0.54307 1.84651,-0.54309 0.70339,2e-5 1.0551,0.39829 1.05516,1.1948 z m -25.99086,10.25669 c -3e-5,-0.12412 -0.24313,-0.84824 -0.7293,-2.17237 -0.49657,-1.36547 -0.76553,-2.27579 -0.80688,-2.73098 -0.39312,-0.27928 -1.17414,-0.41893 -2.34306,-0.41895 -0.83793,2e-5 -1.35516,0.12415 -1.55169,0.3724 0.61031,1.28275 1.21547,2.56031 1.81548,3.83269 1.04478,2.0379 1.76891,3.05684 2.17237,3.05683 0.24825,10e-6 0.55083,-0.2586 0.90774,-0.77585 0.35687,-0.51721 0.53531,-0.90514 0.53534,-1.16377 z"
           transform="scale(0.45440205,2.2006943)" />
        <g
           id="text3121"
           style="font-size:76.31557465px;font-style:normal;font-variant:normal;font-weight:normal;font-stretch:normal;line-height:125%;letter-spacing:0px;word-spacing:0px;fill:#000000;fill-opacity:1;stroke:none;font-family:Goudy Stout;-inkscape-font-specification:Goudy Stout"
           transform="scale(0.52413937,1.9078895)">
          <path
             id="path3043"
             style="font-size:38.15778732px"
             d="m 492.69496,255.7496 c -6e-5,0.55895 -0.61491,0.83842 -1.84454,0.83842 -1.16765,0 -2.92834,-0.0497 -5.2821,-0.14905 -2.35386,-0.0994 -4.12076,-0.14905 -5.30072,-0.14905 -0.75774,0 -1.47196,0.0124 -2.14265,0.0373 -3.13018,0.0497 -7.83779,0.16148 -14.12286,0.33537 -0.24845,0.0124 -0.50308,-0.0497 -0.7639,-0.18632 -0.31056,-0.14905 -0.46582,-0.34158 -0.46579,-0.57758 -3e-5,-0.59621 0.29187,-0.99369 0.87569,-1.19243 0.18629,-0.0621 0.73282,-0.14905 1.63959,-0.26084 0.18629,-0.0248 1.14893,-0.12421 2.88792,-0.29811 0.34776,-0.0373 0.70176,-0.1739 1.06201,-0.4099 0.45955,-0.29811 0.68934,-0.65832 0.68937,-1.08064 -3e-5,-0.77011 -0.26088,-2.89412 -0.78253,-6.37205 -0.19877,-1.30421 -0.36646,-1.95632 -0.50305,-1.95634 -0.24846,2e-5 -1.94395,2.09298 -5.08647,6.2789 -3.14258,4.18593 -4.92501,6.27889 -5.3473,6.27889 -0.5093,0 -2.55879,-1.99049 -6.14848,-5.97147 -3.58973,-3.98097 -5.61437,-5.97146 -6.07394,-5.97147 -0.44718,1e-5 -0.67076,0.29191 -0.67074,0.87569 -2e-5,2.12403 0.54651,3.94994 1.63959,5.47773 1.16757,1.6396 2.75748,2.6395 4.76972,2.99971 1.05578,0.18632 1.58368,0.61485 1.5837,1.28559 -2e-5,0.63348 -0.57139,0.95022 -1.71412,0.95022 -0.81982,0 -2.05261,-0.0404 -3.6984,-0.12111 -1.64582,-0.0807 -2.87861,-0.1211 -3.6984,-0.1211 -0.7577,0 -1.95323,0.10558 -3.58661,0.31674 -1.63339,0.21116 -2.82271,0.31674 -3.56797,0.31674 -1.08065,0 -1.62097,-0.33538 -1.62096,-1.00612 -10e-6,-0.55895 0.5341,-0.96264 1.60233,-1.21106 0.98126,-0.17389 2.17369,-0.45958 3.57729,-0.85706 0.68315,-0.38505 1.21105,-2.75749 1.5837,-7.11732 0.24841,-2.96865 0.37262,-5.69509 0.37263,-8.17933 -10e-6,-5.30381 -1.12412,-7.95573 -3.37234,-7.95575 -0.32296,2e-5 -0.78565,-0.0217 -1.38807,-0.0652 -0.60243,-0.0435 -1.06512,-0.0652 -1.38806,-0.0652 -0.26085,2e-5 -0.57138,-0.12419 -0.93159,-0.37264 -0.36022,-0.24839 -0.54032,-0.49682 -0.54032,-0.74527 0,-0.89429 0.62106,-1.37872 1.86318,-1.45327 0.95642,-0.0621 2.26685,-0.0559 3.93129,0.0186 2.0619,0.0994 3.39096,0.14908 3.98719,0.14905 0.54652,3e-5 1.36631,-0.0186 2.45939,-0.0559 1.09304,-0.0372 1.91284,-0.0559 2.45939,-0.0559 0.38504,3e-5 0.67693,0.006 0.87569,0.0186 1.10546,0.0746 2.85063,1.41604 5.23552,4.02446 1.54019,1.6893 3.50273,4.099 5.88762,7.22911 1.96251,2.58362 2.98105,3.87541 3.05561,3.8754 0.31049,1e-5 1.04334,-0.76389 2.19854,-2.2917 0.67071,-0.94399 1.34145,-1.88179 2.01223,-2.81339 0.14902,-0.19872 2.09914,-2.72643 5.85036,-7.58312 1.21723,-1.57746 2.41587,-2.3662 3.59593,-2.36623 0.53406,3e-5 1.33522,0.0156 2.40349,0.0466 1.06817,0.0311 1.86933,0.0466 2.40349,0.0466 0.84459,3e-5 2.10844,-0.0528 3.79156,-0.15837 1.68301,-0.10555 2.94686,-0.15834 3.79156,-0.15837 0.26078,3e-5 0.54026,0.087 0.83843,0.26084 0.34773,0.19877 0.52163,0.41614 0.52169,0.65212 -6e-5,0.84466 -0.40375,1.32909 -1.21107,1.45327 -1.26701,0.0621 -2.53397,0.12424 -3.80087,0.18632 -1.49059,0.13666 -2.1986,0.78256 -2.12402,1.9377 0.47195,7.6266 0.70795,11.83116 0.70801,12.61368 -6e-5,0.72044 -0.0622,1.96876 -0.18632,3.74498 -0.0994,1.50296 -0.12426,2.74508 -0.0745,3.72634 0.0372,0.73286 0.73901,1.26697 2.10539,1.60233 0.149,0.0373 1.41595,0.2298 3.80087,0.57759 0.54647,0.0745 0.88806,0.16147 1.02475,0.26084 0.23594,0.14906 0.35394,0.45338 0.354,0.91296 z" />
          <path
             id="path3045"
             style="font-size:38.15778732px"
             d="m 544.17444,228.19326 c 0.0496,0.79499 -0.31058,1.34152 -1.08064,1.6396 -0.70805,0.17392 -1.41606,0.34161 -2.12402,0.50305 -1.031,0.29814 -1.74521,0.75772 -2.14265,1.37875 -0.27331,0.44719 -0.50931,1.2794 -0.708,2.49665 -0.11184,0.69561 -0.16773,2.22341 -0.16769,4.58341 -4e-5,4.83184 -1.18005,8.96187 -3.54003,12.3901 -2.67058,3.88783 -6.30998,5.83173 -10.91819,5.83173 -5.35354,0 -9.6761,-1.19864 -12.96769,-3.59592 -3.67667,-2.67054 -5.63921,-6.60183 -5.88763,-11.79389 -0.0249,-0.52167 -0.0373,-1.05578 -0.0373,-1.60233 -10e-6,-0.79493 0.0497,-1.98115 0.14905,-3.55866 0.0994,-1.57746 0.14905,-2.75747 0.14906,-3.54003 -1e-5,-0.91914 -0.49065,-1.54019 -1.47191,-1.86317 -0.37264,-0.12418 -1.36633,-0.26082 -2.98108,-0.4099 -1.1179,-0.11176 -1.84454,-0.2546 -2.17991,-0.42853 -0.37263,-0.21113 -0.55895,-0.62103 -0.55895,-1.22969 0,-0.69556 0.60863,-1.04335 1.82591,-1.04338 1.27937,3e-5 3.20776,0.0435 5.78515,0.13042 2.57738,0.087 4.51197,0.13045 5.80379,0.13043 0.43472,2e-5 1.97494,-0.0124 4.62067,-0.0373 1.87557,-0.0124 3.41579,-0.006 4.62067,0.0186 0.45955,0.0125 1.11166,3e-5 1.95633,-0.0373 0.90672,-0.0372 1.55261,-0.0559 1.9377,-0.0559 1.09303,2e-5 1.63956,0.29192 1.63959,0.87569 -3e-5,0.52171 -0.31056,0.93782 -0.93159,1.24832 -0.49687,0.23603 -1.0434,0.36024 -1.63959,0.37264 -1.80109,0.0249 -2.70162,0.67698 -2.7016,1.95633 -2e-5,0.78256 0.0528,1.95325 0.15837,3.51208 0.10555,1.55888 0.15834,2.72957 0.15837,3.51208 -3e-5,0.50929 0.0155,1.2794 0.0466,2.31034 0.031,1.03097 0.0466,1.80108 0.0466,2.31033 -3e-5,1.78866 0.50303,3.40962 1.50917,4.86288 1.11787,1.61476 2.51525,2.42213 4.19214,2.42213 2.33514,0 4.18589,-1.18621 5.55225,-3.55866 1.15513,-1.98738 1.73272,-4.24802 1.73276,-6.78195 -4e-5,-2.01221 -0.22362,-3.98096 -0.67075,-5.90626 -0.64593,-2.74505 -1.60236,-4.22938 -2.86928,-4.45298 -0.6832,-0.0745 -1.36636,-0.14903 -2.04949,-0.22359 -0.90678,-0.16144 -1.36015,-0.51545 -1.36012,-1.062 -3e-5,-0.96883 0.58376,-1.45325 1.75138,-1.45328 l 7.41543,0.0186 c 0.79491,3e-5 1.9594,-0.0776 3.49345,-0.23289 1.53397,-0.15524 2.68603,-0.23287 3.45619,-0.2329 0.27322,3e-5 0.60238,0.19877 0.98748,0.59621 z" />
          <path
             id="path3047"
             style="font-size:38.15778732px"
             d="m 592.22568,237.28555 c -5e-5,0.43476 -0.18947,0.81671 -0.56827,1.14585 -0.37889,0.32918 -0.77326,0.48755 -1.18312,0.47511 -0.54657,-0.0124 -0.95026,-0.49062 -1.21106,-1.43464 -0.18636,-0.68315 -0.42236,-1.19862 -0.708,-1.54644 -0.18636,-0.23598 -0.677,-0.68935 -1.47191,-1.36011 -1.05584,-0.90672 -2.28553,-1.66131 -3.68908,-2.26376 -1.40363,-0.6024 -2.63332,-0.91603 -3.68909,-0.9409 -0.80741,-0.0248 -1.22351,0.44097 -1.24832,1.39738 0.18628,2.12404 0.35397,5.2728 0.50305,9.44629 -0.0249,1.31665 -0.15529,3.34751 -0.39126,6.09257 -0.18635,2.32277 -0.26088,3.68909 -0.22358,4.09898 0.0869,0.93159 1.04334,1.42223 2.86928,1.47191 0.63345,0.0124 1.96872,0.22358 4.00583,0.63348 1.06817,0.21116 1.60228,0.75769 1.60233,1.63959 -5e-5,0.57138 -0.63974,0.85706 -1.91907,0.85706 -0.12425,0 -0.86331,-0.0373 -2.21718,-0.11179 -1.40363,-0.087 -2.14889,-0.13042 -2.23581,-0.13042 -0.2733,-0.0124 -1.65204,-0.087 -4.13624,-0.22358 -2.23584,-0.13663 -3.6208,-0.19874 -4.15488,-0.18632 -2.13646,0.0497 -5.39701,0.19874 -9.78166,0.44716 -3.93752,0.236 -6.0988,0.3478 -6.48384,0.33537 -0.79496,-0.0248 -1.18623,-0.38505 -1.1738,-1.08064 0.0124,-0.62105 0.60242,-1.04958 1.77002,-1.28559 1.03094,-0.0869 2.49042,-0.25463 4.37845,-0.50305 1.25452,-0.236 1.888,-0.68937 1.90044,-1.36012 0.0124,-0.81979 -0.0683,-2.37243 -0.24221,-4.65793 -0.18634,-2.40969 -0.2795,-4.01202 -0.27948,-4.80699 -2e-5,-1.75137 0.0869,-3.54622 0.26084,-5.38457 0.1863,-2.11157 0.29188,-3.52137 0.31674,-4.2294 0.0372,-1.56504 -0.37886,-2.36 -1.24832,-2.38486 -1.76382,-0.0497 -3.76983,0.44718 -6.01805,1.49053 -1.30423,0.59624 -2.29792,1.31046 -2.98108,2.14265 -0.43475,0.52171 -0.76391,1.3353 -0.98748,2.44076 -0.16148,0.80739 -0.6397,1.20487 -1.43464,1.19243 -0.9937,-0.0124 -1.4657,-0.9502 -1.41602,-2.81339 l 0.0932,-3.89403 c 0.0497,-1.70167 0.37574,-2.77921 0.97817,-3.23261 0.60242,-0.45334 2.08364,-0.68003 4.44367,-0.68006 -0.26086,3e-5 2.09916,0.0497 7.08006,0.14906 4.21075,0.087 8.18551,0.0994 11.9243,0.0373 2.29789,-0.0372 5.75718,-0.11797 10.37788,-0.24221 4.14862,-0.0993 6.24158,-0.14903 6.27889,-0.14905 0.99365,0.0125 1.59607,0.47824 1.80728,1.39738 0.0496,0.21118 0.21111,2.02467 0.48443,5.44046 z" />
          <path
             id="path3049"
             style="font-size:38.15778732px"
             d="m 642.3823,237.28555 c -5e-5,0.43476 -0.18947,0.81671 -0.56827,1.14585 -0.37889,0.32918 -0.77326,0.48755 -1.18311,0.47511 -0.54658,-0.0124 -0.95026,-0.49062 -1.21106,-1.43464 -0.18637,-0.68315 -0.42237,-1.19862 -0.70801,-1.54644 -0.18636,-0.23598 -0.677,-0.68935 -1.47191,-1.36011 -1.05584,-0.90672 -2.28553,-1.66131 -3.68908,-2.26376 -1.40363,-0.6024 -2.63332,-0.91603 -3.68908,-0.9409 -0.80741,-0.0248 -1.22352,0.44097 -1.24833,1.39738 0.18629,2.12404 0.35397,5.2728 0.50306,9.44629 -0.0249,1.31665 -0.1553,3.34751 -0.39127,6.09257 -0.18635,2.32277 -0.26088,3.68909 -0.22358,4.09898 0.0869,0.93159 1.04334,1.42223 2.86929,1.47191 0.63344,0.0124 1.96871,0.22358 4.00582,0.63348 1.06818,0.21116 1.60229,0.75769 1.60233,1.63959 -4e-5,0.57138 -0.63973,0.85706 -1.91907,0.85706 -0.12425,0 -0.86331,-0.0373 -2.21718,-0.11179 -1.40362,-0.087 -2.14889,-0.13042 -2.2358,-0.13042 -0.2733,-0.0124 -1.65205,-0.087 -4.13625,-0.22358 -2.23583,-0.13663 -3.62079,-0.19874 -4.15487,-0.18632 -2.13647,0.0497 -5.39702,0.19874 -9.78166,0.44716 -3.93752,0.236 -6.0988,0.3478 -6.48385,0.33537 -0.79496,-0.0248 -1.18623,-0.38505 -1.1738,-1.08064 0.0124,-0.62105 0.60242,-1.04958 1.77002,-1.28559 1.03094,-0.0869 2.49043,-0.25463 4.37846,-0.50305 1.25452,-0.236 1.88799,-0.68937 1.90043,-1.36012 0.0124,-0.81979 -0.0683,-2.37243 -0.24221,-4.65793 -0.18633,-2.40969 -0.27949,-4.01202 -0.27948,-4.80699 -10e-6,-1.75137 0.0869,-3.54622 0.26085,-5.38457 0.1863,-2.11157 0.29188,-3.52137 0.31674,-4.2294 0.0372,-1.56504 -0.37886,-2.36 -1.24833,-2.38486 -1.76382,-0.0497 -3.76983,0.44718 -6.01805,1.49053 -1.30423,0.59624 -2.29792,1.31046 -2.98107,2.14265 -0.43475,0.52171 -0.76391,1.3353 -0.98749,2.44076 -0.16148,0.80739 -0.63969,1.20487 -1.43464,1.19243 -0.9937,-0.0124 -1.4657,-0.9502 -1.41601,-2.81339 l 0.0932,-3.89403 c 0.0497,-1.70167 0.37573,-2.77921 0.97816,-3.23261 0.60242,-0.45334 2.08365,-0.68003 4.44367,-0.68006 -0.26085,3e-5 2.09917,0.0497 7.08006,0.14906 4.21075,0.087 8.18552,0.0994 11.92431,0.0373 2.29788,-0.0372 5.75717,-0.11797 10.37787,-0.24221 4.14863,-0.0993 6.24159,-0.14903 6.2789,-0.14905 0.99364,0.0125 1.59607,0.47824 1.80727,1.39738 0.0496,0.21118 0.21112,2.02467 0.48443,5.44046 z" />
        </g>
        <path
           style="fill:#000000;stroke:#000000;stroke-width:0.1069769px;stroke-linecap:butt;stroke-linejoin:miter;stroke-opacity:1"
           d="m 206.30768,461.10194 c -0.0738,0.006 -0.15513,0.0262 -0.22554,0.047 -0.11731,0.0347 -0.22253,0.0944 -0.31951,0.16915 -0.16741,0.12905 -0.24319,0.30735 -0.3618,0.46048 l -0.17385,0.24433 -0.25373,0.57324 -0.0423,0.28427 -0.0329,0.29837 c 0,0 0.003,0.42365 0.0282,0.62962 0.0217,0.18065 0.0507,0.36153 0.10337,0.53565 0.06,0.19833 0.15411,0.38251 0.23494,0.57324 0.0813,0.19188 0.15243,0.39118 0.25373,0.57324 0.14353,0.25798 0.30687,0.49886 0.49806,0.7236 0.0803,0.0944 0.18312,0.16805 0.27252,0.25373 0.12031,0.11532 0.22365,0.24799 0.3571,0.34771 0.0971,0.0725 0.21252,0.12174 0.31951,0.17855 0.10305,0.0547 0.20273,0.11421 0.31012,0.15975 0.13709,0.0582 0.27654,0.12305 0.42288,0.15036 0.16257,0.0303 0.49806,0.009 0.49806,0.009 0,0 0.43492,-10e-4 0.64842,-0.0376 0.15973,-0.0273 0.31618,-0.0801 0.46987,-0.13157 0.15179,-0.0508 0.29733,-0.1093 0.44168,-0.17855 0.14266,-0.0684 0.2955,-0.12933 0.41348,-0.23493 0.278,-0.24882 0.48876,-0.57412 0.66722,-0.90215 0.10408,-0.19131 0.17791,-0.3982 0.22554,-0.61083 0.0336,-0.14983 0.0444,-0.30706 0.0376,-0.46047 -0.007,-0.14872 -0.0256,-0.30138 -0.0752,-0.44168 -0.0828,-0.23407 -0.19892,-0.45732 -0.3571,-0.64842 -0.0952,-0.11496 -0.22703,-0.1943 -0.34771,-0.28192 -0.0972,-0.0706 -0.19663,-0.13751 -0.30071,-0.19735 -0.13078,-0.0752 -0.27264,-0.13275 -0.40409,-0.20674 -0.097,-0.0546 -0.1872,-0.11067 -0.28192,-0.16915 -0.12169,-0.0751 -0.24424,-0.16077 -0.3665,-0.23494 -0.11945,-0.0725 -0.24978,-0.12994 -0.3665,-0.20674 -0.15206,-0.10004 -0.2906,-0.21456 -0.43228,-0.32891 -0.15798,-0.12749 -0.29946,-0.28047 -0.46047,-0.40408 -0.14564,-0.11182 -0.29953,-0.21251 -0.46047,-0.30072 -0.0975,-0.0534 -0.19524,-0.0967 -0.30072,-0.13156 -0.13627,-0.045 -0.27976,-0.0935 -0.42288,-0.10338 -0.0732,-0.005 -0.14236,-0.006 -0.21614,0 z"
           id="path3010"
           inkscape:connector-curvature="0"
           sodipodi:nodetypes="scsccccccsssscsscscccsssscsssscsscsssccs" />
        <path
           style="fill:#000000;stroke:#000000;stroke-width:0.10697689px;stroke-linecap:butt;stroke-linejoin:miter;stroke-opacity:1"
           d="m 211.71395,471.12097 -0.17168,-0.44955 -0.0572,-0.41129 0,-0.60259 0.0858,-0.26782 0.10492,-0.20086 0.20984,-0.23912 0.33384,-0.21043 0.25753,-0.1626 0.17168,-0.17217 0.16215,-0.17217 0.2003,-0.23912 0.10492,-0.21043 0.13354,-0.21042 0.12399,-0.24869 0.0572,-0.31564 0.0382,-0.43999 -0.0858,-0.33477 -0.0668,-0.47824 0.0191,-0.50694 0.13353,-0.5452 0.20984,-0.42085 0.28615,-0.36347 0.35291,-0.34434 0.45783,-0.30607 0.54368,-0.25825 0.62951,-0.1913 0.67721,-0.15304 0.7249,-0.21999 0.54368,-0.067 0.82028,-0.01 0.51506,0.10521 0.41968,0.17217 0.44829,0.29651 0.31476,0.26782 0.34337,0.47824 0.23846,0.39216 0.11445,0.3539 0.0191,0.10521 0.21938,0.23913 0.25753,0.21999 0.22891,0.13391 0.28615,0.1626 0.28614,0.17217 0.30522,0.12434 0.3243,0.0383 c 0,0 0.42922,-0.0383 0.47691,-0.0191 0.0477,0.0191 0.37199,0.0478 0.37199,0.0478 l 0.34337,0.1626 0.29568,0.29651 0.21938,0.28695 0.13354,0.21042 0.11445,0.25825 0.0858,0.34434 0.0954,0.44955 -0.0191,0.41129 -0.0191,0.43042 -0.0191,0.38259 -0.0858,0.20087 -0.124,0.33477 -0.22892,0.38259 -0.38152,0.42086 -0.3243,0.33477 -0.47691,0.3539 -0.67721,0.30608 -0.51506,0.24868 -2.19377,0.80345 -0.49599,0.13391 -0.78212,0.21999 -1.19227,0.26782 -1.29719,0.25825 -0.99197,0.11478 -0.75351,0.01 -0.43876,-0.067 -0.41968,-0.10521 -0.42921,-0.21043 -0.22892,-0.14347 -0.35291,-0.21043 -0.38153,-0.36346 -0.36245,-0.52607 z"
           id="path3012"
           inkscape:connector-curvature="0" />
        <path
           style="fill:#000000;stroke:#000000;stroke-width:0.1069769px;stroke-linecap:butt;stroke-linejoin:miter;stroke-opacity:1"
           d="m 211.2883,452.87923 c -0.0689,0.008 -0.14076,0.0347 -0.20674,0.0564 -0.1128,0.0371 -0.21695,0.0826 -0.32891,0.12217 -0.0853,0.0301 -0.0888,0.0343 -0.17678,0.0556 -0.0406,0.01 -0.11657,0.0311 -0.17425,0.0681 -0.0723,0.0226 -0.0816,0.0549 -0.0899,0.047 l -0.3101,0.19733 -0.2913,0.26625 -0.17465,0.14215 c -0.0173,0.0261 -0.0994,0.10836 -0.1304,0.14566 -0.0717,0.0994 -0.14214,0.22099 -0.20322,0.33713 -0.0663,0.12611 -0.13433,0.25324 -0.18795,0.38529 -0.0629,0.15502 -0.10904,0.3077 -0.15036,0.46987 -0.0457,0.17933 -0.0789,0.3616 -0.10337,0.54505 -0.0279,0.20916 -0.0336,0.42842 -0.047,0.63902 -0.0118,0.1848 -0.0373,0.36951 -0.0282,0.55445 0.0105,0.21257 0.0455,0.42242 0.094,0.62962 0.0404,0.17278 0.0906,0.34412 0.15976,0.50746 0.0762,0.17988 0.21529,0.42121 0.27252,0.51686 0.0572,0.0957 0.33481,0.37375 0.51686,0.54505 0.0724,0.0682 0.15285,0.13185 0.23493,0.18795 0.0929,0.0635 0.1898,0.11136 0.29132,0.15975 0.0992,0.0473 0.19823,0.092 0.30072,0.13156 0.10419,0.0402 0.21187,0.0831 0.31951,0.11277 0.13106,0.0362 0.27038,0.0506 0.40409,0.0752 0.10796,0.0199 0.20999,0.0489 0.31951,0.0564 0.1619,0.011 0.32956,0.0132 0.48866,-0.0188 0.19629,-0.0395 0.38222,-0.12228 0.56384,-0.20674 0.18855,-0.0877 0.37408,-0.19162 0.54505,-0.31011 0.10583,-0.0733 0.19862,-0.15491 0.29132,-0.24434 0.13301,-0.12831 0.27618,-0.25774 0.3759,-0.41348 0.0654,-0.10216 0.10629,-0.22198 0.14096,-0.33831 0.0416,-0.13962 0.0703,-0.28664 0.0752,-0.43228 0.006,-0.17629 -0.0199,-0.35369 -0.0564,-0.52625 -0.0325,-0.15388 -0.077,-0.29807 -0.14096,-0.44168 -0.0512,-0.11482 -0.1222,-0.22822 -0.19734,-0.32891 -0.0836,-0.11197 -0.19003,-0.20492 -0.28192,-0.31011 -0.0893,-0.10225 -0.17283,-0.20104 -0.25373,-0.31011 -0.0984,-0.13268 -0.19064,-0.27578 -0.28193,-0.41349 -0.061,-0.092 -0.13268,-0.17201 -0.17855,-0.27252 -0.0385,-0.0844 -0.0584,-0.18122 -0.0752,-0.27253 -0.0202,-0.11015 -0.0265,-0.22632 -0.0282,-0.3383 -0.002,-0.11495 0.0283,-0.22376 0.0188,-0.33831 -0.008,-0.10097 -0.0442,-0.20172 -0.0658,-0.30072 -0.0132,-0.0605 -0.0206,-0.11904 -0.0376,-0.17855 -0.028,-0.0979 -0.0614,-0.21193 -0.11277,-0.29132 -0.0824,-0.12737 -0.0731,-0.1446 -0.15036,-0.23493 0,0 -0.10541,-0.13659 -0.16915,-0.19735 -0.0641,-0.0611 -0.12599,-0.13309 -0.20674,-0.16915 -0.0974,-0.0435 -0.2135,-0.0448 -0.31951,-0.0564 -0.0854,-0.009 -0.16845,-0.0198 -0.25373,-0.009 z"
           id="path3014"
           inkscape:connector-curvature="0"
           sodipodi:nodetypes="cccscccccccsscccsscsscccsccscscscssssssscccccscscccc" />
        <path
           style="fill:#000000;stroke:#000000;stroke-width:0.1069769px;stroke-linecap:butt;stroke-linejoin:miter;stroke-opacity:1"
           d="m 216.29137,451.55538 -0.26772,0.0149 -0.093,0.0121 -0.31012,0.0564 -0.41348,0.094 -0.28192,0.15975 -0.28192,0.19735 -0.13157,0.33831 0.009,0.31951 0.0188,0.3571 0.0376,0.31011 0.13156,0.33831 0.18795,0.28192 0.18795,0.26313 0.0752,0.3289 0,0.34771 -0.0376,0.49806 -0.0376,0.46987 0.0188,0.60143 0.0752,0.44168 0.15036,0.38529 0.24433,0.26313 0.29132,0.26313 0.3665,0.15035 0.37589,0.0752 0.48867,0.0188 0.56384,-0.047 0.66722,-0.16915 0.3665,-0.25373 0.37589,-0.3571 0.39469,-0.50746 0.29132,-0.55445 0.12217,-0.42288 0.0282,-0.58264 -0.0564,-0.3383 -0.11277,-0.40409 -0.15036,-0.45108 -0.23493,-0.38529 -0.23494,-0.38529 -0.45107,-0.53565 -0.32891,-0.34771 -0.46987,-0.32891 -0.61083,-0.3571 -0.16611,-0.0608 -0.30376,-0.0707 z"
           id="path3016"
           inkscape:connector-curvature="0"
           sodipodi:nodetypes="cccccccccccccccccccccccccccccccccccccccccccccc" />
        <path
           style="fill:#000000;stroke:#000000;stroke-width:0.1069769px;stroke-linecap:butt;stroke-linejoin:miter;stroke-opacity:1"
           d="m 224.2473,456.05555 c -0.0405,0.0135 -0.23494,0.0282 -0.23494,0.0282 l -0.18795,0.047 -0.23493,0.12217 -0.13156,0.10337 -0.13157,0.15975 -0.12216,0.13157 -0.15036,0.31011 -0.0846,0.24433 -0.0564,0.29132 -0.047,0.21614 -0.0564,0.21614 -0.13157,0.23494 -0.14096,0.23493 -0.0752,0.25373 -0.094,0.16915 -0.0752,0.19735 -0.0846,0.13156 -0.0752,0.17855 -0.094,0.16916 -0.0846,0.15975 -0.0846,0.14096 -0.094,0.23494 -0.0846,0.12216 -0.0658,0.15976 -0.047,0.15036 0.0188,0.22553 0,0.44168 -0.009,0.20676 0.094,0.20674 c 0,0 0.0872,0.19849 0.094,0.22554 0.007,0.027 0.13157,0.18795 0.13157,0.18795 l 0.20674,0.17855 0.25373,0.19734 0.26313,0.15036 0.23493,0.10337 0.41349,0.17855 0.19734,0.0846 0.40409,0.0282 0.40409,-0.0188 0.20674,-0.047 0.26313,-0.094 0.39469,-0.13156 0.37589,-0.16915 0.28192,-0.21614 0.27253,-0.25373 0.28192,-0.31951 0.13156,-0.21614 0.11277,-0.22554 0.11277,-0.3571 0.0752,-0.24433 0.047,-0.33831 c 0,0 0.0282,-0.55558 0.0282,-0.58264 0,-0.027 -0.0376,-0.48866 -0.0376,-0.48866 l -0.0376,-0.48866 -0.10337,-0.46987 -0.10337,-0.31012 -0.094,-0.22554 -0.14096,-0.28192 -0.28192,-0.3665 -0.14097,-0.15035 -0.10118,-0.10556 -0.14315,-0.11998 -0.46047,-0.31011 -0.24366,-0.14087 -0.16412,-0.0685 -0.12787,-0.0349 -0.26313,-0.0282 c 0,0 -0.13808,-0.0323 -0.17855,-0.0188 z"
           id="path3018"
           inkscape:connector-curvature="0"
           sodipodi:nodetypes="ccccccccccccccccccccccccccccccccccccccccccccccccccccscccccccccccccccc" />
      </g>
    </g>
  </g>
</svg>
